<svg width="28" height="36" viewBox="0 0 28 36" fill="none" xmlns="http://www.w3.org/2000/svg">
<path d="M8 16.5H16V14.5H8V16.5ZM8 13.5H20V11.5H8V13.5ZM8 10.5H20V8.5H8V10.5ZM4 24.5V6.5C4 5.95 4.196 5.479 4.588 5.087C4.97933 4.69567 5.45 4.5 6 4.5H22C22.55 4.5 23.021 4.69567 23.413 5.087C23.8043 5.479 24 5.95 24 6.5V18.5C24 19.05 23.8043 19.521 23.413 19.913C23.021 20.3043 22.55 20.5 22 20.5H8L4 24.5Z" fill="white"/>
<path d="M9.19951 33.4591C9.25951 33.4591 9.31118 33.4824 9.35451 33.5291L9.77451 33.9891C9.48118 34.3358 9.12284 34.6041 8.69951 34.7941C8.27951 34.9841 7.77284 35.0791 7.17951 35.0791C6.65951 35.0791 6.18784 34.9891 5.76451 34.8091C5.34451 34.6291 4.98451 34.3774 4.68451 34.0541C4.38784 33.7308 4.15784 33.3441 3.99451 32.8941C3.83118 32.4441 3.74951 31.9491 3.74951 31.4091C3.74951 30.8691 3.83451 30.3741 4.00451 29.9241C4.17784 29.4741 4.41951 29.0874 4.72951 28.7641C5.03951 28.4408 5.40951 28.1891 5.83951 28.0091C6.27284 27.8291 6.75118 27.7391 7.27451 27.7391C7.78451 27.7391 8.23784 27.8224 8.63451 27.9891C9.03118 28.1558 9.37618 28.3774 9.66951 28.6541L9.31951 29.1491C9.29618 29.1858 9.26618 29.2158 9.22951 29.2391C9.19618 29.2624 9.15118 29.2741 9.09451 29.2741C9.03118 29.2741 8.95618 29.2424 8.86951 29.1791C8.78618 29.1158 8.67451 29.0458 8.53451 28.9691C8.39784 28.8891 8.22784 28.8174 8.02451 28.7541C7.82118 28.6908 7.56784 28.6591 7.26451 28.6591C6.90784 28.6591 6.58118 28.7224 6.28451 28.8491C5.98784 28.9724 5.73118 29.1524 5.51451 29.3891C5.30118 29.6224 5.13451 29.9108 5.01451 30.2541C4.89784 30.5941 4.83951 30.9791 4.83951 31.4091C4.83951 31.8458 4.90118 32.2341 5.02451 32.5741C5.14784 32.9141 5.31784 33.2024 5.53451 33.4391C5.75118 33.6758 6.00618 33.8558 6.29951 33.9791C6.59284 34.1024 6.90951 34.1641 7.24951 34.1641C7.45618 34.1641 7.64118 34.1524 7.80451 34.1291C7.97118 34.1024 8.12284 34.0641 8.25951 34.0141C8.39951 33.9641 8.53118 33.9008 8.65451 33.8241C8.77784 33.7441 8.89951 33.6491 9.01951 33.5391C9.04618 33.5158 9.07451 33.4974 9.10451 33.4841C9.13451 33.4674 9.16618 33.4591 9.19951 33.4591ZM11.8197 30.5641C12.033 30.3474 12.268 30.1724 12.5247 30.0391C12.7847 29.9058 13.083 29.8391 13.4197 29.8391C13.6997 29.8391 13.9447 29.8858 14.1547 29.9791C14.368 30.0724 14.5463 30.2041 14.6897 30.3741C14.833 30.5408 14.9413 30.7424 15.0147 30.9791C15.088 31.2158 15.1247 31.4774 15.1247 31.7641V34.9991H14.1447V31.7641C14.1447 31.4008 14.0613 31.1191 13.8947 30.9191C13.728 30.7158 13.473 30.6141 13.1297 30.6141C12.8797 30.6141 12.6447 30.6741 12.4247 30.7941C12.208 30.9108 12.0063 31.0708 11.8197 31.2741V34.9991H10.8447V27.6191H11.8197V30.5641ZM19.3704 32.7441C18.9737 32.7574 18.637 32.7891 18.3604 32.8391C18.0837 32.8858 17.8587 32.9491 17.6854 33.0291C17.512 33.1091 17.387 33.2041 17.3104 33.3141C17.2337 33.4208 17.1954 33.5408 17.1954 33.6741C17.1954 33.8008 17.2154 33.9108 17.2554 34.0041C17.2987 34.0941 17.3554 34.1691 17.4254 34.2291C17.4987 34.2858 17.5837 34.3274 17.6804 34.3541C17.777 34.3808 17.882 34.3941 17.9954 34.3941C18.1454 34.3941 18.282 34.3791 18.4054 34.3491C18.532 34.3191 18.6504 34.2774 18.7604 34.2241C18.8704 34.1674 18.9754 34.0991 19.0754 34.0191C19.1754 33.9391 19.2737 33.8474 19.3704 33.7441V32.7441ZM16.5104 30.6291C16.7937 30.3591 17.1004 30.1574 17.4304 30.0241C17.7637 29.8908 18.1287 29.8241 18.5254 29.8241C18.8154 29.8241 19.072 29.8724 19.2954 29.9691C19.5187 30.0624 19.707 30.1941 19.8604 30.3641C20.0137 30.5341 20.1287 30.7374 20.2054 30.9741C20.2854 31.2108 20.3254 31.4724 20.3254 31.7591V34.9991H19.8904C19.7937 34.9991 19.7204 34.9841 19.6704 34.9541C19.6204 34.9208 19.5804 34.8608 19.5504 34.7741L19.4454 34.3291C19.3154 34.4491 19.187 34.5558 19.0604 34.6491C18.9337 34.7391 18.8004 34.8174 18.6604 34.8841C18.5237 34.9474 18.377 34.9958 18.2204 35.0291C18.0637 35.0624 17.8904 35.0791 17.7004 35.0791C17.5004 35.0791 17.312 35.0524 17.1354 34.9991C16.962 34.9424 16.8104 34.8574 16.6804 34.7441C16.5504 34.6308 16.447 34.4891 16.3704 34.3191C16.297 34.1491 16.2604 33.9508 16.2604 33.7241C16.2604 33.5241 16.3137 33.3324 16.4204 33.1491C16.5304 32.9624 16.707 32.7958 16.9504 32.6491C17.197 32.5024 17.517 32.3824 17.9104 32.2891C18.307 32.1958 18.7937 32.1424 19.3704 32.1291V31.7591C19.3704 31.3758 19.2887 31.0891 19.1254 30.8991C18.962 30.7091 18.722 30.6141 18.4054 30.6141C18.192 30.6141 18.012 30.6408 17.8654 30.6941C17.722 30.7474 17.597 30.8074 17.4904 30.8741C17.387 30.9374 17.2954 30.9958 17.2154 31.0491C17.1387 31.1024 17.0587 31.1291 16.9754 31.1291C16.9087 31.1291 16.8504 31.1108 16.8004 31.0741C16.7537 31.0374 16.7154 30.9941 16.6854 30.9441L16.5104 30.6291ZM23.3522 35.0791C22.9422 35.0791 22.6256 34.9641 22.4022 34.7341C22.1822 34.5041 22.0722 34.1758 22.0722 33.7491V30.7091H21.4822C21.4256 30.7091 21.3772 30.6924 21.3372 30.6591C21.3006 30.6224 21.2822 30.5691 21.2822 30.4991V30.1041L22.1072 29.9891L22.3272 28.4741C22.3406 28.4174 22.3656 28.3741 22.4022 28.3441C22.4422 28.3108 22.4922 28.2941 22.5522 28.2941H23.0472V29.9991H24.4872V30.7091H23.0472V33.6841C23.0472 33.8841 23.0956 34.0341 23.1922 34.1341C23.2922 34.2308 23.4189 34.2791 23.5722 34.2791C23.6622 34.2791 23.7389 34.2674 23.8022 34.2441C23.8689 34.2208 23.9256 34.1958 23.9722 34.1691C24.0189 34.1391 24.0589 34.1124 24.0922 34.0891C24.1256 34.0658 24.1556 34.0541 24.1822 34.0541C24.2156 34.0541 24.2406 34.0624 24.2572 34.0791C24.2772 34.0924 24.2972 34.1158 24.3172 34.1491L24.6072 34.6191C24.4472 34.7658 24.2572 34.8791 24.0372 34.9591C23.8172 35.0391 23.5889 35.0791 23.3522 35.0791Z" fill="white"/>
</svg>
