<svg width="56" height="30" viewBox="0 0 56 30" fill="none" xmlns="http://www.w3.org/2000/svg">
<path d="M56 29.5H0.0112305L15.4067 4.9039C16.8692 2.56745 19.4314 1.14844 22.1879 1.14844H48C52.4183 1.14844 56 4.73016 56 9.14844V29.5Z" fill="#0F8EDB"/>
<path d="M22.9 7.27V14.5H22.21C22.1033 14.5 22.0133 14.4833 21.94 14.45C21.87 14.4133 21.8017 14.3533 21.735 14.27L17.96 9.45C17.98 9.67 17.99 9.87333 17.99 10.06V14.5H16.805V7.27H17.51C17.5667 7.27 17.615 7.27333 17.655 7.28C17.6983 7.28333 17.735 7.29333 17.765 7.31C17.7983 7.32333 17.83 7.345 17.86 7.375C17.89 7.40167 17.9233 7.43833 17.96 7.485L21.75 12.325C21.74 12.2083 21.7317 12.0933 21.725 11.98C21.7183 11.8667 21.715 11.7617 21.715 11.665V7.27H22.9ZM27.4638 11.345C27.4638 11.185 27.4405 11.035 27.3938 10.895C27.3505 10.7517 27.2838 10.6267 27.1938 10.52C27.1038 10.4133 26.9888 10.33 26.8488 10.27C26.7122 10.2067 26.5522 10.175 26.3688 10.175C26.0122 10.175 25.7305 10.2767 25.5238 10.48C25.3205 10.6833 25.1905 10.9717 25.1338 11.345H27.4638ZM25.1088 12.09C25.1288 12.3533 25.1755 12.5817 25.2488 12.775C25.3222 12.965 25.4188 13.1233 25.5388 13.25C25.6588 13.3733 25.8005 13.4667 25.9638 13.53C26.1305 13.59 26.3138 13.62 26.5138 13.62C26.7138 13.62 26.8855 13.5967 27.0288 13.55C27.1755 13.5033 27.3022 13.4517 27.4088 13.395C27.5188 13.3383 27.6138 13.2867 27.6938 13.24C27.7772 13.1933 27.8572 13.17 27.9338 13.17C28.0372 13.17 28.1138 13.2083 28.1638 13.285L28.5188 13.735C28.3822 13.895 28.2288 14.03 28.0588 14.14C27.8888 14.2467 27.7105 14.3333 27.5238 14.4C27.3405 14.4633 27.1522 14.5083 26.9588 14.535C26.7688 14.5617 26.5838 14.575 26.4038 14.575C26.0472 14.575 25.7155 14.5167 25.4088 14.4C25.1022 14.28 24.8355 14.105 24.6088 13.875C24.3822 13.6417 24.2038 13.355 24.0738 13.015C23.9438 12.6717 23.8788 12.275 23.8788 11.825C23.8788 11.475 23.9355 11.1467 24.0488 10.84C24.1622 10.53 24.3238 10.2617 24.5338 10.035C24.7472 9.805 25.0055 9.62333 25.3088 9.49C25.6155 9.35667 25.9605 9.29 26.3438 9.29C26.6672 9.29 26.9655 9.34167 27.2388 9.445C27.5122 9.54833 27.7472 9.7 27.9438 9.9C28.1405 10.0967 28.2938 10.34 28.4038 10.63C28.5172 10.9167 28.5738 11.245 28.5738 11.615C28.5738 11.8017 28.5538 11.9283 28.5138 11.995C28.4738 12.0583 28.3972 12.09 28.2838 12.09H25.1088ZM31.1618 14.58C30.7151 14.58 30.3718 14.455 30.1318 14.205C29.8951 13.9517 29.7768 13.6033 29.7768 13.16V10.295H29.2518C29.1851 10.295 29.1285 10.2733 29.0818 10.23C29.0351 10.1867 29.0118 10.1217 29.0118 10.035V9.545L29.8368 9.41L30.0968 8.01C30.1135 7.94333 30.1451 7.89167 30.1918 7.855C30.2385 7.81833 30.2985 7.8 30.3718 7.8H31.0118V9.415H32.3818V10.295H31.0118V13.075C31.0118 13.235 31.0501 13.36 31.1268 13.45C31.2068 13.54 31.3151 13.585 31.4518 13.585C31.5285 13.585 31.5918 13.5767 31.6418 13.56C31.6951 13.54 31.7401 13.52 31.7768 13.5C31.8168 13.48 31.8518 13.4617 31.8818 13.445C31.9118 13.425 31.9418 13.415 31.9718 13.415C32.0085 13.415 32.0385 13.425 32.0618 13.445C32.0851 13.4617 32.1101 13.4883 32.1368 13.525L32.5068 14.125C32.3268 14.275 32.1201 14.3883 31.8868 14.465C31.6535 14.5417 31.4118 14.58 31.1618 14.58ZM36.7691 10.26C36.9291 9.95333 37.1191 9.71333 37.3391 9.54C37.5591 9.36333 37.8191 9.275 38.1191 9.275C38.3558 9.275 38.5458 9.32667 38.6891 9.43L38.6091 10.355C38.5925 10.415 38.5675 10.4583 38.5341 10.485C38.5041 10.5083 38.4625 10.52 38.4091 10.52C38.3591 10.52 38.2841 10.5117 38.1841 10.495C38.0875 10.4783 37.9925 10.47 37.8991 10.47C37.7625 10.47 37.6408 10.49 37.5341 10.53C37.4275 10.57 37.3308 10.6283 37.2441 10.705C37.1608 10.7783 37.0858 10.8683 37.0191 10.975C36.9558 11.0817 36.8958 11.2033 36.8391 11.34V14.5H35.6041V9.37H36.3291C36.4558 9.37 36.5441 9.39333 36.5941 9.44C36.6441 9.48333 36.6775 9.56333 36.6941 9.68L36.7691 10.26ZM41.9763 12.31C41.6196 12.3267 41.3196 12.3583 41.0763 12.405C40.8329 12.4483 40.6379 12.505 40.4913 12.575C40.3446 12.645 40.2396 12.7267 40.1763 12.82C40.1129 12.9133 40.0813 13.015 40.0813 13.125C40.0813 13.3417 40.1446 13.4967 40.2713 13.59C40.4013 13.6833 40.5696 13.73 40.7763 13.73C41.0296 13.73 41.2479 13.685 41.4313 13.595C41.6179 13.5017 41.7996 13.3617 41.9763 13.175V12.31ZM39.1463 10.085C39.7363 9.545 40.4463 9.275 41.2763 9.275C41.5763 9.275 41.8446 9.325 42.0813 9.425C42.3179 9.52167 42.5179 9.65833 42.6813 9.835C42.8446 10.0083 42.9679 10.2167 43.0513 10.46C43.1379 10.7033 43.1813 10.97 43.1813 11.26V14.5H42.6213C42.5046 14.5 42.4146 14.4833 42.3513 14.45C42.2879 14.4133 42.2379 14.3417 42.2013 14.235L42.0913 13.865C41.9613 13.9817 41.8346 14.085 41.7113 14.175C41.5879 14.2617 41.4596 14.335 41.3263 14.395C41.1929 14.455 41.0496 14.5 40.8963 14.53C40.7463 14.5633 40.5796 14.58 40.3963 14.58C40.1796 14.58 39.9796 14.5517 39.7963 14.495C39.6129 14.435 39.4546 14.3467 39.3213 14.23C39.1879 14.1133 39.0846 13.9683 39.0113 13.795C38.9379 13.6217 38.9013 13.42 38.9013 13.19C38.9013 13.06 38.9229 12.9317 38.9663 12.805C39.0096 12.675 39.0796 12.5517 39.1763 12.435C39.2763 12.3183 39.4046 12.2083 39.5613 12.105C39.7179 12.0017 39.9096 11.9117 40.1363 11.835C40.3663 11.7583 40.6329 11.6967 40.9363 11.65C41.2396 11.6 41.5863 11.57 41.9763 11.56V11.26C41.9763 10.9167 41.9029 10.6633 41.7563 10.5C41.6096 10.3333 41.3979 10.25 41.1213 10.25C40.9213 10.25 40.7546 10.2733 40.6213 10.32C40.4913 10.3667 40.3763 10.42 40.2763 10.48C40.1763 10.5367 40.0846 10.5883 40.0013 10.635C39.9213 10.6817 39.8313 10.705 39.7313 10.705C39.6446 10.705 39.5713 10.6833 39.5113 10.64C39.4513 10.5933 39.4029 10.54 39.3663 10.48L39.1463 10.085ZM45.986 14.58C45.5393 14.58 45.196 14.455 44.956 14.205C44.7193 13.9517 44.601 13.6033 44.601 13.16V10.295H44.076C44.0093 10.295 43.9527 10.2733 43.906 10.23C43.8593 10.1867 43.836 10.1217 43.836 10.035V9.545L44.661 9.41L44.921 8.01C44.9377 7.94333 44.9693 7.89167 45.016 7.855C45.0627 7.81833 45.1227 7.8 45.196 7.8H45.836V9.415H47.206V10.295H45.836V13.075C45.836 13.235 45.8743 13.36 45.951 13.45C46.031 13.54 46.1393 13.585 46.276 13.585C46.3527 13.585 46.416 13.5767 46.466 13.56C46.5193 13.54 46.5643 13.52 46.601 13.5C46.641 13.48 46.676 13.4617 46.706 13.445C46.736 13.425 46.766 13.415 46.796 13.415C46.8327 13.415 46.8627 13.425 46.886 13.445C46.9093 13.4617 46.9343 13.4883 46.961 13.525L47.331 14.125C47.151 14.275 46.9443 14.3883 46.711 14.465C46.4777 14.5417 46.236 14.58 45.986 14.58ZM51.2627 11.345C51.2627 11.185 51.2393 11.035 51.1927 10.895C51.1493 10.7517 51.0827 10.6267 50.9927 10.52C50.9027 10.4133 50.7877 10.33 50.6477 10.27C50.511 10.2067 50.351 10.175 50.1677 10.175C49.811 10.175 49.5293 10.2767 49.3227 10.48C49.1193 10.6833 48.9893 10.9717 48.9327 11.345H51.2627ZM48.9077 12.09C48.9277 12.3533 48.9743 12.5817 49.0477 12.775C49.121 12.965 49.2177 13.1233 49.3377 13.25C49.4577 13.3733 49.5993 13.4667 49.7627 13.53C49.9293 13.59 50.1127 13.62 50.3127 13.62C50.5127 13.62 50.6843 13.5967 50.8277 13.55C50.9743 13.5033 51.101 13.4517 51.2077 13.395C51.3177 13.3383 51.4127 13.2867 51.4927 13.24C51.576 13.1933 51.656 13.17 51.7327 13.17C51.836 13.17 51.9127 13.2083 51.9627 13.285L52.3177 13.735C52.181 13.895 52.0277 14.03 51.8577 14.14C51.6877 14.2467 51.5093 14.3333 51.3227 14.4C51.1393 14.4633 50.951 14.5083 50.7577 14.535C50.5677 14.5617 50.3827 14.575 50.2027 14.575C49.846 14.575 49.5143 14.5167 49.2077 14.4C48.901 14.28 48.6343 14.105 48.4077 13.875C48.181 13.6417 48.0027 13.355 47.8727 13.015C47.7427 12.6717 47.6777 12.275 47.6777 11.825C47.6777 11.475 47.7343 11.1467 47.8477 10.84C47.961 10.53 48.1227 10.2617 48.3327 10.035C48.546 9.805 48.8043 9.62333 49.1077 9.49C49.4143 9.35667 49.7593 9.29 50.1427 9.29C50.466 9.29 50.7643 9.34167 51.0377 9.445C51.311 9.54833 51.546 9.7 51.7427 9.9C51.9393 10.0967 52.0927 10.34 52.2027 10.63C52.316 10.9167 52.3727 11.245 52.3727 11.615C52.3727 11.8017 52.3527 11.9283 52.3127 11.995C52.2727 12.0583 52.196 12.09 52.0827 12.09H48.9077Z" fill="#EFF1FF"/>
</svg>
