<svg width="32" height="32" viewBox="0 0 32 32" fill="none" xmlns="http://www.w3.org/2000/svg">
    <rect width="18.794" height="9.053" rx=".805" transform="matrix(-.86603 -.5 -.86603 .5 24.701 25.6)" fill="#CBCBCB"/>
    <path d="M25.26 10.76v12.576c0 .64-.454 1.416-1.007 1.723l-2.014 1.118c-.539.3-.97.041-.97-.58V12.893c0-.43.28-.953.65-1.213l2.087-1.467c.198-.14.396-.184.549-.124l.445.175c.165.065.26.246.26.495z" fill="#3543BF" stroke="#4A4A4A" stroke-width=".703"/>
    <path d="m21.564 12.3.306.174V25.544c0 .703-.494.988-1.102.637L7.873 18.736l-.311-.18.007-.355.251-12.805c.01-.516.379-.721.831-.463L21.564 12.3z" fill="#fff" stroke="#4A4A4A" stroke-width=".703"/>
    <path d="m21.698 23.513-.182-9.838-1.336 7.166 1.518 2.672z" fill="#4A4A4A"/>
    <path d="M7.41 4.637 5.04 17.456c-.065.352.03.742.192 1.067.162.33.417.646.733.84l12.248 7.541c.253.156.553.233.833.134.294-.105.463-.366.514-.663l2.333-13.53a.543.543 0 0 0-.056-.335.578.578 0 0 0-.22-.237L8.04 4.358a.412.412 0 0 0-.628.279z" fill="#fff" stroke="#4A4A4A" stroke-width=".7"/>
    <rect x=".606" width="16.622" height="4.607" rx=".841" transform="matrix(-.86603 -.5 -.86603 .5 26.083 10.601)" fill="#fff" stroke="#4A4A4A" stroke-width=".7"/>
    <path d="M17.244 14.237c.028-.147-.08-.362-.224-.445l-2.627-1.509c-.108-.062-.201-.027-.223.082l-.63 3.212c-.03.146.079.362.223.445l2.627 1.509c.108.062.201.027.223-.082l.63-3.212z" fill="#DE521F"/>
    <path d="M16.455 19.01c.029-.147-.08-.363-.224-.446l-2.627-1.508c-.108-.063-.201-.028-.223.082l-.63 3.21c-.03.148.08.363.224.446l2.626 1.509c.108.062.201.028.223-.082l.63-3.212zM13.163 12.036c.03-.147-.08-.362-.224-.445l-2.626-1.509c-.109-.062-.202-.028-.223.082l-.63 3.211c-.03.147.079.362.223.445l2.627 1.51c.108.061.2.027.223-.083l.63-3.211z" fill="#CBCBCB"/>
    <path d="M19.114 12.554c.062-.314-.17-.773-.478-.95-.23-.133-.43-.06-.475.175l-.034.174c-.062.313.17.773.478.95.23.132.429.06.475-.175l.034-.174zM11.117 7.786c.061-.313-.17-.773-.478-.95-.231-.132-.43-.06-.476.175l-.034.175c-.061.313.17.772.478.95.23.132.43.059.476-.176l.034-.174z" fill="#4A4A4A"/>
    <path d="M12.325 16.69c.029-.147-.08-.362-.224-.445l-2.626-1.51c-.109-.061-.202-.027-.223.083l-.631 3.211c-.029.147.08.362.224.445l2.627 1.509c.108.062.2.028.222-.082l.631-3.211z" fill="#CBCBCB"/>
    <mask id="38fjt9mf3a" fill="#fff">
        <path d="M13.356 3.408c.133-.099.162-.288.049-.409a2.74 2.74 0 1 0-3.017 4.41c.154.06.32-.035.363-.194.044-.16-.051-.323-.203-.388a2.14 2.14 0 1 1 2.372-3.468c.117.118.303.148.436.049zM21.32 7.92c.132-.11.151-.309.027-.429a2.86 2.86 0 1 0-2.981 4.736c.162.06.332-.043.374-.21.042-.168-.06-.336-.22-.401a2.234 2.234 0 1 1 2.343-3.722c.127.116.323.136.456.026z"/>
    </mask>
    <path d="M13.356 3.408c.133-.099.162-.288.049-.409a2.74 2.74 0 1 0-3.017 4.41c.154.06.32-.035.363-.194.044-.16-.051-.323-.203-.388a2.14 2.14 0 1 1 2.372-3.468c.117.118.303.148.436.049z" fill="#fff"/>
    <path d="M21.32 7.92c.132-.11.151-.309.027-.429a2.86 2.86 0 1 0-2.981 4.736c.162.06.332-.043.374-.21.042-.168-.06-.336-.22-.401a2.234 2.234 0 1 1 2.343-3.722c.127.116.323.136.456.026z" fill="#4A4A4A"/>
    <path d="m12.604 2.403-.308.629.308-.629zM9.542 6.878l.474-.515-.474.515zm.406-.44-.474.514.474-.515zM12.34 2.94l-.309.629.31-.629zm.58.418.499-.491-.499.491zm-2.372 3.468-.278.642.278-.643zm-.16.582.258-.651-.258.65zm3.017-4.41.513-.476-.513.476zm7.085 3.922.276-.644-.276.644zm-3.01 4.78-.46.527.46-.528zm.412-.472-.46.528.46-.528zm2.35-3.734.277-.643-.276.643zm.62.399.471-.518-.47.518zm-2.342 3.722.263-.649-.263.649zm-.154.61-.244.657.244-.656zm2.981-4.735.486-.503-.486.503zm-7.429-4.968a3.439 3.439 0 0 0-1.005-.748l-.617 1.257c.224.11.426.26.596.443l1.026-.952zm-1.005-.748a3.44 3.44 0 0 0-1.582-.352l.027 1.4a2.04 2.04 0 0 1 .938.209l.617-1.257zm-1.582-.352a3.44 3.44 0 0 0-1.568.412l.665 1.232a2.04 2.04 0 0 1 .93-.244l-.027-1.4zm-1.568.412A3.44 3.44 0 0 0 8.558 2.92l1.156.79a2.04 2.04 0 0 1 .714-.643l-.665-1.232zM8.558 2.92a3.44 3.44 0 0 0-.574 1.516l1.39.173c.04-.322.156-.63.34-.899l-1.156-.79zm-.574 1.516a3.44 3.44 0 0 0 .183 1.61l1.315-.482a2.04 2.04 0 0 1-.109-.955l-1.39-.173zm.183 1.61c.19.515.498.977.901 1.348l.948-1.03a2.04 2.04 0 0 1-.534-.8l-1.315.482zm.901 1.348c.311.286.671.51 1.062.666l.516-1.302a2.04 2.04 0 0 1-.63-.395l-.948 1.03zm1.758-1.21a1.44 1.44 0 0 1-.404-.262l-.948 1.03c.235.217.505.391.796.517l.556-1.285zm-.404-.262a1.44 1.44 0 0 1-.377-.564L8.73 5.84c.156.425.411.806.744 1.112l.948-1.03zm-.377-.564a1.44 1.44 0 0 1-.077-.675l-1.39-.173a2.84 2.84 0 0 0 .152 1.33l1.315-.482zm-.077-.675a1.44 1.44 0 0 1 .24-.634l-1.155-.79a2.84 2.84 0 0 0-.475 1.25l1.39.174zm.24-.634c.13-.19.303-.345.505-.454l-.665-1.232a2.84 2.84 0 0 0-.995.895l1.155.79zm.505-.454a1.44 1.44 0 0 1 .656-.173l-.027-1.4a2.84 2.84 0 0 0-1.295.34l.666 1.233zm.656-.173c.23-.004.457.046.662.148l.618-1.257a2.84 2.84 0 0 0-1.307-.29l.027 1.4zm.662.148c.146.07.278.166.39.28l.998-.982a2.841 2.841 0 0 0-.77-.555l-.617 1.257zm.39.28c.319.323.892.461 1.352.12l-.835-1.124a.366.366 0 0 1 .48.022l-.996.983zm-.995 3.55c.152-.552-.185-1.037-.6-1.216l-.556 1.285a.365.365 0 0 1-.194-.44l1.35.371zm-1.296.66c.59.233 1.156-.15 1.296-.66l-1.35-.37a.425.425 0 0 1 .57-.272L10.13 8.06zm2.762-4.585a.425.425 0 0 1 .046-.63l.835 1.125c.425-.315.577-.982.145-1.447l-1.026.952zm8.942 3.513c-.31-.3-.671-.54-1.068-.71l-.553 1.286c.24.103.46.25.648.43l.973-1.006zm-1.068-.71a3.559 3.559 0 0 0-1.639-.282l.092 1.397c.34-.022.681.036.994.17l.553-1.286zm-1.639-.282a3.559 3.559 0 0 0-1.588.493l.717 1.203c.293-.174.623-.277.963-.3l-.092-1.396zm-1.588.493a3.56 3.56 0 0 0-1.19 1.162l1.185.746c.182-.289.429-.53.722-.705l-.717-1.203zm-1.19 1.162a3.559 3.559 0 0 0-.533 1.575l1.395.126c.03-.34.141-.667.323-.955l-1.185-.746zm-.533 1.575c-.05.56.032 1.124.242 1.645l1.3-.52a2.16 2.16 0 0 1-.147-.999l-1.395-.126zm.242 1.645c.209.522.539.987.962 1.357l.92-1.055a2.16 2.16 0 0 1-.583-.823l-1.3.521zm.962 1.357c.326.284.699.505 1.102.655l.487-1.313a2.157 2.157 0 0 1-.668-.397l-.92 1.055zm1.763-1.26a1.534 1.534 0 0 1-.43-.266l-.922 1.055c.246.214.525.385.825.507l.527-1.297zm-.43-.266a1.533 1.533 0 0 1-.415-.585l-1.3.522c.173.43.444.813.793 1.118l.921-1.055zm-.415-.585a1.532 1.532 0 0 1-.104-.708l-1.395-.126c-.041.46.027.926.2 1.356l1.299-.521zm-.104-.708c.022-.241.1-.474.23-.679l-1.186-.746a2.933 2.933 0 0 0-.439 1.299l1.395.126zm.23-.679c.128-.205.304-.376.512-.5l-.717-1.203a2.934 2.934 0 0 0-.98.957l1.184.746zm.512-.5c.208-.124.442-.197.684-.213l-.092-1.397c-.462.03-.91.17-1.309.407l.717 1.203zm.684-.213c.242-.016.484.026.706.121l.553-1.286a2.933 2.933 0 0 0-1.35-.232l.091 1.397zm.706.121c.157.068.3.16.426.274l.941-1.036a2.932 2.932 0 0 0-.814-.524l-.553 1.286zm.426.274c.34.31.928.417 1.374.047l-.894-1.077a.35.35 0 0 1 .461-.006l-.941 1.036zm-.973 3.775c.142-.563-.21-1.047-.636-1.22l-.527 1.297a.35.35 0 0 1-.195-.418l1.358.34zm-1.297.696c.601.223 1.167-.176 1.297-.696l-1.358-.341a.413.413 0 0 1 .548-.276l-.487 1.313zm2.739-4.889a.413.413 0 0 1 .01-.612l.895 1.077c.413-.343.529-1.026.068-1.471l-.973 1.006z" fill="#4A4A4A" mask="url(#38fjt9mf3a)"/>
</svg>
