<svg width="32" height="32" viewBox="0 0 32 32" fill="none" xmlns="http://www.w3.org/2000/svg">
    <g clip-path="url(#uxz3t61eoa)">
        <path d="m1.568 23.845 9.62 5.96 6.382-3.676 11.11-5.944c1.727-1.126 1.038-1.671.318-2.015l-9.26-6.854-18.17 11.206a.777.777 0 0 0 0 1.323z" fill="#CBCBCB"/>
        <path d="M6.794 13.499c-.21.366-.336.765-.348 1.114A193.815 193.815 0 0 0 6.34 18.8c0 .065.01.1.016.113.015.002.05.003.114-.02l.323-5.394zm0 0c.21-.367.486-.667.767-.839l15.794-9.674c.286-.175.46-.153.533-.12.064.03.18.13.207.435.16 1.815.417 4.972.475 7.214.056 2.173-.031 5.102-.099 6.868-.013.348-.139.746-.349 1.11-.21.366-.485.664-.765.835L7.55 29.011c-.284.174-.458.153-.531.12-.064-.03-.178-.127-.206-.429-.074-.802-.167-1.872-.251-3.01-.01-.123.03-.303.136-.508.103-.2.249-.385.4-.513.956-.813 1.75-2.023 2.002-3.228.185-.885.057-1.691-.44-2.21-.512-.535-1.289-.636-2.109-.367l.244-5.367z" fill="#fff" stroke="#4A4A4A" stroke-width=".874" stroke-linejoin="round"/>
        <mask id="l9d402doib" fill="#fff">
            <path d="M28.75 7.998c.07 1.649-.904 3.643-2.178 4.453-1.274.811-2.364.131-2.435-1.518-.072-1.649.904-3.643 2.177-4.453 1.274-.811 2.365-.131 2.436 1.518z"/>
        </mask>
        <path d="M28.75 7.998c.07 1.649-.904 3.643-2.178 4.453-1.274.811-2.364.131-2.435-1.518-.072-1.649.904-3.643 2.177-4.453 1.274-.811 2.365-.131 2.436 1.518z" fill="#85889E"/>
        <path d="M28.013 8.467c.053 1.242-.672 2.599-1.479 3.112l.076 1.745c1.74-1.108 2.966-3.739 2.877-5.795l-1.474.938zm-1.479 3.112c-.806.513-1.607.127-1.66-1.115l-1.474.938c.088 2.057 1.468 3.03 3.21 1.922l-.076-1.745zm-1.66-1.115c-.054-1.242.672-2.599 1.478-3.112l-.075-1.745c-1.742 1.108-2.966 3.739-2.878 5.795l1.474-.938zm1.478-3.112c.807-.513 1.607-.127 1.66 1.115l1.475-.938c-.089-2.056-1.469-3.03-3.21-1.922l.075 1.745z" fill="#4A4A4A" mask="url(#l9d402doib)"/>
        <mask id="ftekk7o1gc" fill="#fff">
            <path fill-rule="evenodd" clip-rule="evenodd" d="M11.441 14.868c.041-.939.695-2.034 1.489-2.492L28.752 3.24c.777-.45 1.424-.134 1.477.73.05.82.113 1.892.166 3.026.021.464-.31 1.047-.693 1.446-.905.943-1.55 2.413-1.55 3.7 0 1.295.653 2.02 1.565 1.91.387-.048.722.15.7.642-.053 1.184-.12 2.32-.175 3.196-.06.933-.717 1.993-1.497 2.429l-16.576 9.253c-.858.479-1.527.017-1.461-1.01l.168-2.623c.046-.72.816-1.559 1.417-1.872.037-.019.073-.039.11-.06 1.308-.755 2.368-2.705 2.368-4.356 0-1.65-1.06-2.376-2.368-1.621-.512.295-1.11.214-1.083-.392l.121-2.771z"/>
        </mask>
        <path fill-rule="evenodd" clip-rule="evenodd" d="M11.441 14.868c.041-.939.695-2.034 1.489-2.492L28.752 3.24c.777-.45 1.424-.134 1.477.73.05.82.113 1.892.166 3.026.021.464-.31 1.047-.693 1.446-.905.943-1.55 2.413-1.55 3.7 0 1.295.653 2.02 1.565 1.91.387-.048.722.15.7.642-.053 1.184-.12 2.32-.175 3.196-.06.933-.717 1.993-1.497 2.429l-16.576 9.253c-.858.479-1.527.017-1.461-1.01l.168-2.623c.046-.72.816-1.559 1.417-1.872.037-.019.073-.039.11-.06 1.308-.755 2.368-2.705 2.368-4.356 0-1.65-1.06-2.376-2.368-1.621-.512.295-1.11.214-1.083-.392l.121-2.771z" fill="#3543BF"/>
        <path d="m11.441 14.868-.755.39.755-.39zM30.23 3.972l-.755.496.755-.496zm.013 13.919.754-.37-.754.37zm-1.497 2.429-.013.88.013-.88zm-16.576 9.253.013-.881-.013.88zm-1.461-1.01.754-.368-.754.368zm1.585-4.495-.037.894.037-.894zm17.424-10.016-.278.973.278-.973zm.7.643.755-.39-.755.39zm-.023-7.698.756-.482-.755.482zm-.692 1.446-.283-.647.283.647zM12.93 11.502c-1.196.69-2.183 2.342-2.244 3.757l1.51-.782c.02-.463.343-1.002.734-1.228v-1.747zm15.822-9.135L12.93 11.502v1.747l15.822-9.135V2.367zm2.232 1.109c-.082-1.312-1.062-1.784-2.232-1.109v1.747c.385-.222.697-.063.722.354l1.51-.992zm.166 3.04c-.053-1.14-.115-2.218-.166-3.04l-1.51.992c.05.816.112 1.883.165 3.011l1.511-.964zm-2.241 5.19c0-.957.478-1.992 1.076-2.616l-.566-1.294c-1.21 1.262-2.023 3.166-2.023 4.784l1.513-.873zm1.085 1.373c-.602.074-1.085-.41-1.085-1.373l-1.513.874c0 1.627.821 2.595 2.043 2.445l.555-1.946zm1.002 4.443c.056-.88.123-2.024.176-3.216l-1.51.78a172.39 172.39 0 0 1-.174 3.174l1.508-.738zM28.732 21.2c1.174-.655 2.174-2.259 2.264-3.678l-1.508.738c-.029.446-.344.963-.73 1.18l-.026 1.76zm-16.575 9.253L28.732 21.2l.025-1.76-16.575 9.252-.025 1.761zm-2.204-1.521c-.099 1.547.91 2.244 2.204 1.521l.025-1.761c-.423.236-.753.009-.72-.497l-1.509.737zm.169-2.623-.169 2.623 1.509-.737.168-2.623-1.508.737zm2.281-3.174a1.923 1.923 0 0 1-.072.04l-.075 1.787c.049-.025.098-.052.147-.08v-1.747zm1.611-3.046c0 1.243-.783 2.568-1.61 3.046v1.747c1.787-1.032 3.123-3.608 3.123-5.666l-1.513.873zm-1.61-1.185c.827-.478 1.61-.058 1.61 1.185l1.513-.873c0-2.059-1.336-3.091-3.124-2.059v1.747zm-1.718-3.645-.121 2.771 1.51-.782.122-2.771-1.511.782zm1.717 1.898a.492.492 0 0 1-.15.055.318.318 0 0 1-.142 0c-.08-.023-.032-.055-.036.036l-1.51.782c-.03.697.303 1.009.643 1.105.338.095.774.012 1.195-.23v-1.748zm-.773 8.415c-.003.046-.025.003.123-.18.144-.18.343-.346.503-.43l.075-1.788c-.442.23-.929.638-1.33 1.137-.4.494-.83 1.23-.88 1.998l1.51-.737zm17.81-10.547c.091-.01.16.01.198.04.034.028.022.043.023.02l1.511-.78c.047-1.04-.64-1.291-1.178-1.226l-.555 1.946zm.199-7.546c0-.02.01-.017-.023.048a1.196 1.196 0 0 1-.197.27l.566 1.293c.533-.556 1.21-1.595 1.165-2.575l-1.511.964z" fill="#4A4A4A" mask="url(#ftekk7o1gc)"/>
        <path d="M13.092 13.09c-.573.344-.964.767-.99 1.341l-.099 2.672a.175.175 0 0 0 .253.163l.332-.166c1.883-.607 2.852.164 2.852 2.05 0 2.077-1.145 4.892-3.844 6.095l-.221 3.104c-.03.42.421.702.785.491l6.743-3.896v-1.402s.085-10.43-.016-12.085v-1.67l-5.795 3.304z" fill="#DE521F"/>
        <path d="M20.266 15.674c0-.4.28-.886.626-1.086l2.383-1.375c.346-.2.627-.038.627.362 0 .4-.28.885-.627 1.085l-2.383 1.376c-.346.2-.626.037-.626-.362zM20.266 18.44c0-.39.274-.865.612-1.06l3.96-2.286c.337-.195.612-.037.612.354 0 .39-.275.865-.613 1.06l-3.959 2.286c-.338.195-.612.037-.612-.354z" fill="#fff"/>
    </g>
    <defs>
        <clipPath id="uxz3t61eoa">
            <path fill="#fff" transform="translate(1 2)" d="M0 0h30v28H0z"/>
        </clipPath>
    </defs>
</svg>
