<svg width="32" height="32" viewBox="0 0 32 32" fill="none" xmlns="http://www.w3.org/2000/svg">
    <g clip-path="url(#cug5db5ija)">
        <path d="M1.205 24c-.932-.545-.934-1.42-.004-1.967l10.768-6.322c.846-.496 2.195-.559 3.167-.146l12.922 5.484c1.208.513 1.33 1.53.254 2.133L17.536 29.23c-.62.349-1.515.48-2.348.344l-5.534-.899a3.133 3.133 0 0 1-1.068-.363L1.206 24z" fill="#CBCBCB"/>
        <path d="m6.787 15.274-.063-.385.063.385a1.08 1.08 0 0 0 .57-.283l5.491-5.224a.653.653 0 0 0 .117-.148l-.34-.194.34.194c.523-.915-.623-1.867-1.426-1.185L5.66 13.426c-.835.708-.207 2.066.874 1.89l.252-.042z" fill="#000" stroke="#4A4A4A" stroke-width=".781"/>
        <path d="M16.926 18.536v8.816c0 .829.896 1.349 1.616.938l8.936-5.095a1.08 1.08 0 0 0 .545-.938v-8.412a1.08 1.08 0 0 0-1.582-.957l-8.937 4.692a1.08 1.08 0 0 0-.578.956z" fill="#fff" stroke="#4A4A4A" stroke-width=".781"/>
        <path d="m12.997 9.276-.242-.444-.369.346-4.504 4.233a1.08 1.08 0 0 0-.341.788v8.186c0 .39.21.751.551.942l9.109 5.116a.667.667 0 0 0 .994-.582v-8.768c0-.18-.045-.358-.132-.517l-5.066-9.3z" fill="#fff" stroke="#4A4A4A" stroke-width=".781"/>
        <path d="M10.02 19.865c0-1.142.803-1.605 1.792-1.034.99.571 1.792 1.96 1.792 3.102v4.08l-3.583-2.068v-4.08z" fill="#4A4A4A"/>
        <path d="m11.236 9.979 5.922 10.191a1.08 1.08 0 0 0 1.458.402l11.407-6.324a1.08 1.08 0 0 0 .3-1.642l-7.969-9.423a1.08 1.08 0 0 0-1.369-.236l-9.359 5.452a1.08 1.08 0 0 0-.537.934v.103c0 .19.05.378.147.543z" fill="#CBCBCB" stroke="#4A4A4A" stroke-width=".781"/>
    </g>
    <defs>
        <clipPath id="cug5db5ija">
            <path fill="#fff" transform="translate(.392 1.953)" d="M0 0h31.216v28.095H0z"/>
        </clipPath>
    </defs>
</svg>
