<svg width="32" height="32" viewBox="0 0 32 32" fill="none" xmlns="http://www.w3.org/2000/svg">
    <g clip-path="url(#zzgxj0i97a)">
        <path d="M30.795 24c.932-.545.934-1.42.004-1.967l-10.768-6.322c-.846-.496-2.195-.559-3.167-.146L3.942 21.049c-1.208.513-1.33 1.53-.254 2.133l10.776 6.047c.62.349 1.515.48 2.348.344l5.534-.899a3.134 3.134 0 0 0 1.068-.363l7.38-4.31z" fill="#CBCBCB"/>
        <path d="m25.213 15.274.063-.385-.063.385a1.08 1.08 0 0 1-.57-.283L19.15 9.767a.653.653 0 0 1-.116-.148l.34-.194-.34.194c-.523-.915.623-1.867 1.426-1.185l5.878 4.992c.835.708.207 2.066-.873 1.89l-.253-.042z" fill="#4A4A4A" stroke="#4A4A4A" stroke-width=".781"/>
        <path d="M15.074 18.536v8.816c0 .829-.896 1.349-1.616.938l-8.936-5.095a1.08 1.08 0 0 1-.545-.938v-8.412a1.08 1.08 0 0 1 1.582-.957l8.937 4.692c.355.186.578.555.578.956z" fill="#fff" stroke="#4A4A4A" stroke-width=".781"/>
        <path d="m19.003 9.276.242-.444.369.346 4.505 4.233c.217.205.34.49.34.788v8.186c0 .39-.21.751-.551.942l-9.109 5.116a.667.667 0 0 1-.994-.582v-8.768c0-.18.045-.358.132-.517l5.066-9.3z" fill="#fff" stroke="#4A4A4A" stroke-width=".781"/>
        <path d="M21.98 19.865c0-1.142-.803-1.605-1.792-1.034-.99.571-1.791 1.96-1.791 3.102v4.08l3.582-2.068v-4.08z" fill="#DE521F"/>
        <path d="M20.764 9.979 14.842 20.17a1.08 1.08 0 0 1-1.458.402L1.977 14.248a1.08 1.08 0 0 1-.3-1.642l7.969-9.423c.338-.4.915-.5 1.369-.236l9.359 5.452c.332.194.537.55.537.934v.103c0 .19-.05.378-.147.543z" fill="#3543BF" stroke="#4A4A4A" stroke-width=".781"/>
    </g>
    <defs>
        <clipPath id="zzgxj0i97a">
            <path fill="#fff" transform="matrix(-1 0 0 1 31.608 1.953)" d="M0 0h31.216v28.095H0z"/>
        </clipPath>
    </defs>
</svg>
