<svg width="32" height="32" viewBox="0 0 32 32" fill="none" xmlns="http://www.w3.org/2000/svg">
    <path d="m4.494 25.674 7.405 4.41 8.7-4.933c1.526-.993-.105-2.189-.74-2.492l.74-8.821L4.468 24.586a.643.643 0 0 0 .027 1.088z" fill="#CBCBCB"/>
    <path d="m20.143 26.107-3.908-1.805 2.29-1.22 1.618 3.025z" fill="#4A4A4A" stroke="#4A4A4A" stroke-width="2.313" stroke-linecap="round" stroke-linejoin="round"/>
    <path d="m18.567 23.217-.39.233.39-.233a.598.598 0 0 0-.82-.206l.233.39-.232-.39-5.88 3.505a.463.463 0 0 1-.494-.013l-3.782-2.52a.463.463 0 0 1-.206-.386V12.229a1.99 1.99 0 0 1 1.06-1.76l14.378-7.592a1.684 1.684 0 0 1 1.646.04l2.636 1.565c.511.304.824.854.824 1.449v9.745c0 1.02-.535 1.966-1.41 2.491l-3.544 2.13a.888.888 0 0 0-.363.422l-1.908 4.626a.463.463 0 0 1-.824.062l-1.314-2.19z" fill="#fff" stroke="#4A4A4A" stroke-width=".907"/>
    <path d="m13.776 15.553 12-6m-12 9 12-6m-12 9L21 18" stroke="#DE521F" stroke-linecap="round"/>
    <path d="M7.66 23.236V12.605c0-.906.502-1.737 1.303-2.16l13.45-7.104a2.138 2.138 0 0 1 2.09.052l2.375 1.41c.238.141.443.325.606.539l-15.717 8.293-.258 12.24c-.06-.024.139.51.083.472L8.07 24a.916.916 0 0 1-.408-.763z" fill="#3543BF"/>
    <path d="m27.464 5.024-15.866 8.368a.61.61 0 0 0-.326.54v12.455M7.66 11.399l4.135 2.44" stroke="#4A4A4A" stroke-width=".907"/>
</svg>
