<svg width="32" height="32" viewBox="0 0 32 32" fill="none" xmlns="http://www.w3.org/2000/svg">
    <g clip-path="url(#0u04n5wysa)">
        <path d="M5.937 15.615 9.27 17.47l.017-.007-3.351-1.847z" fill="#fff"/>
        <path d="m5.94 15.615 4.715 2.598-.005.026 1.333.744 6.534-4.85-6.044-3.365-6.533 4.847z" fill="#fff"/>
        <path d="m9.27 17.47 1.378.77.005-.027-1.365-.75-.017.006z" fill="#fff"/>
        <path d="m9.74 24.79-.215 1.567 6.042 3.36 1.133-8.139-6.049-3.338-.911 6.55z" fill="#DE521F"/>
        <path d="m11.983 18.983 4.715 2.595-1.133 8.139 5.849-6.894 5.834.183-1.097-6.86 4.735-8.027-6.528 2.659-2.674-4.735-.436.178-2.732 7.912-6.533 4.85z" fill="#3543BF"/>
        <path d="m15.41 2.269-2.937 8.5 6.044 3.365 2.934-8.502-6.041-3.363z" fill="#fff"/>
        <path d="m21.449 5.631-.203.59.437-.178-.234-.412zM21.684 6.043l2.674 4.734 6.528-2.658-6.043-3.36-3.159 1.284z" fill="#fff"/>
        <path d="m1.341 21.423 8.057 5.127 1.243-7.873-.829-.83-2.846-1.422a.86.86 0 0 0-.892.075l-4.78 3.506a.86.86 0 0 0 .047 1.417z" fill="#CBCBCB"/>
        <path d="M15.562 30.082a.366.366 0 0 0 .278-.13l5.737-6.759 5.658.178a.35.35 0 0 0 .285-.124.356.356 0 0 0 .086-.3l-1.078-6.73 4.67-7.913a.365.365 0 0 0-.453-.524l-6.232 2.537-2.749-4.866a.364.364 0 0 0-.663.058l-2.897 8.398-6.443 4.78a.362.362 0 0 0-.147.32.36.36 0 0 0 .188.295l4.496 2.473-1.099 7.89a.368.368 0 0 0 .36.417h.003zm5.849-7.625a.36.36 0 0 0-.278.13l-5.035 5.933.96-6.894a.364.364 0 0 0-.185-.37l-4.216-2.32 6.076-4.508a.353.353 0 0 0 .127-.176l2.668-7.736 2.508 4.44c.09.16.285.229.455.158l5.527-2.25-4.186 7.094a.368.368 0 0 0-.047.244l1.029 6.423-5.403-.168z" fill="#4A4A4A"/>
        <path d="M30.883 8.487a.367.367 0 0 0 .178-.685l-6.043-3.36a.365.365 0 0 0-.315-.02L21.11 5.884a.362.362 0 0 0-.2.476c.076.187.29.277.475.2l3.431-1.397 5.89 3.275a.36.36 0 0 0 .178.047v.002zM11.98 19.349a.367.367 0 0 0 .178-.685l-6.043-3.368a.367.367 0 0 0-.498.142.367.367 0 0 0 .142.497l6.043 3.367a.359.359 0 0 0 .178.047zM18.514 14.5a.367.367 0 0 0 .178-.685l-6.044-3.366a.367.367 0 0 0-.497.142.367.367 0 0 0 .142.497l6.043 3.365a.36.36 0 0 0 .178.046z" fill="#4A4A4A"/>
        <path d="M15.565 30.082c.129 0 .253-.068.32-.187a.367.367 0 0 0-.142-.497L9.92 26.159l1.097-7.895a.364.364 0 0 0-.186-.37l-4.216-2.325 6.076-4.506a.357.357 0 0 0 .126-.173l2.793-8.088 5.661 3.149a.365.365 0 1 0 .356-.639l-6.041-3.36a.364.364 0 0 0-.524.2l-2.9 8.392-6.443 4.779a.362.362 0 0 0-.147.319.361.361 0 0 0 .188.295l4.496 2.478-1.096 7.893a.37.37 0 0 0 .185.37l6.04 3.36a.36.36 0 0 0 .179.047v-.003z" fill="#4A4A4A"/>
    </g>
    <defs>
        <clipPath id="0u04n5wysa">
            <path fill="#fff" transform="matrix(-1 0 0 1 31.248 1.905)" d="M0 0h30.967v28.18H0z"/>
        </clipPath>
    </defs>
</svg>
