<svg width="28" height="28" viewBox="0 0 28 28" fill="none" xmlns="http://www.w3.org/2000/svg">
    <path d="M18.8 6.047a2.8 2.8 0 0 0-2.8-2.8H9a2.8 2.8 0 0 0-2.8 2.8v15.4a2.8 2.8 0 0 0 2.8 2.8h7a2.8 2.8 0 0 0 2.8-2.8v-4.064" stroke="#4A4A4A" stroke-linecap="round" stroke-linejoin="round"/>
    <path d="M6.2 19.113h12.6H6.2z" fill="#fff"/>
    <path d="M6.2 19.113h12.6M19.475 7.122a.78.78 0 0 0-1.348 0l-5.005 9.075a.745.745 0 0 0 .292 1.023c.116.065.248.1.382.1h10.01a.781.781 0 0 0 .663-.373.747.747 0 0 0 .011-.75l-5.005-9.075z" stroke="#4A4A4A" stroke-linecap="round" stroke-linejoin="round"/>
    <path d="M18.98 13.125V9.927v3.198z" fill="#4A4A4A"/>
    <path d="M18.98 13.125V9.927" stroke="#4A4A4A" stroke-linecap="round" stroke-linejoin="round"/>
    <path d="M18.98 15.268a.178.178 0 0 0 0-.355" fill="#fff"/>
    <path d="M18.98 15.268a.178.178 0 0 0 0-.355" stroke="#4A4A4A"/>
    <path d="M18.98 15.268a.178.178 0 0 1 0-.356" fill="#fff"/>
    <path d="M18.98 15.268a.178.178 0 0 1 0-.356" stroke="#4A4A4A"/>
</svg>
