<svg width="41" height="40" viewBox="0 0 41 40" fill="none" xmlns="http://www.w3.org/2000/svg">
    <ellipse cx="26.5" cy="35" rx="12" ry="3" fill="#E2E2E2"/>
    <path d="M30.88 27.132v1.54c0 1.09-.72 2.178-2.158 3.009-1.44.832-3.324 1.247-5.209 1.247-1.885 0-3.77-.415-5.207-1.247-1.437-.83-2.157-1.919-2.157-3.008v-1.689c.007.27.06.544.157.81.284.779.95 1.523 1.998 2.126 1.438.832 3.323 1.248 5.207 1.248 1.885 0 3.77-.416 5.21-1.248 1.047-.603 1.714-1.347 1.998-2.127.098-.266.15-.538.156-.809.002.05.002.099.002.148h.004z" fill="#3543BF"/>
    <path d="M30.88 26.918v.216l-.001-.148c.002-.022.002-.044.002-.068zM30.88 26.915l-.001.07c0-.098-.005-.193-.009-.29.007.072.01.148.01.22zM30.88 8.05v.217c0 .068-.004.135-.009.203.005-.138.009-.279.009-.42z" fill="#EFF1FF"/>
    <path d="M30.88 6.508s-.005 1.821-.008 1.962v.016c-.09 1.014-.806 2.014-2.148 2.788-1.44.829-3.324 1.245-5.209 1.245-1.885 0-3.77-.416-5.207-1.245-1.34-.774-2.057-1.774-2.146-2.788-.002-.006-.002-.01-.002-.016-.003-.139-.009-.28-.009-.42V6.51c0 .293.053.59.158.879.285.779.951 1.521 2 2.127 1.436.83 3.321 1.244 5.206 1.244 1.885 0 3.771-.414 5.209-1.244 1.047-.606 1.714-1.348 1.999-2.127a2.57 2.57 0 0 0 .158-.88v-.001z" fill="#3543BF"/>
    <path d="M30.88 6.51c0 .293-.054.59-.157.88-.285.778-.951 1.52-2 2.126-1.436.83-3.321 1.245-5.208 1.245-1.886 0-3.77-.415-5.207-1.245-1.047-.605-1.714-1.348-1.999-2.127a2.563 2.563 0 0 1-.158-.879c0-1.09.72-2.178 2.157-3.008 1.438-.83 3.322-1.244 5.207-1.244 1.885 0 3.771.414 5.209 1.244 1.437.83 2.157 1.918 2.157 3.006v.002z" fill="#EFF1FF"/>
    <path d="M30.87 26.698c.003.096.008.193.008.29-.002.271-.06.543-.156.808-.284.78-.951 1.524-1.999 2.127-1.439.832-3.324 1.248-5.209 1.248-1.884 0-3.77-.416-5.207-1.248-1.047-.603-1.714-1.348-1.998-2.127a2.391 2.391 0 0 1-.157-.809c0-.098.006-.193.01-.29.173-3.646 2.398-7.03 4.757-8.558a.65.65 0 0 0 0-1.087c-2.359-1.53-4.593-4.915-4.758-8.564.09 1.015.806 2.015 2.146 2.789 1.438.828 3.323 1.244 5.207 1.244 1.885 0 3.77-.416 5.209-1.244 1.34-.774 2.057-1.774 2.148-2.789-.167 3.649-2.4 7.034-4.76 8.564a.65.65 0 0 0 0 1.087c2.36 1.528 4.607 4.912 4.76 8.559h-.002zm-2.175-.529c-.002-.07-.003-.137-.007-.205-.172-3.482-2.997-6.623-5.096-6.623-.025-.002-.053-.002-.078-.002-.024 0-.05 0-.075.002-2.099 0-4.956 3.14-5.096 6.623-.004.069-.008.135-.006.205 0 .19.042.381.11.569.2.547.668 1.07 1.405 1.495 1.012.585 2.336.878 3.664.878 1.329 0 2.654-.293 3.665-.878.736-.425 1.203-.948 1.405-1.495.069-.186.105-.38.11-.569h-.001z" fill="#EFF1FF"/>
    <path d="M28.69 25.96a1.805 1.805 0 0 1-.104.774c-.202.548-.669 1.071-1.406 1.496-1.012.584-2.34.878-3.664.878-1.325 0-2.652-.294-3.665-.878-.735-.425-1.203-.948-1.405-1.495a1.66 1.66 0 0 1-.11-.569c0-.07.004-.137.006-.205.14-3.484 2.998-6.623 5.097-6.623.024-.002.05-.002.075-.002.025 0 .053 0 .077.002 2.1 0 4.925 3.141 5.097 6.623h.001z" fill="#F2A526"/>
    <path d="M16.161 26.693a5.38 5.38 0 0 0-.009.29v-.069c0-.075.002-.149.01-.223v.002zM16.151 8.05a8.224 8.224 0 0 0 0 .217V8.05z" fill="#EFF1FF"/>
    <path d="M30.873 8.739h-.01a.265.265 0 0 1-.253-.274c.005-.135.008-.272.008-.409a.263.263 0 1 1 .527 0c0 .146-.004.288-.01.432a.263.263 0 0 1-.264.253l.002-.002zM16.16 8.737a.264.264 0 0 1-.262-.253 11.574 11.574 0 0 1-.01-.432.263.263 0 1 1 .527 0c0 .137.002.274.009.41a.262.262 0 0 1-.253.273h-.01v.002zM16.154 27.25h-.004a.263.263 0 0 1-.26-.266v-.066c0-.096.004-.178.013-.252a.263.263 0 0 1 .525.044 4.914 4.914 0 0 0-.01.28.263.263 0 0 1-.262.26h-.002zM30.88 27.25a.263.263 0 0 1-.264-.26c0-.094-.005-.189-.008-.283a.262.262 0 0 1 .245-.272.261.261 0 0 1 .28.237c.008.08.012.164.012.247 0 .014 0 .024-.004.037v.028a.263.263 0 0 1-.26.267h-.003.002z" fill="#0F0F0F"/>
    <path d="M23.516 31.433c-2.013 0-3.908-.456-5.339-1.283-1.067-.616-1.799-1.399-2.114-2.266a2.933 2.933 0 0 1-.172-.89v-.078a.263.263 0 1 1 .526 0v.058c.01.256.058.501.14.73.273.749.924 1.437 1.884 1.99 1.35.782 3.153 1.212 5.075 1.212 1.922 0 3.724-.43 5.077-1.212.96-.553 1.611-1.241 1.883-1.99.088-.24.135-.483.14-.727v-.061a.263.263 0 1 1 .527 0c0 .03 0 .058-.002.084a2.822 2.822 0 0 1-.172.884c-.316.866-1.046 1.65-2.115 2.266-1.432.827-3.327 1.283-5.34 1.283h.002z" fill="#0F0F0F"/>
    <path d="M23.516 33.193c-2.013 0-3.909-.456-5.339-1.282-1.476-.852-2.288-2.001-2.288-3.235V26.92a.263.263 0 1 1 .526 0v1.756c0 1.04.72 2.025 2.025 2.78 1.352.781 3.154 1.213 5.076 1.213 1.921 0 3.724-.43 5.077-1.213 1.307-.755 2.027-1.74 2.027-2.78V26.92a.263.263 0 1 1 .526 0v1.756c0 1.234-.812 2.383-2.29 3.235-1.432.826-3.327 1.282-5.34 1.282z" fill="#0F0F0F"/>
    <path d="M16.152 27.397a.263.263 0 0 1-.263-.264v-.154a.26.26 0 0 1 .27-.256c.146.003.26.124.256.27v.14a.263.263 0 0 1-.263.264zM30.881 27.397a.263.263 0 0 1-.263-.263c0-.044 0-.09-.002-.136a.263.263 0 0 1 .25-.275.265.265 0 0 1 .275.249c.004.053.004.107.004.16a.263.263 0 0 1-.264.263v.002z" fill="#0F0F0F"/>
    <path d="M16.163 26.96h-.012a.263.263 0 0 1-.251-.275c.18-3.968 2.655-7.327 4.877-8.767a.377.377 0 0 0 .174-.322.375.375 0 0 0-.174-.32c-2.224-1.443-4.698-4.804-4.877-8.774a.263.263 0 1 1 .526-.024c.172 3.783 2.524 6.983 4.639 8.355a.91.91 0 0 1 0 1.527c-2.113 1.37-4.465 4.568-4.639 8.35a.264.264 0 0 1-.263.25zM30.87 26.96a.264.264 0 0 1-.263-.25c-.173-3.784-2.527-6.98-4.638-8.35a.907.907 0 0 1-.412-.764c0-.31.154-.596.412-.763 2.113-1.372 4.466-4.571 4.638-8.355a.263.263 0 1 1 .526.025c-.18 3.97-2.654 7.33-4.878 8.772a.378.378 0 0 0-.172.322.38.38 0 0 0 .172.322c2.222 1.441 4.696 4.799 4.879 8.768a.263.263 0 0 1-.251.276h-.012v-.002z" fill="#0F0F0F"/>
    <path d="M23.516 29.375c-1.43 0-2.778-.325-3.796-.913-.765-.44-1.291-1.005-1.521-1.634a1.972 1.972 0 0 1-.122-.84v-.035c.148-3.633 3.112-6.866 5.35-6.876.058-.004.117-.004.175 0 2.211.01 5.17 3.241 5.347 6.874l.007.226c-.007.22-.049.44-.126.65-.23.628-.756 1.193-1.521 1.634-1.018.588-2.366.912-3.796.912l.003.002zm-.017-9.772h-.058c-2 0-4.702 3.09-4.833 6.37v.038a1.408 1.408 0 0 0 .088.635c.185.509.631.98 1.29 1.358.938.544 2.193.843 3.532.843s2.594-.299 3.533-.843c.656-.379 1.102-.847 1.29-1.358.056-.156.087-.318.094-.477l-.007-.192c-.161-3.281-2.86-6.372-4.833-6.372H23.5l-.001-.002zM16.152 27.182a.274.274 0 0 1-.1-.02.266.266 0 0 1-.163-.243c0-.018 0-.034.005-.051a.414.414 0 0 1 .014-.05.38.38 0 0 1 .024-.045c.011-.014.022-.028.034-.04a.18.18 0 0 1 .04-.032c.014-.01.03-.017.046-.024a.23.23 0 0 1 .049-.016.267.267 0 0 1 .295.158c.005.015.01.031.014.049a.263.263 0 0 1-.258.314zM30.881 27.182a.263.263 0 0 1-.263-.263c0-.018 0-.034.005-.051a.23.23 0 0 1 .016-.05.228.228 0 0 1 .025-.045.228.228 0 0 1 .031-.04.27.27 0 0 1 .24-.072.267.267 0 0 1 .048.015c.016.008.032.015.046.025.014.009.028.02.04.032.01.012.023.026.032.04a.228.228 0 0 1 .038.095.261.261 0 0 1-.258.314zM23.516 11.027c-2.013 0-3.909-.454-5.339-1.279-1.069-.618-1.799-1.4-2.115-2.266a2.801 2.801 0 0 1-.173-.968c0-1.234.812-2.383 2.288-3.235C19.607 2.455 21.503 2 23.516 2c2.013 0 3.91.455 5.34 1.28 1.476.852 2.288 2 2.288 3.234 0 .323-.057.65-.173.968-.316.866-1.046 1.648-2.115 2.266-1.43.825-3.326 1.28-5.34 1.28zm0-8.502c-1.922 0-3.724.43-5.076 1.209-1.305.755-2.025 1.74-2.025 2.78 0 .265.048.53.142.788.272.747.923 1.435 1.883 1.99 1.352.779 3.154 1.209 5.076 1.209 1.921 0 3.725-.43 5.077-1.21.96-.554 1.61-1.242 1.883-1.99a2.31 2.31 0 0 0 .142-.789c0-1.037-.72-2.023-2.025-2.778-1.352-.78-3.154-1.21-5.077-1.21z" fill="#0F0F0F"/>
    <path d="M23.516 12.785c-2.011 0-3.907-.454-5.339-1.279-1.363-.788-2.172-1.848-2.276-2.985 0-.009-.002-.016-.003-.025a2.413 2.413 0 0 1-.01-.226V6.513a.263.263 0 1 1 .527 0s.002 1.873.007 1.93a.1.1 0 0 0 .004.024c.084.965.8 1.883 2.016 2.583 1.353.779 3.155 1.209 5.075 1.209 1.92 0 3.723-.43 5.078-1.21 1.214-.7 1.93-1.617 2.016-2.582v-.015c.003-.079.007-1.203.007-1.939a.263.263 0 1 1 .526 0c0 .67-.008 1.983-.008 1.983v.016c-.116 1.14-.911 2.204-2.278 2.992-1.434.825-3.33 1.28-5.34 1.28l-.002.001z" fill="#0F0F0F"/>
    <path d="M16.076 16.762c4.318 2.697 7.475 8.885 7.054 13.818-.199 2.304-1.141 3.928-2.53 4.73l-1.486.856c1.388-.8 2.33-2.423 2.527-4.728.425-4.933-2.734-11.123-7.05-13.818-2.28-1.427-4.429-1.594-6.01-.702l1.446-.835c1.585-.915 3.75-.76 6.051.679h-.002z" fill="#3543BF"/>
    <path d="M14.59 17.623c4.318 2.697 7.475 8.885 7.05 13.819-.196 2.304-1.139 3.927-2.527 4.727-1.583.917-3.75.76-6.053-.679-4.315-2.697-7.472-8.885-7.05-13.82.197-2.304 1.14-3.928 2.53-4.728l.04-.023c1.581-.89 3.73-.724 6.01.702v.002zm5.918 13.111c.362-4.219-2.337-9.508-6.028-11.814-3.689-2.308-6.974-.756-7.336 3.46-.36 4.22 2.338 9.51 6.027 11.817 3.69 2.306 6.974.756 7.335-3.463h.002z" fill="#EFF1FF"/>
    <path d="M13.146 25.433c-.14.105-.234.286-.255.533-.05.592.327 1.33.843 1.653.516.323.974.106 1.025-.484a1.727 1.727 0 0 0-.165-.837c-.151-.335-.393-.639-.678-.816-.3-.188-.58-.193-.772-.05h.002zm1.334-6.52c3.69 2.306 6.39 7.596 6.028 11.814-.362 4.218-3.645 5.769-7.336 3.463-3.689-2.306-6.388-7.597-6.026-11.816.361-4.217 3.647-5.769 7.335-3.46h-.001z" fill="#C2C7EC"/>
    <path d="M14.596 26.301c.124.276.187.57.165.837-.051.59-.51.807-1.025.484-.516-.322-.894-1.061-.843-1.653.021-.245.114-.428.255-.533.191-.142.472-.139.772.049.284.177.525.48.677.816h-.001z" fill="url(#jgb16rzrda)"/>
    <path d="M16.907 37.002c-1.25 0-2.62-.434-3.986-1.287-4.384-2.74-7.602-9.05-7.173-14.065.197-2.306 1.143-4.058 2.66-4.934a.164.164 0 0 1 .024-.012c.005-.003.012-.009.02-.012 1.72-.97 4.01-.71 6.278.709 4.386 2.74 7.604 9.05 7.173 14.064-.197 2.306-1.14 4.058-2.659 4.933-.698.404-1.492.602-2.34.602l.003.002zM8.688 17.16l-.016.011c-1.363.788-2.215 2.394-2.397 4.523-.414 4.838 2.694 10.927 6.927 13.574 2.121 1.325 4.227 1.57 5.782.674 1.364-.788 2.215-2.394 2.398-4.523.415-4.838-2.693-10.928-6.927-13.572-2.1-1.315-4.194-1.57-5.742-.697l-.021.01h-.004z" fill="#0F0F0F"/>
    <path d="M16.449 35.526c-1.069 0-2.236-.373-3.417-1.112-3.76-2.35-6.518-7.76-6.15-12.062.18-2.095 1.066-3.643 2.494-4.356 1.482-.739 3.344-.493 5.244.695 3.76 2.35 6.52 7.759 6.151 12.06-.179 2.096-1.065 3.643-2.494 4.356-.561.28-1.175.42-1.828.42zm-5.246-17.421c-.57 0-1.107.12-1.591.363-1.259.629-2.041 2.024-2.205 3.93-.352 4.124 2.298 9.313 5.904 11.57 1.74 1.086 3.419 1.323 4.73.669 1.258-.629 2.04-2.026 2.204-3.93.352-4.124-2.296-9.313-5.906-11.568-1.095-.685-2.165-1.032-3.136-1.032v-.002z" fill="#0F0F0F"/>
    <path d="M14.197 28.032c-.193 0-.4-.063-.6-.189-.6-.375-1.025-1.21-.965-1.899.026-.312.154-.569.36-.721.287-.216.687-.202 1.068.037.316.198.6.537.777.93.15.328.215.663.188.967-.031.37-.203.658-.473.793a.785.785 0 0 1-.355.08v.002zm-.735-2.435a.253.253 0 0 0-.158.049c-.083.061-.135.184-.15.344-.042.493.288 1.137.72 1.407.17.107.332.137.439.085.103-.051.168-.183.184-.367a1.49 1.49 0 0 0-.142-.706c-.137-.302-.346-.556-.578-.7a.613.613 0 0 0-.317-.11l.002-.002z" fill="#0F0F0F"/>
    <path d="M13.148 25.698a.262.262 0 0 1-.225-.127l-2.06-3.39a.263.263 0 1 1 .449-.274l2.06 3.39a.262.262 0 0 1-.224.4zM14.597 26.565a.262.262 0 0 1-.08-.512l3.791-1.247a.263.263 0 1 1 .163.5l-3.792 1.246a.274.274 0 0 1-.082.015v-.002z" fill="#0F0F0F"/>
    <path d="M19.114 36.43a.264.264 0 0 1-.132-.492l1.487-.856c1.362-.788 2.214-2.396 2.397-4.524.414-4.839-2.696-10.927-6.93-13.573-2.12-1.327-4.226-1.572-5.78-.676l-1.486.858a.264.264 0 0 1-.263-.456l1.486-.858c1.729-.999 4.033-.748 6.323.684 4.386 2.74 7.605 9.049 7.175 14.065-.199 2.305-1.143 4.059-2.659 4.934l-1.486.857a.256.256 0 0 1-.132.035v.002z" fill="#0F0F0F"/>
    <defs>
        <linearGradient id="jgb16rzrda" x1="12.889" y1="27.772" x2="15.244" y2="25.958" gradientUnits="userSpaceOnUse">
            <stop stop-color="#43E1A8"/>
            <stop offset="1" stop-color="#219393"/>
        </linearGradient>
    </defs>
</svg>
