<svg width="28" height="28" viewBox="0 0 28 28" fill="none" xmlns="http://www.w3.org/2000/svg">
    <path d="M24.937 16.863a.488.488 0 0 0-.402-.494 2.967 2.967 0 0 1 0-5.881.487.487 0 0 0 .402-.495V5.517a.494.494 0 0 0-.494-.494H2.683a.495.495 0 0 0-.495.494v4.487a.495.495 0 0 0 .424.489 2.967 2.967 0 0 1 0 5.875.495.495 0 0 0-.425.489v4.486a.495.495 0 0 0 .495.495h21.76a.495.495 0 0 0 .495-.495v-4.48z" stroke="#4A4A4A" stroke-linecap="round" stroke-linejoin="round"/>
    <path d="M8.616 8.979h7.913s.494 0 .494.495v7.913s0 .494-.494.494H8.616s-.495 0-.495-.494V9.474s0-.495.495-.495zM11.091 13.65h2.968M19.746 8.237a.247.247 0 0 1 .247.248" stroke="#4A4A4A" stroke-linecap="round" stroke-linejoin="round"/>
    <path d="M19.5 8.485a.248.248 0 0 1 .247-.248" stroke="#4A4A4A" stroke-linecap="round" stroke-linejoin="round"/>
    <path d="M19.747 8.73a.247.247 0 0 1-.247-.247" stroke="#4A4A4A" stroke-linecap="round" stroke-linejoin="round"/>
    <path d="M19.993 8.483a.248.248 0 0 1-.247.248M19.746 18.127a.247.247 0 0 1 .247.248" stroke="#4A4A4A" stroke-linecap="round" stroke-linejoin="round"/>
    <path d="M19.5 18.375a.248.248 0 0 1 .247-.248M19.747 18.624a.248.248 0 0 1-.247-.247" stroke="#4A4A4A" stroke-linecap="round" stroke-linejoin="round"/>
    <path d="M19.993 18.377a.248.248 0 0 1-.247.247M19.746 13.183a.248.248 0 0 1 .247.247" stroke="#4A4A4A" stroke-linecap="round" stroke-linejoin="round"/>
    <path d="M19.5 13.43a.248.248 0 0 1 .247-.247" stroke="#4A4A4A" stroke-linecap="round" stroke-linejoin="round"/>
    <path d="M19.747 13.677a.248.248 0 0 1-.247-.248" stroke="#4A4A4A" stroke-linecap="round" stroke-linejoin="round"/>
    <path d="M19.993 13.43a.248.248 0 0 1-.247.247" stroke="#4A4A4A" stroke-linecap="round" stroke-linejoin="round"/>
</svg>
