<svg width="41" height="40" viewBox="0 0 41 40" fill="none" xmlns="http://www.w3.org/2000/svg">
    <path d="M27.665 37.668 5.08 24.783c-1.07-.61-.99-2.177.136-2.675l8.43-3.73a2 2 0 0 1 1.69.033l23.434 11.504c1.408.691 1.509 2.66.179 3.491l-6.67 4.17a4.5 4.5 0 0 1-4.615.092z" fill="#E2E2E2"/>
    <path d="m35.894 31.08-5.277 3.044c-.097-8.829-6.306-19.52-13.928-23.918-3.809-2.2-7.266-2.422-9.784-1.003L12.12 6.19c2.525-1.457 6.006-1.249 9.845.968 7.623 4.4 13.833 15.09 13.93 23.92z" fill="#3543BF"/>
    <path d="M13.69 15.005c-3.328-.527-5.728 1.743-5.801 6l-5.13-2.96c.049-4.328 1.602-7.372 4.086-8.805l.061-.034C9.424 7.79 12.881 8.01 16.69 10.21c7.62 4.399 13.83 15.09 13.928 23.918l-5.129-2.96c-.036-2.102-.617-4.367-1.583-6.523a21.714 21.714 0 0 0-2.243-3.863c-1.41-1.935-3.116-3.577-4.951-4.641a.064.064 0 0 0-.02-.012c-1.053-.608-2.063-.976-3-1.123h-.003z" fill="#EFF1FF"/>
    <path d="M23.906 24.643c-.08.493-.304.844-.625 1.028l-5 2.886c.405-.233.653-.735.653-1.448 0-1.293-.822-2.84-1.897-3.65l.01-.014 4.614-2.664a21.651 21.651 0 0 1 2.243 3.864l.002-.002zM21.662 20.778l-4.613 2.664-3.045-5.738 2.707-1.567c1.835 1.064 3.542 2.708 4.951 4.64z" fill="#F2A526"/>
    <path d="M18.934 27.111c0 .713-.25 1.215-.654 1.448-.404.234-.965.202-1.582-.156-1.237-.713-2.24-2.448-2.24-3.876 0-.48.114-.866.312-1.136.389-.533 1.105-.629 1.928-.156.116.066.228.143.339.226 1.075.812 1.897 2.358 1.897 3.65z" fill="url(#uw1uancq6a)"/>
    <path d="m14.004 17.7 3.045 5.739-.01.013a3.25 3.25 0 0 0-.34-.227c-.822-.472-1.539-.377-1.928.157l-.02-.015-.747-5.668v.002z" fill="url(#v5li534gib)"/>
    <path d="M13.69 15c-.319.835-.503 1.826-.523 2.955L7.89 21.001c.075-4.257 2.473-6.527 5.8-6z" fill="#3543BF"/>
    <path d="M30.616 34.382a.262.262 0 0 1-.128-.034l-5.13-2.96a.255.255 0 0 1-.127-.217c-.034-2.006-.575-4.227-1.56-6.422a21.251 21.251 0 0 0-2.218-3.817c-1.443-1.979-3.13-3.56-4.875-4.571-.006-.004-.013-.009-.02-.012-1.01-.58-1.984-.945-2.912-1.09-1.419-.222-2.672.082-3.624.882-1.192 1.003-1.844 2.686-1.881 4.87 0 .091-.052.175-.13.22a.26.26 0 0 1-.254 0l-5.129-2.962a.254.254 0 0 1-.128-.225c.048-4.278 1.544-7.482 4.213-9.024a.317.317 0 0 1 .034-.017.428.428 0 0 1 .029-.02c2.709-1.526 6.273-1.17 10.036 1.004 7.653 4.417 13.959 15.245 14.056 24.136a.256.256 0 0 1-.256.258l.004.001zm-4.877-3.367 4.61 2.661c-.298-8.642-6.404-18.985-13.79-23.248-3.6-2.079-6.984-2.435-9.529-1a.578.578 0 0 1-.032.015l-.028.018c-2.476 1.43-3.876 4.423-3.953 8.438l4.63 2.673c.117-2.13.821-3.792 2.05-4.824 1.067-.897 2.462-1.241 4.033-.996.993.155 2.031.544 3.087 1.153.003 0 .017.009.03.019 1.804 1.047 3.54 2.674 5.022 4.707a21.741 21.741 0 0 1 2.27 3.91c.991 2.205 1.544 4.441 1.602 6.476l-.002-.002zM16.563 16.35l.012.006c-.003-.001-.007-.005-.012-.006z" fill="#0F0F0F"/>
    <path d="M30.616 34.379a.256.256 0 0 1-.128-.478l5.148-2.97c-.164-8.703-6.328-19.239-13.799-23.55-3.631-2.097-7.036-2.441-9.589-.97L6.973 9.459a.256.256 0 0 1-.256-.443l5.275-3.047c2.717-1.567 6.306-1.223 10.101.97 7.655 4.417 13.96 15.244 14.058 24.137a.261.261 0 0 1-.128.225l-5.277 3.045a.252.252 0 0 1-.128.034h-.002z" fill="#0F0F0F"/>
    <path d="M7.888 21.258a.256.256 0 0 1-.128-.477l5.152-2.975c.033-1.078.214-2.052.538-2.896a.256.256 0 1 1 .477.184c-.317.826-.488 1.791-.506 2.867 0 .09-.05.173-.128.217l-5.277 3.046a.248.248 0 0 1-.128.034zM17.697 28.966c-.351 0-.735-.114-1.127-.343-1.305-.754-2.368-2.59-2.368-4.097 0-.518.125-.964.362-1.288.486-.663 1.352-.75 2.261-.227.12.069.24.149.365.244 1.159.875 2 2.496 2 3.855 0 .785-.279 1.378-.782 1.67a1.393 1.393 0 0 1-.711.186zm-1.997-5.78c-.3 0-.551.119-.723.356-.173.235-.263.576-.263.986 0 1.342.947 2.981 2.111 3.653.515.299.986.353 1.327.157.34-.196.526-.631.526-1.226 0-1.192-.773-2.675-1.796-3.447a3.1 3.1 0 0 0-.312-.208c-.314-.181-.61-.27-.87-.27v-.002z" fill="#0F0F0F"/>
    <path d="M18.281 28.813a.256.256 0 0 1-.128-.478l5.001-2.886c.26-.15.433-.443.498-.848a.256.256 0 0 1 .505.082c-.092.561-.351.98-.747 1.21l-5 2.886a.248.248 0 0 1-.129.034zM17.048 23.695a.255.255 0 0 1-.225-.137l-2.38-4.484.562 4.261a.255.255 0 1 1-.507.067l-.747-5.668a.256.256 0 0 1 .48-.152l2.92 5.504 4.383-2.533a.256.256 0 0 1 .256.444l-4.614 2.664a.262.262 0 0 1-.128.034z" fill="#0F0F0F"/>
    <path d="M14.004 17.959a.256.256 0 0 1-.128-.478l2.707-1.567a.255.255 0 1 1 .255.443l-2.707 1.568a.253.253 0 0 1-.127.034z" fill="#0F0F0F"/>
    <defs>
        <linearGradient id="uw1uancq6a" x1="14.458" y1="28.709" x2="20.053" y2="24.375" gradientUnits="userSpaceOnUse">
            <stop stop-color="#43E1A8"/>
            <stop offset="1" stop-color="#219393"/>
        </linearGradient>
        <linearGradient id="v5li534gib" x1="14.004" y1="23.452" x2="18.761" y2="20.935" gradientUnits="userSpaceOnUse">
            <stop stop-color="#43E1A8"/>
            <stop offset="1" stop-color="#219393"/>
        </linearGradient>
    </defs>
</svg>
