<svg width="41" height="40" viewBox="0 0 41 40" fill="none" xmlns="http://www.w3.org/2000/svg">
<path d="M29.6789 38.4493L8.93577 26.4822C7.73879 25.7916 8.03323 23.987 9.38765 23.7127L17.1039 22.1502C17.5818 22.0534 18.0785 22.1345 18.5007 22.3782L38.0587 33.668C38.712 34.0451 38.7284 34.9822 38.0887 35.3821L33.2829 38.3857C32.1857 39.0715 30.7996 39.0959 29.6789 38.4493Z" fill="#E2E2E2" fill-opacity="0.933333"/>
<path d="M34.2645 34.0882L32.358 35.2768C32.1512 35.4057 31.8816 35.3668 31.7197 35.1847L28 31L27.5 24.4414C29 22.608 31.8 19.7414 31 22.9414C30.2326 26.0109 32.7777 29.0191 34.3104 30.289C34.4292 30.3874 34.5 30.5316 34.5 30.6859V33.6639C34.5 33.8365 34.411 33.9969 34.2645 34.0882Z" fill="url(#paint0_linear_1227_34777)" stroke="#0F0F0F" stroke-width="0.5"/>
<path d="M34.2572 21.6457L32.3029 22.8183C32.1696 22.8982 32 22.8022 32 22.6468V19.5L5.65915 4.68948C5.59029 4.65077 5.5914 4.55125 5.6611 4.51408L8.25936 3.12834C8.40936 3.04834 8.58972 3.05004 8.73819 3.13284L34.2435 17.357C34.4019 17.4453 34.5 17.6124 34.5 17.7937V21.2169C34.5 21.3925 34.4079 21.5553 34.2572 21.6457Z" fill="#3543BF" stroke="#0F0F0F" stroke-width="0.5"/>
<path d="M32.25 22.691V19.7921C32.25 19.7019 32.2014 19.6187 32.1228 19.5743L5.62275 4.63798C5.4561 4.54405 5.25 4.66447 5.25 4.85577V7.7058C5.25 7.79531 5.29856 7.88277 5.38381 7.93518C6.18008 8.42462 7.2381 9.27654 8.05164 10.3988C8.86606 11.5222 9.44761 12.9347 9.24807 14.531C9.09006 15.7951 8.66664 16.5569 8.0861 16.9456C7.50522 17.3345 6.83128 17.307 6.26929 17.1377C6.15071 17.102 6.01325 17.1227 5.90682 17.1872C5.80266 17.2503 5.75 17.3396 5.75 17.4343V20.2105C5.75 20.3 5.79788 20.3827 5.87553 20.4273L31.8755 35.3532C32.0422 35.4489 32.25 35.3286 32.25 35.1364V32.3465C32.25 32.245 32.1861 32.1433 32.0757 32.0913C30.6256 31.4094 28.25 29.4625 28.25 26C28.25 24.4491 28.7322 23.5439 29.4765 23.1082C30.2018 22.6835 31.0961 22.7552 31.8178 22.9657C32.0458 23.0323 32.25 22.8648 32.25 22.691Z" fill="#EFF1FF" stroke="#0F0F0F" stroke-width="0.5"/>
<path d="M26.2966 21.7736L16.0293 24.6014L19.7046 20.1416L16.7236 18.4208L19.5255 14.207L23.7065 16.9064L21.4322 18.9634L26.2966 21.7736Z" fill="#F2A526"/>
<path d="M16.0294 24.8026C15.9611 24.8026 15.8955 24.7685 15.8572 24.7097C15.808 24.6345 15.8149 24.5361 15.8709 24.4678L19.3917 20.1952L16.6199 18.5947C16.5707 18.566 16.5352 18.5195 16.5229 18.4635C16.5105 18.4088 16.5201 18.3501 16.5515 18.3036L19.3535 14.0911C19.415 13.9982 19.5407 13.9722 19.635 14.0324L23.816 16.7304C23.8693 16.7646 23.9035 16.822 23.909 16.8862C23.9144 16.9491 23.8898 17.012 23.842 17.0543L21.7768 18.9227L26.3979 21.5921C26.469 21.6331 26.5086 21.7137 26.499 21.7957C26.4881 21.8777 26.4293 21.9447 26.3501 21.9679L16.0827 24.7958C16.065 24.8013 16.0458 24.8026 16.0281 24.8026H16.0294ZM17.0149 18.3487L19.8072 19.9615C19.8592 19.9915 19.8961 20.0435 19.907 20.1023C19.918 20.161 19.9015 20.2225 19.8633 20.269L16.5994 24.2286L25.7692 21.7028L21.3285 19.1373C21.2711 19.1045 21.2342 19.0471 21.2273 18.9815C21.2205 18.9159 21.2451 18.8517 21.2943 18.8079L23.3705 16.93L19.5844 14.4861L17.0149 18.3487Z" fill="#0F0F0F"/>
<path d="M13.5 9V24.9" stroke="#0F0F0F" stroke-width="0.5" stroke-dasharray="1 1"/>
<defs>
<linearGradient id="paint0_linear_1227_34777" x1="34.5" y1="35.5" x2="23.3" y2="29.9" gradientUnits="userSpaceOnUse">
<stop stop-color="#43E1A8"/>
<stop offset="1" stop-color="#219393"/>
</linearGradient>
</defs>
</svg>
