<svg width="27" height="24" viewBox="0 0 27 24" fill="none" xmlns="http://www.w3.org/2000/svg">
    <g filter="url(#o7192ax81a)">
        <path fill-rule="evenodd" clip-rule="evenodd" d="M23 6a1 1 0 1 1 0 2H4a1 1 0 0 1 0-2h19zm0 5a1 1 0 1 1 0 2H4a1 1 0 1 1 0-2h19zm-4 6a1 1 0 0 0-1-1H4a1 1 0 1 0 0 2h14a1 1 0 0 0 1-1z" fill="#fff"/>
    </g>
    <defs>
        <filter id="o7192ax81a" x="0" y="4" width="27" height="18" filterUnits="userSpaceOnUse" color-interpolation-filters="sRGB">
            <feFlood flood-opacity="0" result="BackgroundImageFix"/>
            <feColorMatrix in="SourceAlpha" values="0 0 0 0 0 0 0 0 0 0 0 0 0 0 0 0 0 0 127 0" result="hardAlpha"/>
            <feOffset dy="1"/>
            <feGaussianBlur stdDeviation="1.5"/>
            <feColorMatrix values="0 0 0 0 0 0 0 0 0 0 0 0 0 0 0 0 0 0 0.5 0"/>
            <feBlend in2="BackgroundImageFix" result="effect1_dropShadow_110_13787"/>
            <feBlend in="SourceGraphic" in2="effect1_dropShadow_110_13787" result="shape"/>
        </filter>
    </defs>
</svg>
