<svg width="28" height="28" viewBox="0 0 28 28" fill="none" xmlns="http://www.w3.org/2000/svg">
    <path d="M21.63 2.55 3.27 6.484c-.245.052-.228.406.02.436l19.009 2.263V3.091a.553.553 0 0 0-.67-.541z" fill="#D78411" stroke="#D78411" stroke-width="1.5"/>
    <path d="M24.718 20.288a.477.477 0 0 0-.394-.484 2.904 2.904 0 0 1 0-5.756.475.475 0 0 0 .394-.484V10.15a.484.484 0 0 0-.484-.484L2.936 6.763a.484.484 0 0 0-.484.484v4.391a.484.484 0 0 0 .416.478 2.904 2.904 0 0 1 0 5.75.485.485 0 0 0-.416.48v3.422a.484.484 0 0 0 .484.485l21.298 2.904a.484.484 0 0 0 .484-.484v-4.385z" fill="#FCEDD4" stroke="#D78411" stroke-linecap="round" stroke-linejoin="round"/>
    <path d="m9.23 11.12 7.261.967s.484 0 .484.484v7.745s0 .484-.484.484l-7.26-.968s-.484 0-.484-.484v-7.745s0-.484.484-.484z" fill="#FCEDD4" stroke="#D78411" stroke-linecap="round" stroke-linejoin="round"/>
    <path d="m11.649 15.959 2.42.387z" fill="#FCEDD4"/>
    <path d="m11.649 15.959 2.42.387" stroke="#D78411" stroke-linecap="round" stroke-linejoin="round"/>
    <path d="M19.634 12.662a.242.242 0 0 1 .242.242" fill="#FCEDD4"/>
    <path d="M19.634 12.662a.242.242 0 0 1 .242.242" stroke="#D78411" stroke-linecap="round" stroke-linejoin="round"/>
    <path d="M19.394 12.904a.242.242 0 0 1 .242-.242" fill="#FCEDD4"/>
    <path d="M19.394 12.904a.242.242 0 0 1 .242-.242" stroke="#D78411" stroke-linecap="round" stroke-linejoin="round"/>
    <path d="M19.636 13.145a.242.242 0 0 1-.242-.242" fill="#FCEDD4"/>
    <path d="M19.636 13.145a.242.242 0 0 1-.242-.242" stroke="#D78411" stroke-linecap="round" stroke-linejoin="round"/>
    <path d="M19.877 12.903a.242.242 0 0 1-.242.242" fill="#FCEDD4"/>
    <path d="M19.877 12.903a.242.242 0 0 1-.242.242" stroke="#D78411" stroke-linecap="round" stroke-linejoin="round"/>
    <path d="M19.634 21.375a.242.242 0 0 1 .242.242" fill="#FCEDD4"/>
    <path d="M19.634 21.375a.242.242 0 0 1 .242.242" stroke="#D78411" stroke-linecap="round" stroke-linejoin="round"/>
    <path d="M19.394 21.616a.242.242 0 0 1 .242-.242" fill="#FCEDD4"/>
    <path d="M19.394 21.616a.242.242 0 0 1 .242-.242" stroke="#D78411" stroke-linecap="round" stroke-linejoin="round"/>
    <path d="M19.636 21.861a.242.242 0 0 1-.242-.242" fill="#FCEDD4"/>
    <path d="M19.636 21.861a.242.242 0 0 1-.242-.242" stroke="#D78411" stroke-linecap="round" stroke-linejoin="round"/>
    <path d="M19.877 21.62a.242.242 0 0 1-.242.241" fill="#FCEDD4"/>
    <path d="M19.877 21.62a.242.242 0 0 1-.242.241" stroke="#D78411" stroke-linecap="round" stroke-linejoin="round"/>
    <path d="M19.634 17.502a.242.242 0 0 1 .242.242" fill="#FCEDD4"/>
    <path d="M19.634 17.502a.242.242 0 0 1 .242.242" stroke="#D78411" stroke-linecap="round" stroke-linejoin="round"/>
    <path d="M19.394 17.744a.242.242 0 0 1 .242-.242" fill="#FCEDD4"/>
    <path d="M19.394 17.744a.242.242 0 0 1 .242-.242" stroke="#D78411" stroke-linecap="round" stroke-linejoin="round"/>
    <path d="M19.636 17.985a.242.242 0 0 1-.242-.242" fill="#FCEDD4"/>
    <path d="M19.636 17.985a.242.242 0 0 1-.242-.242" stroke="#D78411" stroke-linecap="round" stroke-linejoin="round"/>
    <path d="M19.877 17.743a.242.242 0 0 1-.242.242" fill="#FCEDD4"/>
    <path d="M19.877 17.743a.242.242 0 0 1-.242.242" stroke="#D78411" stroke-linecap="round" stroke-linejoin="round"/>
</svg>
