<svg width="28" height="28" viewBox="0 0 28 28" fill="none" xmlns="http://www.w3.org/2000/svg">
    <path d="M20.616 7.931V2.624A1.558 1.558 0 0 0 18.64 1.12L5.625 3.72a1.662 1.662 0 0 0-1.142 1.587" fill="#D78411"/>
    <path d="M20.616 7.931V2.624A1.558 1.558 0 0 0 18.64 1.12L5.625 3.72a1.662 1.662 0 0 0-1.142 1.587" stroke="#D78411" stroke-linecap="round" stroke-linejoin="round"/>
    <path d="M4.484 21.82c0 .394.165.773.457 1.052.292.28.688.436 1.101.436l16.132 2.625c.413 0 .81-.157 1.102-.436.292-.28.456-.658.456-1.053V9.414c0-.394-.164-.773-.456-1.052a1.595 1.595 0 0 0-1.102-.436l-17.69-2.62V21.82z" fill="#FCEDD4" stroke="#D78411" stroke-linecap="round" stroke-linejoin="round"/>
    <path d="m14.658 9.634 1.296 2.552h2.21a.604.604 0 0 1 .435 1.038l-2.029 1.997 1.124 2.58a.611.611 0 0 1-.871.765l-2.716-1.529-2.716 1.527a.613.613 0 0 1-.872-.764l1.124-2.581-2.029-1.998a.605.605 0 0 1 .436-1.038h2.209l1.297-2.55a.624.624 0 0 1 1.102 0zM10.215 20.856l7.79 1.281" stroke="#D78411" stroke-linecap="round" stroke-linejoin="round"/>
</svg>
