<svg width="28" height="28" viewBox="0 0 28 28" fill="none" xmlns="http://www.w3.org/2000/svg">
    <path d="M24.538 23.079V7.067a.545.545 0 0 0-.877-.433L6.616 19.642a.545.545 0 0 0-.214.434v3.003c0 .3.244.545.545.545h17.045a.545.545 0 0 0 .546-.545z" fill="#D78411" stroke="#D78411"/>
    <path d="M4.892 5.84a1.09 1.09 0 0 1 1.071-.881h17.631c.686 0 1.202.626 1.07 1.3l-2.437 12.473a1.09 1.09 0 0 1-1.07.882H3.526a1.09 1.09 0 0 1-1.07-1.3L4.891 5.841z" fill="#FCEDD4" stroke="#D78411"/>
    <path d="M16.53 10.312c.311.002.565-.218.566-.489.002-.271-.25-.493-.563-.494l-4.959-.02c-.312-.001-.566.218-.567.49 0 .27.251.492.563.493l1.42.006c.313.003.618.087.877.241.258.154.458.372.575.625l-2.875-.012c-.312-.001-.566.218-.567.49-.001.27.25.492.563.493l2.875.012c-.23.552-.797.857-1.46.854l-1.419-.006c-.233.005-.44.13-.526.32a.46.46 0 0 0 .135.546l3.535 2.933a.612.612 0 0 0 .404.141.607.607 0 0 0 .4-.15.457.457 0 0 0 .156-.355.466.466 0 0 0-.181-.345L12.976 14a2.977 2.977 0 0 0 1.691-.522c.48-.336.814-.804.947-1.326l.908.003c.312.002.566-.217.567-.489.001-.271-.251-.492-.563-.494l-.908-.003a2.167 2.167 0 0 0-.438-.862l1.35.005z" fill="#D78411" stroke="#D78411" stroke-width=".218"/>
    <path d="M10.027 7.224V2.625M19.954 7.224V2.625" stroke="#D78411" stroke-linecap="round" stroke-linejoin="round"/>
</svg>
