<svg width="41" height="40" viewBox="0 0 41 40" fill="none" xmlns="http://www.w3.org/2000/svg">
    <path d="M26.674 38.935 7.902 27.985c-1.191-.695-.893-2.493.458-2.767l7.737-1.567a2 2 0 0 1 1.407.235l17.57 10.28a1 1 0 0 1 .024 1.71l-4.805 3.004a3.5 3.5 0 0 1-3.619.055z" fill="#E2E2E2"/>
    <path d="M32.001 15.088v17.906c0 .662-.22 1.128-.569 1.329l-2.303 1.329c.35-.2.567-.667.567-1.33V16.418c0-1.21-.735-2.616-1.644-3.141L8.1 1.756c-.412-.237-.787-.252-1.076-.085L9.328.34c.288-.166.664-.15 1.075.086l19.954 11.52c.909.525 1.644 1.93 1.644 3.141z" fill="#3543BF"/>
    <path d="M29.698 19.355v14.973c0 .662-.22 1.128-.569 1.33-.288.166-.664.152-1.075-.087L8.1 24.053c-.908-.525-1.644-1.93-1.644-3.141V5.938l23.242 13.419v-.002zm-8.077 7.07c0-.569-.346-1.228-.771-1.476l-7.835-4.523a.61.61 0 0 0-.307-.092c-.274 0-.466.254-.466.676 0 .569.346 1.228.773 1.476l7.835 4.523a.606.606 0 0 0 .307.092c.274 0 .464-.254.464-.676z" fill="#EFF1FF"/>
    <path d="m13.537 17.581-1.8-1.04-.343.761-.92-.531 1.729-3.478.885.511 1.733 5.476-.942-.544-.342-1.158v.003zm-.282-.95-.614-2.068-.614 1.359 1.23.709h-.002zM15.226 15.04l1.76 1.015c.421.243.794.55 1.116.922.323.373.574.778.753 1.219.179.44.268.883.268 1.33 0 .448-.089.79-.268 1.021-.18.234-.43.35-.753.35-.322 0-.695-.124-1.116-.367l-1.76-1.016V15.04zm1.715 4.614c.388.225.697.278.927.163.231-.117.346-.389.346-.814 0-.425-.115-.83-.346-1.214a2.557 2.557 0 0 0-.927-.91l-.82-.473v2.775l.82.473zM20.185 22.312a4.536 4.536 0 0 1-.689-.771l.304-.605c.167.237.363.463.592.68.23.22.458.394.687.524.254.147.443.212.564.195.122-.017.183-.098.183-.243a.604.604 0 0 0-.108-.327 1.756 1.756 0 0 0-.277-.329 11.4 11.4 0 0 0-.457-.405 11.09 11.09 0 0 1-.724-.662 2.744 2.744 0 0 1-.485-.67 1.757 1.757 0 0 1-.203-.832c0-.26.061-.46.183-.602.121-.14.305-.202.551-.184.247.02.546.13.9.334.247.143.489.316.724.52.237.204.443.423.62.653l-.277.627c-.358-.441-.717-.765-1.074-.973-.25-.145-.436-.206-.556-.18-.12.024-.18.113-.18.266 0 .153.068.307.206.461.14.154.35.35.635.586.294.25.537.472.724.662.189.19.35.412.485.664.134.252.202.528.202.826 0 .255-.062.453-.185.594-.123.14-.309.2-.556.18-.248-.018-.549-.13-.902-.335a5.057 5.057 0 0 1-.889-.657l.002.003z" fill="#0F0F0F"/>
    <path d="M29.698 16.416v2.932L6.456 5.93V2.998c0-.662.22-1.128.569-1.33.288-.164.664-.15 1.075.087l19.954 11.52c.908.523 1.644 1.93 1.644 3.14zM14.302 7.914c0-.354-.248-.784-.555-.96-.307-.177-.554-.034-.554.32 0 .353.247.783.554.961.307.178.555.033.555-.32zm-2.272-1.31c0-.356-.248-.784-.555-.962-.307-.177-.554-.032-.554.321 0 .354.247.784.554.96.307.178.555.034.555-.32zM9.758 5.292c0-.354-.248-.784-.555-.96-.305-.178-.553-.034-.553.32 0 .353.248.783.553.96.307.178.555.033.555-.32z" fill="url(#xt9j4o90la)"/>
    <path d="M20.85 24.947c.425.247.77.907.77 1.476 0 .422-.191.676-.464.676a.623.623 0 0 1-.307-.092l-7.835-4.523c-.427-.246-.773-.907-.773-1.476 0-.422.192-.676.466-.676.094 0 .198.03.307.092l7.835 4.523z" fill="#F2A526"/>
    <path d="M13.747 6.955c.307.177.555.607.555.96 0 .354-.248.497-.555.321-.307-.177-.555-.606-.555-.961s.248-.497.555-.32zM11.475 5.646c.307.177.554.606.554.961s-.247.497-.554.32c-.307-.177-.555-.607-.555-.96 0-.354.248-.498.555-.321zM9.204 4.33c.307.177.554.607.554.96 0 .354-.247.497-.554.321-.306-.177-.554-.606-.554-.961s.248-.497.554-.32z" fill="#fff"/>
    <path d="M28.706 35.998c-.245 0-.507-.076-.77-.23L7.984 24.252c-.988-.57-1.761-2.039-1.761-3.344V3c0-.723.249-1.28.685-1.531.374-.215.839-.184 1.31.085l19.953 11.52c.988.57 1.76 2.038 1.76 3.344v17.905c0 .722-.248 1.28-.685 1.53a1.07 1.07 0 0 1-.539.144h-.002zM7.448 1.795a.618.618 0 0 0-.307.08c-.287.165-.452.576-.452 1.128v17.905c0 1.135.686 2.453 1.527 2.94l19.954 11.517c.226.131.555.251.841.086.287-.165.452-.577.452-1.127V16.42c0-1.134-.685-2.453-1.527-2.939L7.984 1.96a1.124 1.124 0 0 0-.535-.165z" fill="#0F0F0F"/>
    <path d="M29.696 19.582a.23.23 0 0 1-.117-.031L6.338 6.13a.234.234 0 0 1 .233-.405l23.242 13.42a.234.234 0 0 1-.117.436zM21.154 27.332a.84.84 0 0 1-.423-.124l-7.835-4.522c-.499-.288-.89-1.026-.89-1.678 0-.653.352-.91.7-.91.14 0 .282.042.423.124l7.835 4.522c.5.29.889 1.027.889 1.678 0 .652-.351.91-.699.91zm-8.447-6.767c-.171 0-.232.238-.232.443 0 .484.3 1.067.656 1.273l7.835 4.523a.38.38 0 0 0 .188.06c.17 0 .231-.238.231-.442 0-.484-.3-1.067-.654-1.273l-7.835-4.522a.385.385 0 0 0-.19-.06l.001-.002zM9.451 5.923a.735.735 0 0 1-.366-.107c-.375-.218-.67-.73-.67-1.164 0-.254.101-.46.279-.561.178-.103.405-.087.625.04.375.217.671.727.671 1.163 0 .254-.1.46-.28.562a.514.514 0 0 1-.26.067h.001zm-.495-1.432c-.011 0-.02.002-.027.007-.022.012-.045.067-.045.155 0 .27.204.624.438.76.076.044.136.05.157.038.022-.012.046-.067.046-.157 0-.27-.205-.623-.438-.757a.28.28 0 0 0-.131-.046zM11.724 7.233a.73.73 0 0 1-.366-.108c-.375-.216-.671-.726-.671-1.162 0-.254.1-.46.279-.563.177-.103.406-.089.626.04.377.217.671.728.671 1.163 0 .254-.1.458-.278.561a.514.514 0 0 1-.26.067v.002zM11.227 5.8c-.012 0-.022.001-.028.006-.022.012-.045.067-.045.157 0 .27.204.624.438.758.078.045.137.053.159.038.022-.012.045-.067.045-.155 0-.27-.204-.624-.438-.76a.295.295 0 0 0-.13-.044zM13.995 8.545a.735.735 0 0 1-.366-.108c-.377-.218-.672-.73-.672-1.164 0-.254.101-.458.279-.56.178-.104.405-.088.626.038.376.217.672.726.672 1.163 0 .254-.101.46-.279.562a.514.514 0 0 1-.26.067v.002zm-.497-1.432c-.013 0-.02.001-.027.006-.021.012-.045.067-.045.156 0 .27.204.623.438.759.076.045.135.05.157.038.022-.012.045-.067.045-.157 0-.27-.204-.623-.437-.757a.285.285 0 0 0-.133-.045h.002z" fill="#0F0F0F"/>
    <path d="M29.13 35.886a.234.234 0 0 1-.116-.437l2.303-1.329c.287-.167.452-.576.452-1.128V15.087c0-1.135-.686-2.453-1.527-2.94L10.287.629c-.226-.13-.557-.25-.842-.086L7.142 1.873a.234.234 0 0 1-.234-.405L9.21.138c.37-.216.837-.185 1.309.086l19.954 11.52c.988.57 1.76 2.038 1.76 3.344v17.905c0 .722-.249 1.281-.685 1.532l-2.303 1.331a.227.227 0 0 1-.117.031l.002-.001z" fill="#0F0F0F"/>
    <defs>
        <linearGradient id="xt9j4o90la" x1="6.456" y1="19.348" x2="23.628" y2="-3.087" gradientUnits="userSpaceOnUse">
            <stop stop-color="#43E1A8"/>
            <stop offset="1" stop-color="#219393"/>
        </linearGradient>
    </defs>
</svg>
