<svg width="41" height="40" viewBox="0 0 41 40" fill="none" xmlns="http://www.w3.org/2000/svg">
<ellipse cx="26.5" cy="35" rx="12" ry="3" fill="#E2E2E2"/>
<path d="M30.8805 27.1318V28.6726C30.8805 29.7625 30.1592 30.8505 28.7219 31.6806C27.2828 32.5125 25.398 32.9284 23.5132 32.9284C21.6284 32.9284 19.7436 32.5125 18.3063 31.6806C16.8689 30.8505 16.1494 29.7625 16.1494 28.6726C16.1494 28.6726 16.1494 27.0335 16.1494 26.9844C16.1564 27.2546 16.2091 27.5284 16.3056 27.7934C16.5899 28.5726 17.2568 29.3167 18.3045 29.9204C19.7418 30.7522 21.6266 31.1682 23.5114 31.1682C25.3962 31.1682 27.2811 30.7522 28.7201 29.9204C29.7678 29.3167 30.4347 28.5726 30.719 27.7934C30.8173 27.5267 30.8682 27.2546 30.8752 26.9844C30.8769 27.0335 30.8769 27.0826 30.8769 27.1318H30.8805Z" fill="#3543BF"/>
<path d="M30.8807 26.918V27.1338C30.8807 27.0847 30.8807 27.0356 30.8789 26.9864C30.8807 26.9636 30.8807 26.9425 30.8807 26.918Z" fill="#EFF1FF"/>
<path d="M30.8807 26.9147C30.8807 26.9393 30.8807 26.9621 30.8789 26.9849C30.8789 26.8866 30.8736 26.7918 30.8701 26.6953C30.8771 26.7673 30.8807 26.8427 30.8807 26.9147Z" fill="#EFF1FF"/>
<path d="M30.8801 8.05078V8.26665C30.8801 8.33509 30.8766 8.40177 30.8713 8.47022C30.8766 8.33158 30.8801 8.19118 30.8801 8.05078Z" fill="#EFF1FF"/>
<path d="M30.8807 6.50781C30.8807 6.50781 30.8754 8.32945 30.8719 8.46984C30.8719 8.47511 30.8719 8.47862 30.8719 8.48564C30.7824 9.5 30.0664 10.5003 28.7238 11.2742C27.2848 12.1026 25.4 12.5185 23.5151 12.5185C21.6303 12.5185 19.7455 12.1026 18.3082 11.2742C16.9674 10.5003 16.2514 9.5 16.1619 8.48564C16.1602 8.48038 16.1602 8.47511 16.1602 8.46984C16.1566 8.3312 16.1514 8.1908 16.1514 8.05041V6.50957C16.1514 6.80265 16.204 7.09923 16.3093 7.3888C16.5936 8.168 17.2605 8.91034 18.3082 9.5158C19.7455 10.3459 21.6303 10.76 23.5151 10.76C25.4 10.76 27.2865 10.3459 28.7238 9.5158C29.7715 8.91034 30.4384 8.168 30.7227 7.3888C30.828 7.09923 30.8807 6.80265 30.8807 6.50957V6.50781Z" fill="#3543BF"/>
<path d="M30.8808 6.51005C30.8808 6.80312 30.8264 7.09971 30.7228 7.38928C30.4385 8.16848 29.7716 8.91082 28.7239 9.51628C27.2866 10.3464 25.4018 10.7605 23.5153 10.7605C21.6287 10.7605 19.7456 10.3464 18.3083 9.51628C17.2606 8.91082 16.5937 8.16848 16.3094 7.38928C16.2041 7.09971 16.1515 6.80488 16.1515 6.51005C16.1515 5.42023 16.871 4.33216 18.3083 3.50206C19.7456 2.67197 21.6305 2.25781 23.5153 2.25781C25.4001 2.25781 27.2866 2.67197 28.7239 3.50206C30.1612 4.33216 30.8808 5.42022 30.8808 6.50829V6.51005Z" fill="#EFF1FF"/>
<path d="M30.8695 26.6976C30.873 26.7941 30.8782 26.8907 30.8782 26.9872C30.8765 27.2592 30.8186 27.5312 30.722 27.7962C30.4377 28.5754 29.7709 29.3195 28.7232 29.9232C27.2841 30.7551 25.3993 31.171 23.5145 31.171C21.6297 31.171 19.7448 30.7551 18.3075 29.9232C17.2598 29.3195 16.593 28.5754 16.3087 27.7962C16.2104 27.5295 16.1542 27.2575 16.1525 26.9872C16.1525 26.8889 16.1577 26.7941 16.1612 26.6976C16.335 23.0508 18.5603 19.6673 20.9189 18.1387C21.3103 17.886 21.3103 17.3069 20.9189 17.0524C18.5603 15.5221 16.3262 12.1368 16.1612 8.48828C16.2508 9.50264 16.9668 10.503 18.3075 11.2769C19.7448 12.1052 21.6297 12.5211 23.5145 12.5211C25.3993 12.5211 27.2841 12.1052 28.7232 11.2769C30.0639 10.503 30.78 9.50264 30.8712 8.48828C30.7045 12.1368 28.4704 15.5221 26.1118 17.0524C25.7222 17.3051 25.7222 17.8843 26.1118 18.1387C28.4704 19.6673 30.7185 23.0508 30.8712 26.6976H30.8695ZM28.6951 26.1694C28.6933 26.0992 28.6916 26.0325 28.6881 25.964C28.5161 22.4822 25.6906 19.3409 23.5917 19.3409C23.5671 19.3391 23.5391 19.3391 23.5145 19.3391C23.4899 19.3391 23.4636 19.3391 23.439 19.3409C21.3401 19.3409 18.483 22.4805 18.3426 25.964C18.3391 26.0325 18.3356 26.0992 18.3374 26.1694C18.3374 26.3589 18.3795 26.5502 18.4462 26.738C18.648 27.2855 19.1148 27.8085 19.8519 28.2332C20.8645 28.8176 22.1877 29.1107 23.5162 29.1107C24.8447 29.1107 26.1697 28.8176 27.1806 28.2332C27.9177 27.8085 28.3845 27.2855 28.5863 26.738C28.6547 26.552 28.6916 26.3589 28.6968 26.1694H28.6951Z" fill="#EFF1FF"/>
<path d="M28.6894 25.9609C28.6929 26.0293 28.6946 26.096 28.6964 26.1662C28.6911 26.3557 28.6543 26.547 28.5858 26.7348C28.384 27.2823 27.9172 27.8053 27.1801 28.23C26.1675 28.8144 24.8408 29.1075 23.5158 29.1075C22.1908 29.1075 20.864 28.8144 19.8514 28.23C19.1161 27.8053 18.6475 27.2823 18.4457 26.7348C18.3773 26.5488 18.3369 26.3557 18.3369 26.1662C18.3369 26.096 18.3404 26.0293 18.3422 25.9609C18.4826 22.4773 21.3396 19.3377 23.4385 19.3377C23.4631 19.3359 23.4894 19.3359 23.514 19.3359C23.5386 19.3359 23.5666 19.3359 23.5912 19.3377C25.6901 19.3377 28.5156 22.479 28.6876 25.9609H28.6894Z" fill="#F2A526"/>
<path d="M16.1611 26.6932C16.1559 26.7897 16.1523 26.8862 16.1523 26.9827C16.1523 26.9599 16.1523 26.9389 16.1523 26.9143C16.1523 26.8388 16.1541 26.7651 16.1629 26.6914L16.1611 26.6932Z" fill="#EFF1FF"/>
<path d="M16.1516 8.05078C16.1516 8.19118 16.1534 8.33158 16.1604 8.47022C16.1551 8.40177 16.1516 8.33509 16.1516 8.26665V8.05078Z" fill="#EFF1FF"/>
<path d="M30.8728 8.73889C30.8728 8.73889 30.8658 8.73889 30.8623 8.73889C30.7166 8.73187 30.6043 8.60902 30.6096 8.46512C30.6148 8.32999 30.6183 8.1931 30.6183 8.05621C30.6183 7.91055 30.7359 7.79297 30.8816 7.79297C31.0272 7.79297 31.1448 7.91055 31.1448 8.05621C31.1448 8.20187 31.1413 8.34403 31.1343 8.48793C31.129 8.63008 31.0114 8.74064 30.871 8.74064L30.8728 8.73889Z" fill="#0F0F0F"/>
<path d="M16.1607 8.73674C16.0203 8.73674 15.9045 8.62618 15.8975 8.48403C15.8922 8.34187 15.8887 8.19797 15.8887 8.0523C15.8887 7.90664 16.0063 7.78906 16.1519 7.78906C16.2976 7.78906 16.4152 7.90664 16.4152 8.0523C16.4152 8.18919 16.4169 8.32608 16.4239 8.46121C16.431 8.60687 16.3169 8.72972 16.1712 8.73498C16.1677 8.73498 16.1642 8.73498 16.1607 8.73498V8.73674Z" fill="#0F0F0F"/>
<path d="M16.1539 27.2504H16.1504C16.0047 27.2486 15.8889 27.1293 15.8906 26.9836V26.9485C15.8906 26.938 15.8906 26.9292 15.8906 26.9187C15.8906 26.8222 15.8942 26.7397 15.9029 26.666C15.9187 26.5256 16.0433 26.4238 16.1855 26.4343C16.3276 26.4466 16.4347 26.5677 16.4277 26.7099C16.4224 26.8029 16.4189 26.8959 16.4189 26.9906C16.4171 27.1346 16.2995 27.2504 16.1556 27.2504H16.1539Z" fill="#0F0F0F"/>
<path d="M30.8796 27.2506C30.7357 27.2506 30.6181 27.1348 30.6164 26.9909C30.6164 26.8961 30.6111 26.8013 30.6076 26.7066C30.6023 26.5644 30.7112 26.4433 30.8533 26.4346C30.9937 26.4223 31.1183 26.5293 31.1324 26.6715C31.1411 26.7522 31.1446 26.8364 31.1446 26.9189C31.1446 26.933 31.1446 26.9435 31.1411 26.9558C31.1411 26.9645 31.1411 26.9751 31.1411 26.9839C31.1429 27.1295 31.027 27.2489 30.8814 27.2506H30.8779H30.8796Z" fill="#0F0F0F"/>
<path d="M23.5159 31.4328C21.503 31.4328 19.6076 30.9765 18.1773 30.1499C17.1103 29.534 16.3785 28.7513 16.0626 27.8843C15.9608 27.6053 15.9029 27.3052 15.8906 26.9946C15.8906 26.9682 15.8906 26.9437 15.8906 26.9156C15.8906 26.7699 16.0082 26.6523 16.1539 26.6523C16.2995 26.6523 16.4171 26.7699 16.4171 26.9156C16.4171 26.9349 16.4171 26.9542 16.4171 26.9735C16.4276 27.2297 16.475 27.4754 16.5575 27.7036C16.8295 28.4529 17.4806 29.1409 18.4406 29.6937C19.7919 30.4764 21.5942 30.9063 23.5159 30.9063C25.4376 30.9063 27.2399 30.4764 28.5929 29.6937C29.5529 29.1409 30.204 28.4529 30.476 27.7036C30.5637 27.4649 30.6111 27.2209 30.6164 26.977C30.6164 26.97 30.6164 26.963 30.6164 26.9559C30.6164 26.9419 30.6164 26.9296 30.6164 26.9156C30.6164 26.7699 30.734 26.6523 30.8796 26.6523C31.0253 26.6523 31.1429 26.7699 31.1429 26.9156C31.1429 26.9454 31.1429 26.9735 31.1411 26.9998C31.1324 27.2982 31.0744 27.5948 30.9691 27.8843C30.6533 28.7495 29.9232 29.534 28.8544 30.1499C27.4224 30.9765 25.5271 31.4328 23.5141 31.4328H23.5159Z" fill="#0F0F0F"/>
<path d="M23.5157 33.1934C21.5028 33.1934 19.6074 32.7371 18.1771 31.9106C16.7012 31.0594 15.8887 29.9099 15.8887 28.6762V26.9195C15.8887 26.7738 16.0063 26.6562 16.1519 26.6562C16.2976 26.6562 16.4152 26.7738 16.4152 26.9195V28.6762C16.4152 29.7151 17.1347 30.7014 18.4404 31.456C19.7917 32.237 21.594 32.6687 23.5157 32.6687C25.4374 32.6687 27.2397 32.2387 28.5927 31.456C29.9002 30.7014 30.6197 29.7151 30.6197 28.6762V26.9195C30.6197 26.7738 30.7373 26.6562 30.883 26.6562C31.0286 26.6562 31.1462 26.7738 31.1462 26.9195V28.6762C31.1462 29.9099 30.3337 31.0594 28.856 31.9106C27.4239 32.7371 25.5286 33.1934 23.5157 33.1934Z" fill="#0F0F0F"/>
<path d="M16.1519 27.3966C16.0063 27.3966 15.8887 27.279 15.8887 27.1334C15.8887 27.0825 15.8887 27.0298 15.8887 26.979C15.8922 26.8333 16.008 26.7192 16.1589 26.7227C16.3046 26.7262 16.4187 26.8473 16.4152 26.993C16.4152 27.0386 16.4152 27.0878 16.4152 27.1334C16.4152 27.279 16.2976 27.3966 16.1519 27.3966Z" fill="#0F0F0F"/>
<path d="M30.8815 27.3967C30.7359 27.3967 30.6183 27.2791 30.6183 27.1335C30.6183 27.0896 30.6183 27.044 30.6165 26.9984C30.6095 26.8527 30.7218 26.7299 30.8657 26.7228C31.0096 26.7176 31.1342 26.8281 31.1413 26.972C31.1448 27.0247 31.1448 27.0791 31.1448 27.1317C31.1448 27.2774 31.0272 27.395 30.8815 27.395V27.3967Z" fill="#0F0F0F"/>
<path d="M16.163 26.9608C16.163 26.9608 16.1542 26.9608 16.1507 26.9608C16.005 26.9538 15.8927 26.8309 15.8997 26.6853C16.0805 22.7173 18.555 19.3584 20.7767 17.9176C20.8873 17.8456 20.9505 17.728 20.9505 17.5964C20.9505 17.4648 20.8873 17.3454 20.7767 17.2752C18.5532 15.8327 16.0787 12.472 15.8997 8.50226C15.8927 8.3566 16.005 8.23376 16.1507 8.22674C16.2981 8.22148 16.4192 8.33204 16.4262 8.4777C16.5982 12.2614 18.9498 15.4606 21.0645 16.833C21.3225 16.9997 21.477 17.2858 21.4787 17.5964C21.4787 17.907 21.3243 18.1931 21.0645 18.3598C18.9516 19.7304 16.6 22.9279 16.4262 26.7098C16.4192 26.8502 16.3034 26.9608 16.163 26.9608Z" fill="#0F0F0F"/>
<path d="M30.8706 26.9609C30.7302 26.9609 30.6144 26.8504 30.6074 26.71C30.4336 22.9263 28.0803 19.7306 25.969 18.3599C25.7111 18.1915 25.5566 17.9072 25.5566 17.5965C25.5566 17.2859 25.7111 16.9998 25.969 16.8331C28.082 15.4608 30.4354 12.2615 30.6074 8.47783C30.6144 8.33217 30.7355 8.21985 30.8829 8.22687C31.0286 8.23389 31.1409 8.35673 31.1338 8.50239C30.9531 12.4721 28.4786 15.8328 26.2551 17.2754C26.1463 17.3473 26.0831 17.4632 26.0831 17.5965C26.0831 17.7299 26.1463 17.8475 26.2551 17.9194C28.4769 19.3603 30.9513 22.7175 31.1338 26.6872C31.1409 26.8328 31.0286 26.9557 30.8829 26.9627C30.8794 26.9627 30.8741 26.9627 30.8706 26.9627V26.9609Z" fill="#0F0F0F"/>
<path d="M23.5161 29.3749C22.0858 29.3749 20.738 29.0502 19.7202 28.4623C18.955 28.0218 18.4285 27.4567 18.1986 26.8285C18.1161 26.6021 18.074 26.381 18.0723 26.1704C18.0723 26.1072 18.074 26.0493 18.0775 25.9878V25.9527C18.225 22.32 21.1891 19.0874 23.4266 19.0769C23.4845 19.0733 23.5442 19.0733 23.6021 19.0769C25.8133 19.0874 28.7722 22.3182 28.9494 25.951C28.9512 25.9984 28.9565 26.1704 28.9565 26.1774C28.9494 26.3968 28.9073 26.6161 28.8301 26.8267C28.6002 27.455 28.0737 28.0201 27.3086 28.4606C26.2907 29.0485 24.9429 29.3731 23.5126 29.3731L23.5161 29.3749ZM23.4986 19.6033C23.488 19.6033 23.4757 19.6033 23.4652 19.6033C23.4564 19.6033 23.4477 19.6033 23.4406 19.6033C21.4418 19.6033 18.7391 22.6921 18.6075 25.9738V26.0107C18.604 26.0615 18.6023 26.1142 18.6023 26.1668C18.6023 26.316 18.6338 26.4775 18.6953 26.6459C18.8813 27.1549 19.3271 27.6252 19.9852 28.0043C20.9241 28.5483 22.1788 28.8467 23.5179 28.8467C24.8569 28.8467 26.1117 28.5483 27.0506 28.0043C27.7069 27.6252 28.1527 27.1566 28.3405 26.6459C28.3966 26.4898 28.4282 26.3283 28.4352 26.1686C28.4352 26.1686 28.43 26.0212 28.4282 25.9773C28.2668 22.6956 25.5676 19.6051 23.5951 19.6051C23.5863 19.6051 23.5775 19.6051 23.5705 19.6051C23.553 19.6051 23.5354 19.6051 23.5179 19.6051H23.5003L23.4986 19.6033Z" fill="#0F0F0F"/>
<path d="M16.1519 27.182C16.1168 27.182 16.0835 27.175 16.0519 27.1627C16.0185 27.1486 15.9905 27.1293 15.9659 27.1047C15.9168 27.0556 15.8887 26.9889 15.8887 26.9187C15.8887 26.9012 15.8887 26.8854 15.8939 26.8678C15.8975 26.8503 15.9027 26.8345 15.908 26.8187C15.915 26.8029 15.9238 26.7871 15.9325 26.7731C15.9431 26.759 15.9536 26.745 15.9659 26.7327C15.9782 26.7204 15.9905 26.7099 16.0063 26.7011C16.0203 26.6906 16.0361 26.6836 16.0519 26.6765C16.0677 26.6695 16.0835 26.6642 16.101 26.6607C16.187 26.6449 16.2765 26.6713 16.3379 26.7327C16.3502 26.745 16.3608 26.759 16.3713 26.7731C16.3801 26.7871 16.3888 26.8029 16.3959 26.8187C16.4011 26.8345 16.4064 26.8503 16.4099 26.8678C16.4134 26.8854 16.4152 26.9012 16.4152 26.9187C16.4152 26.9889 16.3871 27.0556 16.3379 27.1047C16.2888 27.1556 16.2221 27.182 16.1519 27.182Z" fill="#0F0F0F"/>
<path d="M30.8814 27.182C30.8112 27.182 30.7463 27.1556 30.6954 27.1047C30.6462 27.0556 30.6182 26.9889 30.6182 26.9187C30.6182 26.9012 30.6182 26.8854 30.6234 26.8678C30.6269 26.8503 30.6322 26.8345 30.6392 26.8187C30.6462 26.8029 30.6533 26.7871 30.6638 26.7731C30.6726 26.759 30.6831 26.745 30.6954 26.7327C30.7568 26.6713 30.8481 26.6449 30.9341 26.6607C30.9499 26.6642 30.9674 26.6695 30.9832 26.6765C30.999 26.6836 31.0148 26.6906 31.0288 26.7011C31.0429 26.7099 31.0569 26.7204 31.0692 26.7327C31.0797 26.745 31.092 26.759 31.1008 26.7731C31.1113 26.7871 31.1183 26.8029 31.1253 26.8187C31.1324 26.8345 31.1376 26.8503 31.1394 26.8678C31.1429 26.8854 31.1446 26.9012 31.1446 26.9187C31.1446 26.9889 31.1183 27.0556 31.0692 27.1047C31.0429 27.1293 31.0148 27.1486 30.9832 27.1627C30.9516 27.175 30.9165 27.182 30.8814 27.182Z" fill="#0F0F0F"/>
<path d="M23.5157 11.0275C21.5028 11.0275 19.6074 10.5729 18.1771 9.7481C17.1084 9.13036 16.3783 8.34765 16.0624 7.48246C15.9466 7.16657 15.8887 6.84191 15.8887 6.51373C15.8887 5.28 16.7012 4.13051 18.1771 3.27936C19.6074 2.45454 21.5028 2 23.5157 2C25.5286 2 27.4257 2.45454 28.856 3.27936C30.3319 4.13227 31.1444 5.28 31.1444 6.51373C31.1444 6.83664 31.0865 7.16306 30.9707 7.48246C30.6548 8.34765 29.9248 9.13036 28.856 9.7481C27.4257 10.5729 25.5304 11.0275 23.5157 11.0275ZM23.5157 2.52473C21.594 2.52473 19.7917 2.95469 18.4404 3.73389C17.1347 4.48852 16.4152 5.4748 16.4152 6.51373C16.4152 6.77873 16.4626 7.04373 16.5573 7.3017C16.8293 8.04931 17.4804 8.73725 18.4404 9.29181C19.7917 10.071 21.594 10.501 23.5157 10.501C25.4374 10.501 27.2414 10.071 28.5927 9.29181C29.5527 8.73725 30.2038 8.04931 30.4758 7.3017C30.5706 7.04022 30.618 6.77522 30.618 6.51198C30.618 5.4748 29.8984 4.48852 28.5927 3.73389C27.2414 2.95469 25.4391 2.52473 23.5157 2.52473Z" fill="#0F0F0F"/>
<path d="M23.5157 12.7854C21.5045 12.7854 19.6092 12.3309 18.1771 11.5061C16.8135 10.7181 16.0045 9.65811 15.901 8.5209C15.901 8.51213 15.8992 8.50511 15.8975 8.49633C15.8904 8.42087 15.8887 8.34541 15.8887 8.26995V6.51324C15.8887 6.36758 16.0063 6.25 16.1519 6.25C16.2976 6.25 16.4152 6.36758 16.4152 6.51324C16.4152 6.51324 16.4169 8.38577 16.4222 8.44369C16.4222 8.4507 16.4239 8.45948 16.4257 8.4665C16.5099 9.43172 17.226 10.3496 18.4421 11.0498C19.7952 11.829 21.5975 12.2589 23.5174 12.2589C25.4374 12.2589 27.2397 11.829 28.5945 11.0498C29.8089 10.3496 30.5249 9.43172 30.6109 8.4665V8.46123C30.6109 8.46123 30.6109 8.45421 30.6109 8.45246C30.6144 8.37349 30.618 7.24857 30.618 6.51324C30.618 6.36758 30.7355 6.25 30.8812 6.25C31.0269 6.25 31.1444 6.36758 31.1444 6.51324C31.1444 7.18363 31.1357 8.49633 31.1357 8.49633C31.1357 8.5016 31.1357 8.50687 31.1357 8.51213C31.0198 9.65109 30.2248 10.7163 28.8577 11.5043C27.424 12.3291 25.5286 12.7837 23.5174 12.7837L23.5157 12.7854Z" fill="#0F0F0F"/>
<path d="M16.0764 16.7617C20.3936 19.459 23.5508 25.647 23.1296 30.5801C22.9313 32.8844 21.9889 34.5077 20.6007 35.3097L19.1143 36.1661C20.5024 35.3659 21.4448 33.7425 21.6414 31.4383C22.0661 26.5051 18.9072 20.3154 14.5918 17.6198C12.3103 16.1931 10.1623 16.0263 8.58105 16.9178L10.0271 16.0825C11.6118 15.1682 13.7775 15.3226 16.0782 16.7617H16.0764Z" fill="#3543BF"/>
<path d="M14.5906 17.6231C18.9078 20.3205 22.0649 26.5084 21.6402 31.4416C21.4437 33.7458 20.5013 35.3692 19.1131 36.1694C17.5301 37.0855 15.3628 36.9293 13.0603 35.4902C8.74486 32.7929 5.5877 26.6049 6.01064 21.67C6.2072 19.3658 7.14961 17.7425 8.53953 16.9422L8.57989 16.9194C10.1611 16.0296 12.3109 16.1946 14.5906 17.6214V17.6231ZM20.5083 30.7343C20.8698 26.5154 18.1707 21.226 14.48 18.92C10.7911 16.6123 7.50588 18.1636 7.14436 22.3808C6.78459 26.5997 9.48194 31.8908 13.1708 34.1968C16.8615 36.5029 20.145 34.9532 20.5065 30.7343H20.5083Z" fill="#EFF1FF"/>
<path d="M13.1459 25.4328C13.0055 25.5381 12.9125 25.7188 12.8914 25.9662C12.8406 26.5577 13.2179 27.2965 13.7338 27.6194C14.2498 27.9423 14.7078 27.7247 14.7587 27.135C14.7815 26.8701 14.7183 26.5735 14.5937 26.2979C14.4428 25.9627 14.2006 25.6591 13.9163 25.4819C13.6162 25.2941 13.3354 25.2889 13.1441 25.4328H13.1459ZM14.4797 18.9131C18.1703 21.2191 20.8694 26.5085 20.5079 30.7274C20.1464 34.9446 16.8629 36.4959 13.1722 34.1899C9.48333 31.8839 6.78423 26.5928 7.14575 22.3739C7.50727 18.1567 10.7925 16.6054 14.4814 18.9131H14.4797Z" fill="#C2C7EC"/>
<path d="M14.5956 26.3011C14.7202 26.5766 14.7833 26.8714 14.7605 27.1382C14.7096 27.7278 14.2516 27.9455 13.7356 27.6225C13.2197 27.2996 12.8424 26.5608 12.8933 25.9694C12.9143 25.7237 13.0073 25.5412 13.1477 25.4359C13.339 25.2937 13.6198 25.2972 13.9199 25.485C14.2042 25.6623 14.4446 25.9641 14.5973 26.3011H14.5956Z" fill="url(#paint0_linear_1227_34780)"/>
<path d="M16.9065 37.0019C15.6569 37.0019 14.2863 36.5684 12.921 35.7155C8.5371 32.9743 5.31852 26.6652 5.74849 21.6496C5.94504 19.3436 6.89096 17.5921 8.40724 16.7164C8.41601 16.7112 8.42303 16.7077 8.43181 16.7042C8.43707 16.7006 8.44409 16.6954 8.45111 16.6919C10.1727 15.7214 12.4612 15.9811 14.7303 17.4009C19.1159 20.1403 22.3345 26.4511 21.9028 31.465C21.7062 33.771 20.7621 35.5225 19.244 36.3982C18.5456 36.8018 17.7523 37.0001 16.9047 37.0001L16.9065 37.0019ZM8.68802 17.1604C8.68802 17.1604 8.6775 17.1674 8.67224 17.171C7.30864 17.9589 6.45749 19.5647 6.27497 21.6935C5.8608 26.5318 8.96883 32.6215 13.2018 35.268C15.3235 36.593 17.4294 36.8387 18.9843 35.9419C20.3479 35.1539 21.1991 33.5481 21.3816 31.4194C21.7975 26.581 18.6895 20.4913 14.4548 17.8466C12.3541 16.5322 10.2605 16.2777 8.7126 17.1499C8.70558 17.1534 8.69856 17.1569 8.69154 17.1604H8.68802Z" fill="#0F0F0F"/>
<path d="M16.4488 35.5264C15.3801 35.5264 14.213 35.1526 13.032 34.4137C9.27286 32.0639 6.51409 26.6534 6.88263 22.352C7.06164 20.2566 7.94788 18.7087 9.37641 17.9962C10.8576 17.2574 12.7196 17.5031 14.6202 18.6912C18.3793 21.041 21.1398 26.4498 20.7713 30.7512C20.5923 32.8466 19.706 34.3945 18.2775 35.107C17.7159 35.3878 17.1017 35.5264 16.4488 35.5264ZM11.2033 18.105C10.633 18.105 10.0959 18.2244 9.61156 18.4683C8.35326 19.0966 7.57057 20.4917 7.40736 22.3976C7.05461 26.5218 9.70457 31.7111 13.311 33.968C15.0501 35.0543 16.7296 35.2912 18.0406 34.6366C19.2989 34.0084 20.0816 32.6114 20.2448 30.7073C20.5975 26.5832 17.9493 21.3938 14.3394 19.1387C13.2443 18.4543 12.1738 18.1068 11.2033 18.1068V18.105Z" fill="#0F0F0F"/>
<path d="M14.197 28.0325C14.0039 28.0325 13.7968 27.9694 13.5968 27.843C12.9966 27.4675 12.5719 26.6338 12.6316 25.9441C12.6579 25.6318 12.786 25.3755 12.9913 25.2229C13.2791 25.007 13.6792 25.0211 14.0601 25.2597C14.376 25.458 14.6603 25.7967 14.8375 26.1898C14.9867 26.518 15.0516 26.8532 15.0253 27.1568C14.9937 27.5271 14.8217 27.8149 14.5515 27.9501C14.4427 28.0045 14.3233 28.0308 14.197 28.0308V28.0325ZM13.4617 25.5967C13.4002 25.5967 13.3476 25.6125 13.3037 25.6458C13.2212 25.7072 13.1686 25.8301 13.1545 25.9898C13.1124 26.4829 13.4423 27.127 13.8741 27.3972C14.0443 27.5043 14.2057 27.5341 14.3128 27.4815C14.4163 27.4306 14.4813 27.299 14.4971 27.1147C14.5146 26.9041 14.4637 26.6531 14.3549 26.4092C14.218 26.1074 14.0092 25.8529 13.7775 25.709C13.6617 25.6353 13.5529 25.5984 13.4599 25.5984L13.4617 25.5967Z" fill="#0F0F0F"/>
<path d="M13.1477 25.6978C13.0582 25.6978 12.9722 25.6522 12.9231 25.5714L10.8627 22.1809C10.7873 22.0563 10.8259 21.8948 10.9505 21.8194C11.0751 21.7439 11.2366 21.7843 11.312 21.9071L13.3723 25.2977C13.4478 25.4223 13.4092 25.5837 13.2846 25.6592C13.2425 25.6855 13.1951 25.6978 13.1477 25.6978Z" fill="#0F0F0F"/>
<path d="M14.5965 26.5647C14.4859 26.5647 14.3824 26.4945 14.3473 26.384C14.3017 26.2453 14.3771 26.0979 14.5158 26.0523L18.3082 24.8063C18.4451 24.7606 18.5943 24.8361 18.6399 24.9748C18.6855 25.1134 18.6101 25.2608 18.4714 25.3065L14.679 26.5525C14.6509 26.5612 14.6246 26.5665 14.5965 26.5665V26.5647Z" fill="#0F0F0F"/>
<path d="M19.1139 36.4297C19.0226 36.4297 18.9349 36.3823 18.8857 36.2981C18.8138 36.1717 18.8559 36.012 18.9823 35.9383L20.4687 35.0819C21.8306 34.294 22.6835 32.6864 22.866 30.5577C23.2801 25.7193 20.1704 19.6314 15.9357 16.9849C13.8157 15.6582 11.7098 15.4125 10.1566 16.3093L8.6702 17.1674C8.54384 17.2411 8.38413 17.1972 8.31043 17.0709C8.23847 16.9445 8.2806 16.7848 8.40696 16.7111L9.89339 15.8529C11.622 14.8544 13.9263 15.1053 16.2165 16.5374C20.6021 19.2769 23.8207 25.5859 23.3907 30.6015C23.1924 32.9075 22.2482 34.6607 20.732 35.5365L19.2455 36.3929C19.2034 36.4174 19.1595 36.428 19.1139 36.428V36.4297Z" fill="#0F0F0F"/>
<defs>
<linearGradient id="paint0_linear_1227_34780" x1="12.8887" y1="27.7721" x2="15.2441" y2="25.9578" gradientUnits="userSpaceOnUse">
<stop stop-color="#43E1A8"/>
<stop offset="1" stop-color="#219393"/>
</linearGradient>
</defs>
</svg>
