<svg width="28" height="28" viewBox="0 0 28 28" fill="none" xmlns="http://www.w3.org/2000/svg">
    <path d="M24.538 23.078V7.067a.545.545 0 0 0-.877-.434L6.616 19.642a.545.545 0 0 0-.214.433v3.003c0 .301.244.546.545.546h17.045a.545.545 0 0 0 .546-.546z" fill="#3543BF" stroke="#3543BF"/>
    <path d="M4.892 5.841a1.09 1.09 0 0 1 1.071-.882h17.631c.686 0 1.202.627 1.07 1.3l-2.437 12.474a1.09 1.09 0 0 1-1.07.882H3.526a1.09 1.09 0 0 1-1.07-1.3L4.891 5.84z" fill="#EFF1FF" stroke="#3543BF"/>
    <path d="M16.53 10.313c.311 0 .565-.218.566-.49.002-.271-.25-.492-.563-.493l-4.959-.02c-.312-.002-.566.217-.567.489 0 .271.251.492.563.494l1.42.005c.313.004.618.088.877.242.258.154.458.371.575.624l-2.875-.011c-.312-.002-.566.217-.567.489-.001.271.25.492.563.494l2.875.011c-.23.553-.797.857-1.46.855l-1.419-.006c-.233.005-.44.13-.526.32a.46.46 0 0 0 .135.545l3.535 2.933a.611.611 0 0 0 .404.142.606.606 0 0 0 .4-.151.457.457 0 0 0 .156-.355.466.466 0 0 0-.181-.345L12.976 14a2.977 2.977 0 0 0 1.691-.522c.48-.336.814-.803.947-1.326l.908.004c.312.001.566-.218.567-.49.001-.27-.251-.492-.563-.493l-.908-.004a2.167 2.167 0 0 0-.438-.862l1.35.006z" fill="#3543BF" stroke="#3543BF" stroke-width=".218"/>
    <path d="M10.027 7.224V2.625M19.954 7.224V2.625" stroke="#3543BF" stroke-linecap="round" stroke-linejoin="round"/>
</svg>
