<svg width="28" height="28" viewBox="0 0 28 28" fill="none" xmlns="http://www.w3.org/2000/svg">
    <path d="M20.616 7.932V2.625A1.558 1.558 0 0 0 18.64 1.12L5.625 3.719a1.662 1.662 0 0 0-1.142 1.588" fill="#3543BF"/>
    <path d="M20.616 7.932V2.625A1.558 1.558 0 0 0 18.64 1.12L5.625 3.719a1.662 1.662 0 0 0-1.142 1.588" stroke="#3543BF" stroke-linecap="round" stroke-linejoin="round"/>
    <path d="M4.484 21.819c0 .395.165.774.457 1.053.292.28.688.436 1.101.436l16.132 2.625c.413 0 .81-.157 1.102-.436.292-.28.456-.658.456-1.053V9.414c0-.394-.164-.773-.456-1.052a1.596 1.596 0 0 0-1.102-.437L4.484 5.306V21.82z" fill="#EFF1FF" stroke="#3543BF" stroke-linecap="round" stroke-linejoin="round"/>
    <path d="m14.658 9.634 1.296 2.552h2.21a.606.606 0 0 1 .435 1.039L16.57 15.22l1.124 2.581a.611.611 0 0 1-.871.764l-2.716-1.528-2.716 1.526a.611.611 0 0 1-.872-.764l1.124-2.581-2.029-1.997a.606.606 0 0 1 .436-1.04h2.209l1.297-2.548a.624.624 0 0 1 1.102 0zM10.215 20.856l7.79 1.281" stroke="#3543BF" stroke-linecap="round" stroke-linejoin="round"/>
</svg>
