<svg width="41" height="40" viewBox="0 0 41 40" fill="none" xmlns="http://www.w3.org/2000/svg">
    <path d="M29.679 38.45 8.936 26.481c-1.197-.69-.903-2.495.452-2.77l7.716-1.562a2 2 0 0 1 1.397.228l19.558 11.29a1 1 0 0 1 .03 1.714l-4.806 3.004a3.5 3.5 0 0 1-3.604.063z" fill="#E2E2E2" fill-opacity=".933"/>
    <path d="m34.264 34.088-1.906 1.189a.5.5 0 0 1-.638-.092L28 31l-.5-6.559c1.5-1.833 4.3-4.7 3.5-1.5-.767 3.07 1.778 6.078 3.31 7.348.12.098.19.243.19.397v2.978a.5.5 0 0 1-.236.424z" fill="url(#7vvlc2tdba)" stroke="#0F0F0F" stroke-width=".5"/>
    <path d="m34.257 21.646-1.954 1.172a.2.2 0 0 1-.303-.171V19.5L5.66 4.69a.1.1 0 0 1 .001-.176L8.26 3.128a.5.5 0 0 1 .48.005l25.504 14.224a.5.5 0 0 1 .257.437v3.423a.5.5 0 0 1-.243.429z" fill="#3543BF" stroke="#0F0F0F" stroke-width=".5"/>
    <path d="M32.25 22.691v-2.899a.25.25 0 0 0-.127-.218L5.623 4.638a.25.25 0 0 0-.373.218v2.85c0 .09.049.177.134.23a9.705 9.705 0 0 1 2.668 2.463c.814 1.123 1.396 2.536 1.196 4.132-.158 1.264-.581 2.026-1.162 2.415-.58.388-1.255.361-1.817.192a.461.461 0 0 0-.362.05c-.104.062-.157.152-.157.246v2.776c0 .09.048.173.126.217l26 14.926a.25.25 0 0 0 .374-.217v-2.79a.29.29 0 0 0-.174-.255c-1.45-.682-3.826-2.629-3.826-6.091 0-1.55.482-2.456 1.227-2.892.725-.425 1.62-.353 2.34-.142.229.066.433-.101.433-.275z" fill="#EFF1FF" stroke="#0F0F0F" stroke-width=".5"/>
    <path d="M26.297 21.774 16.029 24.6l3.676-4.46-2.981-1.72 2.802-4.214 4.18 2.7-2.274 2.056 4.865 2.81z" fill="#F2A526"/>
    <path d="M16.03 24.803a.205.205 0 0 1-.158-.335l3.52-4.273-2.772-1.6a.206.206 0 0 1-.068-.291l2.802-4.213a.205.205 0 0 1 .281-.059l4.181 2.698a.205.205 0 0 1 .026.324l-2.065 1.869 4.62 2.67c.072.04.112.12.102.203a.209.209 0 0 1-.149.172l-10.267 2.828a.186.186 0 0 1-.055.007h.001zm.985-6.454 2.792 1.613c.052.03.09.082.1.14a.205.205 0 0 1-.044.167l-3.264 3.96 9.17-2.526-4.44-2.566a.203.203 0 0 1-.034-.33l2.075-1.877-3.786-2.444-2.57 3.863z" fill="#0F0F0F"/>
    <path d="M13.5 9v15.9" stroke="#0F0F0F" stroke-width=".5" stroke-dasharray="1 1"/>
    <defs>
        <linearGradient id="7vvlc2tdba" x1="34.5" y1="35.5" x2="23.3" y2="29.9" gradientUnits="userSpaceOnUse">
            <stop stop-color="#43E1A8"/>
            <stop offset="1" stop-color="#219393"/>
        </linearGradient>
    </defs>
</svg>
