<svg width="29" height="29" viewBox="0 0 29 29" fill="none" xmlns="http://www.w3.org/2000/svg">
    <path d="M19.596 25C22.575 25 25 22.572 25 19.572V6.428C25 3.428 22.574 1 19.596 1H6.403C3.426 1 1 3.428 1 6.428v13.144C1 22.572 3.426 25 6.403 25h13.194z" fill="#EC2127" stroke="#fff"/>
    <path d="M21.53 8.54c-.336.374-2.505 4.44-2.82 5.091-.435.79-.849 1.046-1.164 1.046-.71 0-.572-1.164-.454-1.559.67-2.625 1.4-3.592 1.499-3.77.512-.71.02-1.559-.71-1.559-.888 0-1.223.553-1.223 1.46-.256.711-.769 1.954-.848 2.073-.315.671-1.913 3.02-2.465 3.553-.118.118-.276.118-.276-.04.06-1.618.947-4.638.947-4.638.02-.099.04-.197.04-.276 0-.474-.218-.79-.71-.83-.494-.039-.75.198-1.204.731-.986 1.224-2.17 3.079-2.741 3.928-.06.098-.177.059-.177-.06 0-.375 1.203-4.618 1.203-4.618.098-.454-.198-.81-.71-.81-.572 0-1.775 1.639-3.649 4.224-.059.08-.197.04-.158-.039.434-1.164.848-2.566.848-3.296 0-.69-.295-1.046-.887-1.046-1.341 0-2.583 1.5-2.583 2.21 0 .395.236.77.63.77.592 0 .73-1.105 1.164-1.105.08 0 .08.098.08.118-.08.79-1.046 4.027-1.559 5.566-.256.79-.098 1.342.552 1.342.474 0 .927-.454 1.38-1.145.888-1.342 2.21-3.434 2.348-3.434.039 0 .059.02.059.06-.178.966-.927 3.947.552 3.947.276 0 .572-.08.887-.395.355-.375 1.736-2.23 2.564-3.71.06-.1.118-.02.099.059-.158.77-.71 2.92-.71 3.414 0 1.145.828 1.145.867 1.145 1.598 0 3.195-2.822 3.471-3.217-.493 1.717.316 3.414 2.07 2.723-.492 1.224-1.34 3.08-1.34 4.974 0 1.165.65 1.737 1.301 1.737.474 0 .907-.276.907-.75-.67-1.263-.059-4.579 1.637-8.408.809-.908 2.8-4.006 2.8-4.974 0-.552-.315-.809-.729-.809-.355-.059-.552.06-.789.316z" fill="#fff"/>
</svg>
