<svg width="41" height="40" viewBox="0 0 41 40" fill="none" xmlns="http://www.w3.org/2000/svg">
    <path d="m25.838 38.61-9.326-4.996c-1.151-.617-1.018-2.309.215-2.739l10.308-3.593a2 2 0 0 1 1.574.11l9.208 4.741a1 1 0 0 1 .018 1.769l-8.677 4.7a3.5 3.5 0 0 1-3.32.008z" fill="#E2E2E2" fill-opacity=".933"/>
    <path d="m11.331 2.618 2.78-1.606c.156-.09.357-.08.58.048l18.04 10.414c.215.124.412.34.564.6.195.326.318.722.318 1.087v2.062l-2.79 1.613v-2.062c0-.365-.125-.761-.32-1.087-.153-.261-.35-.476-.564-.602L11.899 2.673c-.217-.124-.414-.137-.568-.055z" fill="#3543BF"/>
    <path d="M12.77 5.364a.983.983 0 0 1-.446-.772c0-.284.199-.4.446-.257.246.144.447.488.447.772 0 .284-.2.4-.447.257z" fill="#EFF1FF"/>
    <path d="M25.687 18.773c0 .896-.63 1.257-1.405.812-.775-.449-1.405-1.536-1.405-2.434 0-.898.63-1.258 1.405-.81.775.448 1.405 1.536 1.405 2.432z" fill="#F2A526"/>
    <path d="M13.9 5.503c0 .286.199.632.445.774.247.142.447.026.447-.257 0-.284-.2-.632-.447-.772-.246-.142-.445-.027-.445.255zm-1.577-.908c0 .284.198.63.445.772.247.142.447.026.447-.257 0-.284-.2-.63-.447-.772-.247-.142-.445-.027-.445.257zm-1.311.76V3.34c0-.353.119-.605.305-.715l.012-.007c.155-.082.352-.071.568.055l18.04 10.412c.214.126.411.34.564.601.195.327.32.722.32 1.088v2.013L11.01 5.353v.001zm4.91 1.832c.247.142.446.027.446-.255 0-.283-.199-.632-.445-.774-.247-.142-.447-.027-.447.257 0 .284.2.632.447.772z" fill="#3543BF"/>
    <path d="m33.366 33.375-2.795 1.612c.162-.092.25-.308.25-.642V16.831l2.791-1.612v17.515c0 .332-.089.548-.246.64z" fill="#C2C7EC"/>
    <path d="M14.346 6.275A.984.984 0 0 1 13.9 5.5c0-.285.2-.399.446-.255a.98.98 0 0 1 .447.772c0 .285-.2.4-.447.257z" fill="#EFF1FF"/>
    <path d="m11.012 16.973 6.308-3.641 6.372 11.04 2.298-1.327 4.83 8.365v2.942c0 .333-.09.55-.25.642-.159.09-.39.058-.677-.107L11.896 24.498c-.222-.128-.428-.356-.582-.628a2.187 2.187 0 0 1-.303-1.06v-5.837h.002z" fill="#3543BF"/>
    <path d="M22.877 17.155c0 .895.63 1.985 1.405 2.434.776.447 1.406.083 1.406-.813 0-.896-.63-1.983-1.405-2.432-.776-.449-1.406-.085-1.406.81zM11.012 5.353 30.82 16.79v14.62l-4.829-8.364-2.297 1.327-6.373-11.04-6.308 3.64V5.352l-.001.001zM15.924 7.188a.98.98 0 0 1-.447-.771c0-.286.2-.401.447-.258a.984.984 0 0 1 .445.774c0 .286-.199.4-.445.255z" fill="#EFF1FF"/>
    <path d="M30.37 35.313c-.16 0-.362-.05-.608-.192L11.765 24.732c-.256-.147-.497-.404-.68-.727a2.438 2.438 0 0 1-.339-1.192V3.343c0-.438.16-.782.438-.943a.053.053 0 0 1 .014-.007l.013-.007c.238-.126.53-.105.82.062L30.07 12.86c.253.149.48.39.66.699.225.376.354.823.354 1.22v19.576c0 .54-.207.772-.383.873a.667.667 0 0 1-.334.085h.002zM11.447 2.863c-.105.066-.169.248-.169.48v19.47c0 .294.098.631.268.927.135.238.31.432.485.53l17.997 10.39c.218.126.355.137.41.105.056-.032.117-.158.117-.412V14.778c0-.306-.103-.653-.28-.951a1.417 1.417 0 0 0-.47-.51L11.765 2.906c-.072-.04-.207-.102-.309-.05l-.008.006-.002.002z" fill="#0F0F0F"/>
    <path d="M30.82 17.058a.263.263 0 0 1-.132-.036L10.879 5.587a.266.266 0 0 1 .266-.462l19.809 11.436a.266.266 0 0 1-.133.497z" fill="#0F0F0F"/>
    <path d="M30.571 35.26a.266.266 0 0 1-.133-.496l2.795-1.613c.053-.032.113-.156.113-.41V13.164a1.92 1.92 0 0 0-.278-.95 1.409 1.409 0 0 0-.469-.508L14.56 1.292c-.074-.043-.213-.107-.314-.048l-2.792 1.613a.267.267 0 0 1-.266-.461L13.979.782c.245-.142.545-.125.846.047l18.042 10.414c.252.148.48.387.66.698.224.374.353.821.353 1.22V32.74c0 .536-.206.769-.378.87l-2.796 1.612a.257.257 0 0 1-.133.036l-.002.003z" fill="#0F0F0F"/>
    <path d="M30.822 17.103a.267.267 0 0 1-.133-.497l2.79-1.613a.267.267 0 0 1 .266.461l-2.79 1.613a.258.258 0 0 1-.133.036zM30.821 31.677a.266.266 0 0 1-.23-.133l-4.697-8.135-2.067 1.194a.267.267 0 0 1-.364-.097l-6.24-10.81-6.076 3.508a.267.267 0 0 1-.266-.461l6.307-3.641a.267.267 0 0 1 .364.098l6.24 10.809 2.067-1.194a.268.268 0 0 1 .363.098l4.83 8.364a.267.267 0 0 1-.231.4zM24.907 20.047c-.238 0-.497-.076-.76-.227-.862-.498-1.538-1.67-1.538-2.665 0-.532.194-.936.545-1.139.351-.202.798-.166 1.26.1.862.498 1.536 1.667 1.536 2.663 0 .532-.193.936-.544 1.139a.988.988 0 0 1-.5.13zm-1.254-3.628a.475.475 0 0 0-.233.057c-.177.103-.278.35-.278.68 0 .796.582 1.803 1.272 2.203.284.163.55.198.725.097.178-.103.279-.35.279-.68 0-.794-.582-1.802-1.272-2.2a1.018 1.018 0 0 0-.495-.157h.002z" fill="#0F0F0F"/>
    <path d="M21.462 24.006c1.689 4.355 1.137 8.2-1.12 9.545l-.044.025a3.56 3.56 0 0 1-.983.382c-.174.04-.355.07-.542.087-.363.031-.74.02-1.119-.039-1.67-.246-3.468-1.31-5.074-2.915l-.002-.001c-1.565-1.56-2.948-3.63-3.844-5.948-1.703-4.381-1.13-8.248 1.164-9.569.445-.259.955-.42 1.527-.47 3.515-.314 8.008 3.67 10.04 8.902l-.003.001z" fill="#EFF1FF"/>
    <path d="M20.342 33.797a.25.25 0 0 1-.128-.467c2.199-1.31 2.617-5.112 1.015-9.239-1.99-5.125-6.378-9.048-9.783-8.742a3.429 3.429 0 0 0-1.423.438c-2.238 1.294-2.671 5.102-1.057 9.26.848 2.191 2.194 4.273 3.788 5.862a.25.25 0 0 1 0 .354.25.25 0 0 1-.355 0c-1.642-1.637-3.029-3.78-3.902-6.033-1.707-4.395-1.184-8.457 1.273-9.876a3.923 3.923 0 0 1 1.63-.504c3.613-.326 8.232 3.743 10.297 9.062 1.692 4.361 1.187 8.413-1.226 9.851a.256.256 0 0 1-.129.035v-.001z" fill="#0F0F0F"/>
    <path d="M18.38 34.308c-.251 0-.505-.02-.765-.059-1.689-.252-3.54-1.312-5.214-2.985a.25.25 0 0 1 0-.354.25.25 0 0 1 .355 0c1.598 1.597 3.351 2.607 4.933 2.844.363.056.72.067 1.06.037a3.73 3.73 0 0 0 .509-.082c.33-.077.638-.195.914-.354a.251.251 0 0 1 .251.434 3.78 3.78 0 0 1-1.052.408c-.195.046-.39.077-.577.092a4.827 4.827 0 0 1-.414.019z" fill="#0F0F0F"/>
    <path d="M12.856 28.628v-8.796c0-.205.258-.295.386-.136l5.278 6.598c.09.113.047.28-.086.335l-5.278 2.2a.216.216 0 0 1-.3-.2z" fill="url(#cgrkbjp5na)" stroke="#0F0F0F" stroke-width=".541"/>
    <defs>
        <linearGradient id="cgrkbjp5na" x1="12.856" y1="28.953" x2="21.449" y2="23.797" gradientUnits="userSpaceOnUse">
            <stop stop-color="#43E1A8"/>
            <stop offset="1" stop-color="#219393"/>
        </linearGradient>
    </defs>
</svg>
