<svg width="41" height="40" viewBox="0 0 41 40" fill="none" xmlns="http://www.w3.org/2000/svg">
    <ellipse cx="27.5" cy="33" rx="12" ry="3" fill="#E2E2E2"/>
    <path d="m26.874 8.508.628-.015c.455-.01.971.135 1.523.453 1.825 1.052 3.305 3.617 3.305 5.725 0 .636-.134 1.155-.372 1.547l-4.165 6.839-5.248 8.618c.648-1.136 1.013-2.63 1.013-4.431 0-6.253-4.39-13.856-9.806-16.983-1.574-.908-3.062-1.34-4.382-1.34l17.502-.41.002-.003z" fill="#EFF1FF"/>
    <path d="M29.505 25.8c-.317.257-.628.322-.877.224-.247-.098-.431-.357-.493-.755l-.033-.212 1.136-.913c.547-.44 1.064-1.026 1.506-1.711.501-.775.76-1.681.75-2.602l-.034-2.797.17-.278 1.305-.436.08.243.049 3.885a4.553 4.553 0 0 1-.672 2.473c-.46.735-1 1.368-1.582 1.834L29.505 25.8z" fill="#3543BF"/>
    <path d="M28.136 25.271c.06.398.245.659.492.755l-1.57-.608c-.183-.072-.33-.23-.42-.466l1.152-1.893.343 2.212h.003z" fill="#0F0F0F"/>
    <path d="M29.024 8.946c-.551-.318-1.068-.462-1.523-.453l-.628.015 2.788-2.471c.718-.637 1.83-.667 3.08.055 2.166 1.25 3.919 4.29 3.919 6.788 0 1.445-.584 2.39-1.495 2.697l-3.534 1.18.326-.54c.238-.39.372-.91.372-1.546 0-2.108-1.48-4.67-3.305-5.725z" fill="#F2A526"/>
    <path d="M23.557 27.24c0 1.801-.365 3.296-1.013 4.432l-.088.148c-1.632 2.686-4.92 3.266-8.705 1.08-5.415-3.128-9.805-10.73-9.805-16.983 0-4.436 2.208-6.999 5.423-6.999 1.318 0 2.808.431 4.382 1.34 5.416 3.127 9.806 10.727 9.806 16.982zm-9.338 3.672c4.335 2.802 7.642.89 7.386-4.263-.087-1.744-.571-3.637-1.341-5.486a22.726 22.726 0 0 0-2.644-4.677c-1.274-1.736-2.762-3.226-4.333-4.242-4.336-2.8-7.642-.89-7.386 4.264.258 5.154 3.983 11.603 8.316 14.404h.002z" fill="#C2C7EC"/>
    <path d="M21.603 26.656c.258 5.154-3.05 7.065-7.386 4.263-4.335-2.801-8.06-9.248-8.316-14.404-.258-5.154 3.05-7.065 7.386-4.264 1.571 1.016 3.06 2.508 4.333 4.242l-4.657 3.703a1.83 1.83 0 0 0 1.808 3.136l5.49-2.165c.771 1.85 1.255 3.743 1.342 5.487v.002z" fill="#3543BF"/>
    <path d="m20.262 21.163-5.491 2.164a1.834 1.834 0 0 1-2.254-.788 1.835 1.835 0 0 1 .446-2.348l4.657-3.703a22.866 22.866 0 0 1 2.644 4.677l-.002-.002z" fill="url(#e1z7vc5ega)"/>
    <path d="M18.158 34.57c-1.396 0-2.952-.46-4.57-1.394C8.092 30.003 3.62 22.256 3.62 15.91c0-4.451 2.259-7.327 5.751-7.327 1.425 0 2.955.466 4.546 1.383 5.497 3.173 9.97 10.92 9.97 17.267 0 1.821-.354 3.366-1.056 4.596a.325.325 0 0 1-.057.075.383.383 0 0 1-.035.08c-1.042 1.714-2.657 2.587-4.58 2.587zM9.371 9.24c-3.142 0-5.094 2.556-5.094 6.67 0 6.139 4.324 13.628 9.64 16.698 3.504 2.022 6.67 1.653 8.261-.965a.382.382 0 0 1 .053-.066.317.317 0 0 1 .03-.074c.644-1.13.97-2.565.97-4.27 0-6.138-4.327-13.63-9.642-16.698C12.12 9.687 10.663 9.24 9.37 9.24z" fill="#0F0F0F"/>
    <path d="M17.903 32.537c-1.162 0-2.482-.453-3.863-1.346-4.407-2.848-8.204-9.426-8.467-14.663-.131-2.622.628-4.546 2.134-5.417 1.506-.87 3.552-.564 5.758.86 1.552 1.003 3.079 2.497 4.418 4.325a23.199 23.199 0 0 1 2.681 4.744c.808 1.94 1.28 3.874 1.366 5.596.131 2.622-.628 4.546-2.134 5.417a3.745 3.745 0 0 1-1.893.486v-.002zM9.607 11.282c-.58 0-1.108.131-1.57.398-1.282.74-1.923 2.451-1.807 4.815.251 5.053 3.917 11.398 8.167 14.144 1.987 1.285 3.79 1.582 5.073.843 1.283-.74 1.924-2.451 1.808-4.815-.083-1.648-.539-3.506-1.318-5.377a22.546 22.546 0 0 0-2.604-4.607c-1.294-1.762-2.762-3.202-4.246-4.16-1.273-.823-2.47-1.241-3.503-1.241zM31.633 17.076a.33.33 0 0 1-.103-.641l3.534-1.18c.808-.27 1.27-1.138 1.27-2.383 0-2.392-1.685-5.311-3.756-6.506-1.079-.624-2.061-.657-2.698-.094l-2.79 2.473a.329.329 0 0 1-.436-.493l2.79-2.473c.86-.763 2.123-.757 3.463.016 2.252 1.298 4.083 4.47 4.083 7.073 0 1.545-.626 2.641-1.718 3.007l-3.534 1.18a.351.351 0 0 1-.103.017l-.002.004z" fill="#0F0F0F"/>
    <path d="M27.792 23.373a.327.327 0 0 1-.28-.499l4.167-6.839c.214-.352.324-.816.324-1.376 0-2-1.41-4.44-3.14-5.44-.48-.276-.935-.419-1.353-.41l-18.27.427a.33.33 0 0 1-.337-.32.33.33 0 0 1 .32-.337l18.27-.426c.536-.007 1.102.155 1.693.496 1.913 1.103 3.471 3.8 3.471 6.01 0 .683-.142 1.26-.42 1.718l-4.167 6.839a.33.33 0 0 1-.28.157h.002z" fill="#0F0F0F"/>
    <path d="M22.456 32.146a.327.327 0 0 1-.28-.499l5.335-8.763a.328.328 0 1 1 .56.341l-5.335 8.763a.33.33 0 0 1-.28.158zM14.111 23.772a2.179 2.179 0 0 1-1.88-1.076 2.174 2.174 0 0 1 .526-2.769l4.656-3.703a.328.328 0 0 1 .462.053.328.328 0 0 1-.052.461l-4.657 3.703a1.513 1.513 0 0 0-.366 1.926c.37.637 1.164.917 1.85.648l5.49-2.164a.33.33 0 0 1 .241.613l-5.49 2.164c-.255.1-.517.146-.78.146v-.002zM28.103 25.379a.328.328 0 0 1-.206-.584l1.136-.913c.517-.414 1.014-.98 1.436-1.633a4.36 4.36 0 0 0 .698-2.42l-.035-2.797a.328.328 0 0 1 .324-.333h.004c.18 0 .326.145.329.324l.035 2.797a5.013 5.013 0 0 1-.804 2.786c-.461.711-1.006 1.33-1.575 1.788l-1.138.913a.332.332 0 0 1-.206.072h.002z" fill="#0F0F0F"/>
    <path d="M28.857 26.394a.936.936 0 0 1-.348-.066c-.372-.146-.62-.505-.698-1.011l-.344-2.212c-.002-.018-.004-.033-.004-.05a.328.328 0 0 1 .654-.036l.342 2.197c.041.263.146.445.288.502.143.056.344-.01.552-.176l1.304-1.046c.545-.437 1.066-1.043 1.51-1.753a4.188 4.188 0 0 0 .622-2.295l-.048-3.885a.33.33 0 0 1 .324-.332h.004c.18 0 .326.144.328.323l.048 3.885a4.86 4.86 0 0 1-.722 2.652c-.481.77-1.055 1.434-1.654 1.918l-1.305 1.046c-.275.223-.573.339-.853.339z" fill="#0F0F0F"/>
    <path d="M28.627 26.348a.315.315 0 0 1-.118-.022l-1.57-.61c-.277-.11-.487-.338-.608-.66a.329.329 0 0 1 .615-.23c.037.1.107.228.232.276l1.57.609a.33.33 0 0 1-.121.637z" fill="#0F0F0F"/>
    <defs>
        <linearGradient id="e1z7vc5ega" x1="12.273" y1="23.453" x2="19.172" y2="15.537" gradientUnits="userSpaceOnUse">
            <stop stop-color="#43E1A8"/>
            <stop offset="1" stop-color="#219393"/>
        </linearGradient>
    </defs>
</svg>
