<svg width="28" height="28" viewBox="0 0 28 28" fill="none" xmlns="http://www.w3.org/2000/svg">
    <rect x="3.5" y="5.096" width="21" height="18.529" rx="1.154" stroke="#4A4A4A"/>
    <path d="m15.918 20.931-.072-.07a.638.638 0 0 1-.876.037l-.024-.021-4.585-4.261a.628.628 0 0 1-.153-.688.65.65 0 0 1 .587-.407h1.833c.893 0 1.668-.47 1.978-1.322l.048-.134H10.793a.625.625 0 0 1-.63-.618c0-.34.28-.618.63-.618h3.868l-.057-.138a2.12 2.12 0 0 0-.784-.954 2.176 2.176 0 0 0-1.19-.364h-1.837a.625.625 0 0 1-.63-.618c0-.34.28-.618.63-.618h6.414c.35 0 .63.278.63.618 0 .34-.28.618-.63.618h-1.943l.117.159c.269.364.457.78.554 1.219l.018.078h1.254c.35 0 .63.278.63.618 0 .34-.28.618-.63.618h-1.254l-.018.078a3.346 3.346 0 0 1-1.182 1.886l.062.078-.062-.078c-.6.48-1.349.744-2.123.75l-.1.002V16.924l.032.03 3.252 3.03h.001a.61.61 0 0 1 .031.878l.072.07zm0 0a.71.71 0 0 0-.036-1.02l-.873 1.139a.74.74 0 0 0 .91-.119z" fill="#4A4A4A" stroke="#fff" stroke-width=".2"/>
    <path d="M8.75 7.489V2.625M19.25 7.489V2.625" stroke="#4A4A4A" stroke-linecap="round" stroke-linejoin="round"/>
</svg>
