<svg width="28" height="28" viewBox="0 0 28 28" fill="none" xmlns="http://www.w3.org/2000/svg">
    <path d="M4.452 23.11a1.558 1.558 0 0 0 1.558 1.558h16.134a1.558 1.558 0 0 0 1.558-1.558V5.412a1.558 1.558 0 0 0-1.558-1.558L6.26 3.859c-.999 0-1.808.81-1.808 1.81V23.11z" stroke="#4A4A4A" stroke-linecap="round" stroke-linejoin="round"/>
    <path d="m14.628 7.312 1.296 2.552h2.21a.605.605 0 0 1 .435 1.039l-2.029 1.996 1.124 2.581a.611.611 0 0 1-.871.765l-2.717-1.53-2.716 1.528a.611.611 0 0 1-.872-.765l1.124-2.581-2.028-1.998a.605.605 0 0 1 .435-1.038h2.21l1.297-2.55a.624.624 0 0 1 1.102 0zM10.182 20.496h7.79" stroke="#4A4A4A" stroke-linecap="round" stroke-linejoin="round"/>
</svg>
