<svg width="41" height="40" viewBox="0 0 41 40" fill="none" xmlns="http://www.w3.org/2000/svg">
    <path d="M24.17 39.22 4.866 28.61a1.5 1.5 0 0 1-.013-2.622l9.792-5.507a2 2 0 0 1 1.76-.099l21.579 9.13c1.486.629 1.654 2.668.29 3.532l-9.527 6.034a4.5 4.5 0 0 1-4.575.142z" fill="#E2E2E2"/>
    <path d="M6.412 4.728 15.969.653A1.1 1.1 0 0 1 17.5 1.665v11.823L5.5 20V6.107a1.5 1.5 0 0 1 .912-1.38z" fill="#C2C7EC" stroke="#000" stroke-width=".5"/>
    <rect x="34.25" y="24.75" width="1.5" height="6.5" rx=".75" fill="#3543BF" stroke="#000" stroke-width=".5"/>
    <rect x="24.25" y="29.75" width="1.5" height="6.5" rx=".75" fill="#3543BF" stroke="#000" stroke-width=".5"/>
    <rect x="5.25" y="19.75" width="1.5" height="6.5" rx=".75" fill="#3543BF" stroke="#000" stroke-width=".5"/>
    <path d="M34.71 10.298 16.796.658a.2.2 0 0 0-.295.177v12.018a.2.2 0 0 0 .093.169l18.6 11.783a.2.2 0 0 0 .307-.168V11.618a1.5 1.5 0 0 0-.79-1.32z" fill="#EFF1FF" stroke="#0F0F0F" stroke-width=".5"/>
    <path d="M5.091 19.436c-.196-.172-.302-.366-.307-.561v1.728c0 .202.103.405.307.58.063.055.136.106.22.155 5.676 3.315 17.86 10.31 18.25 10.537.663.383 1.729.41 2.44.056 3.505-1.738 6.778-3.625 9.787-5.65.29-.194.43-.434.43-.674V23.86c0 .24-.14.48-.43.674-3.009 2.023-6.28 3.912-9.786 5.65-.712.353-1.778.327-2.44-.057-.392-.226-12.577-7.221-18.251-10.536-.084-.05-.155-.1-.22-.155z" fill="#3543BF"/>
    <path d="M5 18.5v.5l.5.5 1 .5L24 30.5h1.5l3-1.5 5.5-3.5 2-1.5v-.5L23.5 16 17 12.5h-1.5L12 14l-7 4.5z" fill="#C2C7EC"/>
    <path d="M15.738 14.01c2.282.459 4.263 2.316 5.068 3.301a.189.189 0 0 1 0 .242c-1.444 1.74-4.802 3.64-6.624 4.376a.204.204 0 0 1-.26-.108c-1.036-2.246-3.883-3.582-5.336-3.806-.094-.014-.127-.143-.05-.197 3.117-2.175 4.597-2.86 7.093-3.798a.197.197 0 0 1 .109-.01z" fill="url(#dv2o3jn3sa)" stroke="#0F0F0F" stroke-width=".5"/>
    <path d="M8.561 18.136c.813 1.68 3.675 3.344 5.232 3.808a.093.093 0 0 0 .108-.136c-1.008-1.894-2.9-3.73-5.25-3.806a.093.093 0 0 0-.09.134z" fill="#F2A526" stroke="#0F0F0F" stroke-width=".5"/>
    <path d="M24.836 30.716a2.94 2.94 0 0 0 1.29-.28c3.514-1.741 6.817-3.649 9.819-5.668.359-.242.555-.565.555-.909v-.026c-.006-.37-.244-.708-.669-.954l-18.25-10.536a1.998 1.998 0 0 0-.306-.146c-.75-.29-1.713-.257-2.401.082-3.506 1.737-6.808 3.645-9.819 5.67-.332.225-.529.521-.555.837v.112c.011.273.151.534.404.753.078.066.165.128.26.185 3.66 2.136 15.056 8.69 17.079 9.858l1.174.678c.395.229.905.344 1.417.344h.002zm-8.67-18.149c.314 0 .63.053.905.16.083.031.158.067.226.107L35.548 23.37c.242.14.381.314.385.474 0 .166-.11.323-.306.455-2.98 2.005-6.261 3.9-9.752 5.631-.62.308-1.594.287-2.172-.047 0 0-14.592-8.4-18.251-10.536a1.163 1.163 0 0 1-.176-.125c-.094-.081-.206-.21-.21-.355v-.027c.012-.15.12-.296.307-.423 2.99-2.01 6.27-3.906 9.752-5.632.297-.146.667-.22 1.04-.22v.003z" fill="#0F0F0F"/>
    <path d="M24.836 32.464a2.94 2.94 0 0 0 1.29-.28c3.514-1.741 6.815-3.65 9.819-5.669.359-.241.555-.564.555-.908V23.86a.283.283 0 1 0-.567 0v1.747c0 .15-.11.306-.306.44-2.98 2.004-6.261 3.899-9.752 5.63-.62.309-1.594.288-2.172-.046-.055-.032-15.017-8.648-18.25-10.537a1.306 1.306 0 0 1-.175-.124c-.096-.083-.21-.214-.21-.367v-1.796a.283.283 0 1 0-.566 0v1.796c0 .29.14.565.406.795.077.067.164.129.26.186 3.234 1.888 18.196 10.504 18.253 10.536.395.228.905.344 1.417.344h-.002z" fill="#0F0F0F"/>
    <defs>
        <linearGradient id="dv2o3jn3sa" x1="20.902" y1="22" x2="13.663" y2="10.595" gradientUnits="userSpaceOnUse">
            <stop stop-color="#43E1A8"/>
            <stop offset="1" stop-color="#219393"/>
        </linearGradient>
    </defs>
</svg>
