<svg width="41" height="41" viewBox="0 0 41 41" fill="none" xmlns="http://www.w3.org/2000/svg">
<path d="M23.8381 39.6097L14.5125 34.6138C13.361 33.997 13.4936 32.3051 14.7272 31.8752L25.0349 28.2825C25.5525 28.1021 26.1213 28.142 26.6086 28.3929L35.8167 33.1334C36.5312 33.5012 36.5419 34.519 35.8352 34.9018L27.1578 39.602C26.1229 40.1626 24.8755 40.1655 23.8381 39.6097Z" fill="#E2E2E2"/>
<path d="M8.74707 6.13672V23.1108C8.74707 24.2013 9.41026 25.4687 10.229 25.942L26.9214 35.5785C27.2784 35.7848 27.6075 35.8061 27.863 35.6735L27.8728 35.6669C28.1954 35.4934 28.4017 35.0693 28.4017 34.4585V17.4844L8.74871 6.13672H8.74707Z" fill="#EFF1FF"/>
<path d="M13.3634 5.93799C13.5861 5.65798 14.0512 5.79062 14.4163 6.24583C14.5899 6.46198 14.7127 6.71252 14.77 6.95159C14.8372 7.22505 14.8191 7.48214 14.7045 7.64752C14.4884 7.95537 14.0086 7.82764 13.6353 7.36096C13.2603 6.89592 13.1326 6.26712 13.3487 5.95928C13.3536 5.95109 13.3585 5.94617 13.3651 5.93799H13.3634ZM13.3274 4.2907L10.2293 2.50257C9.87234 2.29625 9.54321 2.27497 9.2894 2.4076C8.95863 2.57954 8.74902 3.00529 8.74902 3.62098V6.13941L28.402 17.4871V14.9687C28.402 13.8765 27.7405 12.6107 26.9217 12.1375L13.3291 4.28906L13.3274 4.2907ZM22.7331 11.3466C22.9574 11.0682 23.4208 11.2025 23.786 11.6561C23.9595 11.8722 24.0823 12.1227 24.1396 12.3618C24.2068 12.6369 24.1888 12.894 24.0742 13.0594C23.858 13.3672 23.3782 13.2379 23.0033 12.7728C22.6299 12.3061 22.5005 11.6773 22.7167 11.3695C22.7232 11.3613 22.7282 11.3548 22.7347 11.3466H22.7331Z" fill="#C2C7EC"/>
<path d="M12.4278 0.767471L9.28711 2.40495C9.54092 2.27231 9.87005 2.29359 10.227 2.49991L13.3251 4.28804C13.4954 3.44147 13.9113 2.52776 14.5385 1.75323C14.5794 1.70411 14.6204 1.65335 14.6597 1.6075L13.3677 0.862437C13.0107 0.654478 12.6832 0.634835 12.4278 0.767471Z" fill="#3543BF"/>
<path d="M13.3473 5.95259C13.1312 6.26044 13.2589 6.88924 13.6339 7.35428C14.0072 7.82096 14.487 7.94869 14.7031 7.64084C14.8194 7.47546 14.8374 7.21837 14.7686 6.94491C14.2888 6.97275 13.8713 6.79427 13.5896 6.39309C13.493 6.25554 13.4177 6.10162 13.362 5.92969C13.3555 5.93787 13.3506 5.94277 13.3457 5.95096L13.3473 5.95259Z" fill="#0F0F0F"/>
<path d="M13.3268 4.28992L22.6965 9.70014C22.8684 8.85357 23.2892 7.94475 23.9098 7.16532C23.9491 7.11619 23.9901 7.06707 24.0294 7.02122L14.6597 1.60938C14.6188 1.65522 14.5779 1.70599 14.5386 1.75511C13.9114 2.52964 13.4955 3.44335 13.3252 4.28992H13.3268Z" fill="#3543BF"/>
<path d="M13.3623 5.93438C13.418 6.10632 13.4933 6.26025 13.5899 6.3978C13.8732 6.79898 14.2907 6.97747 14.7689 6.94963C14.7116 6.71056 14.5904 6.46001 14.4152 6.24387C14.0501 5.78865 13.585 5.65438 13.3623 5.93602V5.93438Z" fill="#0F0F0F"/>
<path d="M22.7141 11.3683C22.498 11.6762 22.6273 12.305 23.0007 12.7716C23.3757 13.2367 23.8555 13.366 24.0716 13.0582C24.1879 12.8928 24.2059 12.6357 24.1371 12.3606C23.6573 12.3885 23.2398 12.2116 22.9565 11.8088C22.8599 11.6713 22.7862 11.5157 22.7321 11.3438C22.724 11.3519 22.719 11.3585 22.7141 11.3667V11.3683Z" fill="#0F0F0F"/>
<path d="M22.6953 9.69617L26.92 12.1344C27.7387 12.6076 28.4003 13.8734 28.4003 14.9656V17.484L31.5426 15.6697V13.3248C31.5426 12.2359 30.8794 10.9685 30.0623 10.4969L24.0299 7.01562C23.9889 7.06147 23.9496 7.1106 23.9103 7.15972C23.2897 7.93916 22.8672 8.84796 22.697 9.69453L22.6953 9.69617Z" fill="#3543BF"/>
<path d="M22.7331 11.3461C22.7871 11.5181 22.8624 11.6736 22.9574 11.8112C23.2407 12.214 23.6599 12.3909 24.1381 12.363C24.0807 12.1239 23.9596 11.8734 23.7844 11.6573C23.4192 11.2037 22.9558 11.0694 22.7314 11.3478L22.7331 11.3461Z" fill="#0F0F0F"/>
<path d="M27.8708 35.671L31.0016 34.0384C31.3324 33.8665 31.5404 33.4391 31.5404 32.8251V15.6758L28.398 17.4901V34.4642C28.398 35.0749 28.1917 35.4974 27.8691 35.6726L27.8708 35.671Z" fill="#3543BF"/>
<path d="M27.5111 36.0021C27.2835 36.0021 27.0411 35.9317 26.7971 35.7909L10.1047 26.1544C9.20574 25.6336 8.5 24.2975 8.5 23.1103V3.61779C8.5 2.93005 8.74562 2.4077 9.173 2.185C9.51359 2.00816 9.93114 2.04418 10.3487 2.28489L27.0411 11.9214C27.9401 12.4405 28.6442 13.7783 28.6442 14.9655V34.458C28.6442 35.1375 28.4051 35.6566 27.986 35.8826L27.9728 35.8908C27.8304 35.9645 27.6732 36.0021 27.5094 36.0021H27.5111ZM9.63804 2.56653C9.55125 2.56653 9.47102 2.58453 9.40061 2.62056C9.14517 2.75319 8.99124 3.12655 8.99124 3.61615V23.1086C8.99124 24.1026 9.61347 25.3012 10.3503 25.727L27.0411 35.3635C27.2294 35.4716 27.5029 35.5747 27.742 35.4552L27.7469 35.4519C28.004 35.3127 28.153 34.9427 28.153 34.4564V14.9638C28.153 13.9535 27.5438 12.7778 26.7955 12.3455L10.1047 2.70899C9.93769 2.61401 9.77886 2.56489 9.63804 2.56489V2.56653Z" fill="#0F0F0F"/>
<path d="M28.4005 17.7295C28.3579 17.7295 28.3153 17.7181 28.2777 17.6968L8.6247 6.34906C8.5068 6.28192 8.46751 6.13128 8.53465 6.01339C8.60179 5.89549 8.75242 5.85618 8.87032 5.92332L28.4005 17.2006L31.42 15.4583C31.5379 15.3896 31.6869 15.4305 31.7557 15.5484C31.8228 15.6663 31.7835 15.8153 31.6656 15.8841L28.5233 17.6984C28.4856 17.7197 28.4431 17.7311 28.4005 17.7311V17.7295Z" fill="#0F0F0F"/>
<path d="M27.8587 35.9127C27.7703 35.9127 27.6852 35.8652 27.6409 35.7801C27.5787 35.6605 27.6246 35.5115 27.7458 35.4493L30.8881 33.8118C31.1435 33.6792 31.2958 33.3075 31.2958 32.8162V13.3221C31.2958 12.3298 30.6736 11.1312 29.9383 10.707L13.2459 1.06888C13.0576 0.959165 12.7825 0.85436 12.5402 0.980446L9.3995 2.61792C9.27996 2.68014 9.13095 2.63429 9.06872 2.51312C9.0065 2.39358 9.05235 2.24457 9.17352 2.18235L12.3142 0.544872C12.6564 0.368025 13.074 0.402429 13.4915 0.644776L30.184 10.2829C31.0829 10.802 31.787 12.1382 31.787 13.3237V32.8179C31.787 33.5073 31.5414 34.0296 31.114 34.2507L27.9717 35.8881C27.9357 35.9078 27.8964 35.916 27.8587 35.916V35.9127Z" fill="#0F0F0F"/>
<path d="M23.7465 13.466C23.4354 13.466 23.0882 13.263 22.8099 12.9207C22.3579 12.3558 22.2302 11.6255 22.5135 11.221C22.5168 11.2161 22.52 11.2129 22.5233 11.208C22.5298 11.1981 22.538 11.1883 22.5479 11.1768C22.6707 11.0295 22.8459 10.9492 23.0424 10.9492C23.3568 10.9492 23.6974 11.1474 23.9774 11.4945C24.1673 11.7303 24.3098 12.0152 24.3786 12.2969C24.4654 12.6555 24.4293 12.9731 24.2754 13.1926C24.1575 13.3612 23.9774 13.4578 23.7711 13.4644C23.7629 13.4644 23.7547 13.4644 23.7481 13.4644L23.7465 13.466ZM22.9163 11.506C22.7837 11.6992 22.8737 12.2134 23.1947 12.6145C23.4157 12.888 23.6319 12.9846 23.7547 12.9764C23.8087 12.9748 23.8431 12.9568 23.8726 12.9142C23.9414 12.8159 23.9528 12.6293 23.9004 12.4164C23.8497 12.2035 23.7399 11.9874 23.5942 11.8056C23.3797 11.5387 23.1619 11.4437 23.0424 11.4437C22.9752 11.4437 22.9425 11.4716 22.9229 11.4961C22.9196 11.4994 22.9163 11.5027 22.9147 11.506H22.9163Z" fill="#0F0F0F"/>
<path d="M14.3756 8.05422C14.0645 8.05422 13.7173 7.85116 13.4406 7.50729C12.9887 6.94727 12.861 6.22188 13.141 5.81579C13.1491 5.80269 13.159 5.79123 13.1688 5.77813C13.2916 5.6242 13.4701 5.53906 13.6715 5.53906C13.9859 5.53906 14.3265 5.73883 14.6065 6.08597C14.7964 6.32177 14.9389 6.60669 15.006 6.88834C15.0928 7.24531 15.0552 7.56297 14.9029 7.78239C14.7833 7.95105 14.6049 8.04767 14.3969 8.05422C14.3887 8.05422 14.3822 8.05422 14.374 8.05422H14.3756ZM13.5471 6.09415C13.4128 6.28737 13.5028 6.7999 13.8254 7.19944C14.0448 7.4729 14.261 7.56298 14.3838 7.56298C14.4378 7.56134 14.4739 7.54169 14.5033 7.49911C14.5721 7.4025 14.5819 7.21091 14.5312 7.00296C14.4788 6.79008 14.3707 6.5723 14.225 6.39218C14.0105 6.12363 13.7943 6.02867 13.6748 6.02867C13.6076 6.02867 13.5749 6.05813 13.5552 6.0827C13.5536 6.08433 13.5503 6.08925 13.5471 6.09253V6.09415Z" fill="#0F0F0F"/>
<path d="M24.0421 12.5997C23.5116 12.5997 23.058 12.3689 22.7567 11.9415C22.6503 11.7892 22.5635 11.6124 22.498 11.411C22.3359 10.9099 22.3211 10.2975 22.4538 9.63919C22.6372 8.73039 23.0858 7.79212 23.7163 6.99958C23.7572 6.94718 23.7998 6.89641 23.8424 6.84729C24.6595 5.90247 25.6419 5.36211 26.4656 5.40468C26.9618 5.42925 27.3728 5.65686 27.6577 6.06131C28.144 6.75233 28.1817 7.89037 27.7543 9.10373C27.7101 9.23146 27.5693 9.2986 27.4415 9.25439C27.3138 9.21018 27.2467 9.06935 27.2909 8.94163C27.6593 7.89201 27.6462 6.89642 27.2565 6.34459C27.06 6.06459 26.7849 5.91394 26.441 5.89593C25.7598 5.86154 24.9329 6.33805 24.2141 7.16989C24.1764 7.2141 24.1371 7.25994 24.1011 7.30579C23.5165 8.03938 23.1039 8.90232 22.9352 9.7358C22.8189 10.3122 22.8304 10.8378 22.9663 11.2587C23.0154 11.4126 23.0809 11.5469 23.1595 11.6566C23.3855 11.9775 23.7097 12.1282 24.1256 12.1036C24.2648 12.0938 24.3778 12.1986 24.386 12.3345C24.3942 12.4704 24.291 12.5867 24.1551 12.5948C24.1175 12.5965 24.0798 12.5981 24.0438 12.5981L24.0421 12.5997Z" fill="#0F0F0F"/>
<path d="M14.6731 7.19595C14.1425 7.19595 13.6906 6.96507 13.3893 6.53769C13.2812 6.3854 13.1944 6.20692 13.1306 6.01042C12.9685 5.51591 12.9537 4.90184 13.0864 4.23703C13.273 3.30858 13.7217 2.3703 14.3489 1.59578C14.3898 1.54338 14.434 1.49263 14.4749 1.4435C15.292 0.498681 16.268 -0.0416942 17.0965 0.00251761C17.5911 0.0270797 18.0037 0.254689 18.287 0.657508C18.7749 1.35016 18.811 2.4882 18.3836 3.70157C18.3394 3.82929 18.1986 3.89643 18.0708 3.85222C17.9431 3.80801 17.876 3.66718 17.9202 3.53946C18.2886 2.48984 18.2755 1.49425 17.8842 0.940788C17.6877 0.660779 17.4142 0.510135 17.0703 0.49376C16.3924 0.461011 15.5639 0.935882 14.845 1.76608C14.8057 1.81029 14.7664 1.85778 14.7287 1.90526C14.1507 2.6192 13.7381 3.48216 13.5661 4.33365C13.4482 4.91659 13.4581 5.44221 13.594 5.85649C13.6431 6.00714 13.7086 6.14142 13.7888 6.25441C14.0115 6.57208 14.3456 6.72763 14.7533 6.70143C14.8909 6.69488 15.0055 6.79641 15.0137 6.93232C15.0219 7.06823 14.9187 7.18449 14.7828 7.19268C14.7451 7.19431 14.7091 7.19595 14.6714 7.19595H14.6731Z" fill="#0F0F0F"/>
<path d="M11.708 17.3906V22.6166L16.3835 25.3143V20.0898L11.708 17.3906Z" fill="#EFF1FF"/>
<path d="M11.708 12.2109V17.391L16.3835 20.0902V14.9101L11.708 12.2109Z" fill="#F2A526"/>
<path d="M16.3837 25.3144L21.0592 28.0135V22.7876L16.3837 20.0898V25.3144Z" fill="#EFF1FF"/>
<path d="M16.3838 14.9102V20.0902L21.0594 22.788V17.6093L16.3838 14.9102Z" fill="#EFF1FF"/>
<path d="M21.0596 22.7891V28.015L25.7351 30.7156V25.4882L21.0596 22.7891Z" fill="url(#paint0_linear_1227_34767)"/>
<path d="M21.0596 17.6094V22.7881L25.7351 25.4872V20.3085L21.0596 17.6094Z" fill="#EFF1FF"/>
<path d="M25.7351 30.9208C25.699 30.9208 25.6629 30.911 25.6309 30.893L11.6042 22.7955C11.5403 22.758 11.5 22.6899 11.5 22.6149V12.2088C11.5 12.1338 11.5403 12.0657 11.6042 12.0281C11.6682 11.9906 11.7488 11.9906 11.8127 12.0281L25.8394 20.1256C25.9033 20.1631 25.9436 20.2312 25.9436 20.3063V30.7123C25.9436 30.7874 25.9033 30.8555 25.8394 30.893C25.8074 30.911 25.7713 30.9208 25.7351 30.9208ZM11.917 22.4939L25.5267 30.3509V20.4272L11.917 12.5702V22.4939Z" fill="#0F0F0F"/>
<path d="M21.06 28.22C20.9447 28.22 20.8516 28.1269 20.8516 28.0116V17.6069C20.8516 17.4916 20.9447 17.3984 21.06 17.3984C21.1754 17.3984 21.2685 17.4916 21.2685 17.6069V28.0116C21.2685 28.1269 21.1754 28.22 21.06 28.22Z" fill="#0F0F0F"/>
<path d="M16.3841 25.5208C16.2688 25.5208 16.1757 25.4277 16.1757 25.3123V14.9077C16.1757 14.7923 16.2688 14.6992 16.3841 14.6992C16.4995 14.6992 16.5926 14.7923 16.5926 14.9077V25.3123C16.5926 25.4277 16.4995 25.5208 16.3841 25.5208Z" fill="#0F0F0F"/>
<path d="M25.7351 25.694C25.7003 25.694 25.6642 25.6857 25.6309 25.6662L11.6042 17.5688C11.5041 17.5118 11.4708 17.384 11.5277 17.2839C11.5847 17.1838 11.7126 17.1505 11.8127 17.2074L25.8393 25.3049C25.9394 25.3619 25.9728 25.4897 25.9158 25.5898C25.8769 25.6565 25.8074 25.694 25.7351 25.694Z" fill="#0F0F0F"/>
<path d="M18.3868 19.9523C18.3702 19.9523 18.3548 19.9509 18.3382 19.9467C18.2826 19.9328 18.2353 19.8981 18.2061 19.848L17.4125 18.4735C17.3555 18.3734 17.3889 18.2469 17.4889 18.1885C17.589 18.1301 17.7169 18.1649 17.7739 18.265L18.4577 19.4492L20.0046 18.4415C20.1005 18.3789 20.2298 18.4053 20.2937 18.5026C20.3563 18.5985 20.3299 18.7278 20.2326 18.7917L18.5008 19.9203C18.466 19.9426 18.4271 19.9537 18.3868 19.9537V19.9523Z" fill="#0F0F0F"/>
<path d="M19.4618 26.1742C21.1509 30.5287 20.599 34.3732 18.3414 35.7193L18.2979 35.7444C18.0002 35.9166 17.6691 36.0437 17.3146 36.1257C17.1407 36.1658 16.9601 36.1959 16.7728 36.2126C16.4099 36.2444 16.0336 36.2327 15.654 36.1741C13.9834 35.9283 12.1856 34.8631 10.5802 33.2595L10.5785 33.2578C9.01325 31.6976 7.63026 29.6274 6.7339 27.3097C5.03149 22.9284 5.60342 19.0622 7.89782 17.7412C8.34265 17.482 8.85273 17.3215 9.42466 17.2713C12.9398 16.9569 17.4333 20.9418 19.4652 26.1726L19.4618 26.1742Z" fill="#C2C7EC"/>
<path d="M18.3424 35.9646C18.2571 35.9646 18.1735 35.9212 18.1267 35.8426C18.0564 35.7239 18.0949 35.57 18.2136 35.4981C20.4127 34.1871 20.8308 30.3861 19.2287 26.259C17.2387 21.1337 12.8505 17.2106 9.44572 17.5167C8.92396 17.5635 8.44401 17.7106 8.02259 17.9548C5.78505 19.2491 5.35195 23.0567 6.96572 27.2156C7.81358 29.4062 9.15977 31.4881 10.7535 33.0767C10.8521 33.1737 10.8521 33.3326 10.7535 33.4312C10.6565 33.5299 10.4976 33.5299 10.3989 33.4312C8.75673 31.7941 7.37041 29.6503 6.49747 27.3978C4.79004 23.0032 5.31345 18.9414 7.77007 17.5217C8.25504 17.2407 8.80355 17.0718 9.40057 17.0183C13.0127 16.6922 17.6317 20.7608 19.697 26.0801C21.3893 30.4413 20.8843 34.4931 18.4711 35.9312C18.431 35.9546 18.3859 35.9663 18.3424 35.9663V35.9646Z" fill="#0F0F0F"/>
<path d="M16.3796 36.4759C16.1288 36.4759 15.8746 36.4558 15.6154 36.4173C13.9264 36.1648 12.0751 35.1046 10.4011 33.4324C10.3025 33.3338 10.3025 33.1749 10.4011 33.0779C10.4998 32.9792 10.6587 32.9792 10.7557 33.0779C12.3544 34.6749 14.107 35.6849 15.689 35.9224C16.0519 35.9775 16.4098 35.9892 16.7493 35.9591C16.9165 35.9441 17.0837 35.9173 17.2576 35.8772C17.5887 35.8003 17.8964 35.6816 18.1723 35.5227C18.2928 35.4541 18.4466 35.4943 18.5152 35.6147C18.5837 35.7351 18.5436 35.8872 18.4232 35.9575C18.1055 36.1414 17.751 36.2785 17.3713 36.3655C17.1757 36.4107 16.9817 36.4424 16.7944 36.4575C16.6589 36.4692 16.5201 36.4759 16.3796 36.4759Z" fill="#0F0F0F"/>
<path d="M12.5761 28.4721L10.7471 29.3672L12.4568 32.8609" stroke="black" stroke-width="0.703181" stroke-linecap="round" stroke-linejoin="round"/>
<path d="M16.6508 27.3344C16.9863 28.5106 17.0658 29.6233 16.8769 30.4997C16.6881 31.3761 16.2415 31.9675 15.6064 32.1817C14.9713 32.396 14.1833 32.2214 13.3645 31.6849C12.5457 31.1485 11.7421 30.2803 11.0781 29.2148" stroke="black" stroke-width="0.703181" stroke-linecap="round" stroke-linejoin="round"/>
<path d="M13.4031 24.607L15.2321 23.712L13.5224 20.2182" stroke="black" stroke-width="0.703181" stroke-linecap="round" stroke-linejoin="round"/>
<path d="M9.32973 25.7575C8.99489 24.5817 8.91594 23.4698 9.10503 22.594C9.29416 21.7181 9.74077 21.1273 10.3757 20.9132C11.0106 20.6991 11.7984 20.8735 12.6169 21.4096C13.4353 21.9456 14.2389 22.8132 14.9029 23.878" stroke="black" stroke-width="0.703181" stroke-linecap="round" stroke-linejoin="round"/>
<defs>
<linearGradient id="paint0_linear_1227_34767" x1="21.0596" y1="30.7156" x2="27.9969" y2="26.6235" gradientUnits="userSpaceOnUse">
<stop stop-color="#43E1A8"/>
<stop offset="1" stop-color="#219393"/>
</linearGradient>
</defs>
</svg>
