<svg width="41" height="41" viewBox="0 0 41 41" fill="none" xmlns="http://www.w3.org/2000/svg">
    <path d="m23.838 39.61-9.326-4.996c-1.151-.617-1.018-2.309.215-2.739l10.308-3.593a2 2 0 0 1 1.574.11l9.208 4.741a1 1 0 0 1 .018 1.769l-8.677 4.7a3.5 3.5 0 0 1-3.32.008z" fill="#E2E2E2"/>
    <path d="M8.747 6.137V23.11c0 1.09.663 2.358 1.482 2.831l16.692 9.636c.357.207.687.228.942.095l.01-.006c.322-.174.529-.598.529-1.209V17.485L8.749 6.137h-.002z" fill="#EFF1FF"/>
    <path d="M13.363 5.938c.223-.28.688-.147 1.053.308.174.216.297.467.354.706.067.273.05.53-.066.696-.216.307-.695.18-1.069-.287-.375-.465-.502-1.094-.286-1.402l.016-.021h-.002zm-.036-1.647L10.23 2.503c-.357-.207-.686-.228-.94-.095-.33.172-.54.597-.54 1.213v2.518l19.653 11.348V14.97c0-1.092-.662-2.358-1.48-2.832L13.329 4.29l-.002.002zm9.406 7.056c.224-.279.688-.144 1.053.31.173.215.296.466.354.705.067.275.049.532-.066.697-.216.308-.696.179-1.07-.286-.374-.467-.504-1.096-.287-1.403l.018-.023h-.002z" fill="#C2C7EC"/>
    <path d="m12.428.767-3.14 1.638c.253-.133.582-.111.939.095l3.098 1.788c.17-.847.586-1.76 1.214-2.535.04-.049.081-.1.12-.145L13.369.861c-.357-.208-.685-.227-.94-.095z" fill="#3543BF"/>
    <path d="M13.347 5.953c-.216.307-.088.936.287 1.401.373.467.853.595 1.07.287.115-.166.133-.423.065-.696-.48.028-.898-.15-1.18-.552a1.722 1.722 0 0 1-.227-.463l-.016.021.001.002z" fill="#0F0F0F"/>
    <path d="m13.327 4.29 9.37 5.41c.171-.846.592-1.755 1.213-2.535.04-.049.08-.098.12-.144L14.66 1.61a6.015 6.015 0 0 0-1.335 2.68h.002z" fill="#3543BF"/>
    <path d="M13.362 5.934c.056.172.131.326.228.464.283.401.7.58 1.179.552a1.816 1.816 0 0 0-.354-.706c-.365-.455-.83-.59-1.053-.308v-.002zM22.714 11.368c-.216.308-.087.937.287 1.404.375.465.854.594 1.07.286.117-.165.135-.422.066-.697-.48.027-.897-.15-1.18-.552a1.679 1.679 0 0 1-.225-.465.11.11 0 0 0-.018.023v.001z" fill="#0F0F0F"/>
    <path d="m22.695 9.696 4.225 2.438c.819.474 1.48 1.74 1.48 2.832v2.518l3.143-1.814v-2.345c0-1.09-.664-2.356-1.48-2.828L24.03 7.016c-.041.045-.08.095-.12.144-.62.78-1.043 1.688-1.213 2.535l-.002.001z" fill="#3543BF"/>
    <path d="M22.733 11.346c.054.172.13.328.224.465.284.403.703.58 1.181.552a1.817 1.817 0 0 0-.354-.706c-.365-.453-.828-.588-1.053-.31h.002z" fill="#0F0F0F"/>
    <path d="m27.87 35.671 3.132-1.633c.33-.171.538-.599.538-1.213v-17.15l-3.142 1.815v16.974c0 .61-.206 1.033-.529 1.209l.002-.002z" fill="#3543BF"/>
    <path d="M27.511 36.002c-.227 0-.47-.07-.714-.211l-16.692-9.637c-.9-.52-1.605-1.857-1.605-3.044V3.618c0-.688.246-1.21.673-1.433.34-.177.758-.14 1.176.1L27.04 11.92c.9.52 1.603 1.857 1.603 3.045v19.492c0 .68-.239 1.199-.658 1.425l-.013.008c-.143.074-.3.111-.464.111h.002zM9.638 2.567a.517.517 0 0 0-.237.054c-.256.132-.41.506-.41.995V23.11c0 .994.622 2.192 1.36 2.618l16.69 9.637c.188.108.462.21.701.091l.005-.003c.257-.14.406-.51.406-.996V14.964c0-1.01-.61-2.186-1.357-2.619L10.105 2.71a.967.967 0 0 0-.467-.144v.002z" fill="#0F0F0F"/>
    <path d="M28.4 17.73a.25.25 0 0 1-.122-.033L8.625 6.349a.246.246 0 0 1 .245-.426L28.4 17.201l3.02-1.743a.246.246 0 0 1 .246.426l-3.143 1.814a.25.25 0 0 1-.122.033v-.002z" fill="#0F0F0F"/>
    <path d="M27.859 35.913a.245.245 0 0 1-.113-.463l3.142-1.638c.255-.133.408-.505.408-.996V13.322c0-.992-.622-2.19-1.358-2.615L13.246 1.07c-.188-.11-.463-.215-.706-.089L9.4 2.618a.245.245 0 1 1-.226-.436l3.14-1.637c.342-.177.76-.143 1.178.1l16.692 9.638c.899.519 1.603 1.855 1.603 3.04v19.495c0 .69-.246 1.212-.673 1.433l-3.142 1.637a.235.235 0 0 1-.113.028v-.003z" fill="#0F0F0F"/>
    <path d="M23.747 13.466c-.312 0-.659-.203-.937-.545-.452-.565-.58-1.295-.296-1.7l.01-.013a.63.63 0 0 1 .52-.259c.313 0 .653.198.933.546.19.235.333.52.402.802.086.358.05.676-.104.896a.627.627 0 0 1-.504.271h-.023l-.002.002zm-.83-1.96c-.133.193-.043.707.278 1.108.22.274.437.37.56.362a.133.133 0 0 0 .118-.062c.068-.098.08-.285.027-.498a1.592 1.592 0 0 0-.306-.61c-.214-.267-.432-.362-.552-.362-.067 0-.1.028-.12.052a.042.042 0 0 0-.007.01h.001zM14.376 8.054c-.311 0-.659-.203-.935-.547-.452-.56-.58-1.285-.3-1.691.008-.013.018-.025.028-.038a.63.63 0 0 1 .502-.239c.315 0 .655.2.936.547.19.236.332.52.399.802.087.357.05.675-.103.894a.63.63 0 0 1-.506.272h-.023.002zm-.829-1.96c-.134.193-.044.706.278 1.105.22.274.436.364.559.364a.137.137 0 0 0 .12-.064c.068-.096.078-.288.027-.496a1.604 1.604 0 0 0-.306-.61c-.214-.27-.43-.364-.55-.364a.14.14 0 0 0-.12.054l-.008.01v.001z" fill="#0F0F0F"/>
    <path d="M24.042 12.6c-.53 0-.984-.231-1.285-.659a2.001 2.001 0 0 1-.259-.53c-.162-.501-.177-1.114-.044-1.772.183-.909.632-1.847 1.262-2.64.041-.052.084-.103.126-.152.818-.945 1.8-1.485 2.624-1.442.496.024.907.252 1.192.656.486.691.524 1.83.096 3.043a.246.246 0 0 1-.463-.162c.368-1.05.355-2.046-.035-2.597a1.017 1.017 0 0 0-.815-.45c-.681-.033-1.508.443-2.227 1.275-.038.044-.077.09-.113.136-.584.733-.997 1.596-1.166 2.43-.116.576-.105 1.102.031 1.523.05.154.115.288.194.398.226.32.55.471.966.447.139-.01.252.095.26.23a.246.246 0 0 1-.23.26 2.502 2.502 0 0 1-.112.004l-.002.002zM14.673 7.196c-.53 0-.982-.23-1.284-.658a1.956 1.956 0 0 1-.258-.528c-.162-.494-.177-1.108-.045-1.773a6.246 6.246 0 0 1 1.263-2.641c.04-.053.085-.103.126-.153.817-.944 1.793-1.485 2.622-1.44.494.024.907.252 1.19.655.488.692.524 1.83.097 3.044a.246.246 0 0 1-.464-.163c.369-1.05.356-2.045-.036-2.598-.196-.28-.47-.43-.814-.447-.678-.033-1.506.442-2.225 1.272a5.755 5.755 0 0 0-1.279 2.568c-.118.583-.108 1.108.028 1.522.05.151.115.285.195.398.223.318.557.474.964.447a.246.246 0 1 1 .03.492l-.111.003h.001z" fill="#0F0F0F"/>
    <path d="M11.708 17.39v5.227l4.676 2.697V20.09l-4.676-2.7z" fill="#EFF1FF"/>
    <path d="M11.708 12.21v5.181l4.676 2.7v-5.18l-4.676-2.7z" fill="#F2A526"/>
    <path d="m16.384 25.314 4.675 2.7v-5.226l-4.675-2.698v5.224z" fill="#EFF1FF"/>
    <path d="M16.384 14.91v5.18l4.675 2.698v-5.179l-4.675-2.699z" fill="#EFF1FF"/>
    <path d="M21.06 22.79v5.225l4.675 2.7v-5.227L21.06 22.79z" fill="url(#b1ow9nw3ta)"/>
    <path d="M21.06 17.61v5.178l4.675 2.7v-5.18L21.06 17.61z" fill="#EFF1FF"/>
    <path d="M25.735 30.92a.214.214 0 0 1-.104-.027l-14.027-8.098a.21.21 0 0 1-.104-.18V12.209a.21.21 0 0 1 .104-.18.207.207 0 0 1 .209 0l14.026 8.097a.21.21 0 0 1 .105.18v10.406a.21.21 0 0 1-.209.209zm-13.818-8.426 13.61 7.857v-9.924l-13.61-7.857v9.924z" fill="#0F0F0F"/>
    <path d="M21.06 28.22a.208.208 0 0 1-.208-.208V17.607a.208.208 0 1 1 .416 0v10.405a.208.208 0 0 1-.208.208zM16.384 25.521a.208.208 0 0 1-.208-.209V14.909a.208.208 0 1 1 .417 0v10.405a.208.208 0 0 1-.209.208z" fill="#0F0F0F"/>
    <path d="M25.735 25.694a.205.205 0 0 1-.104-.028L11.604 17.57a.209.209 0 0 1 .209-.362l14.026 8.098a.209.209 0 0 1-.104.389zM18.387 19.952a.21.21 0 0 1-.18-.104l-.794-1.374a.21.21 0 0 1 .36-.209l.685 1.184 1.547-1.008a.21.21 0 0 1 .228.35l-1.732 1.13a.21.21 0 0 1-.114.033v-.002z" fill="#0F0F0F"/>
    <path d="M19.462 26.174c1.689 4.355 1.137 8.2-1.12 9.545l-.044.025c-.298.173-.629.3-.983.382-.174.04-.355.07-.542.087a4.67 4.67 0 0 1-1.119-.039c-1.67-.246-3.468-1.31-5.074-2.914l-.002-.002c-1.565-1.56-2.948-3.63-3.844-5.948-1.703-4.382-1.13-8.248 1.164-9.569.445-.259.955-.42 1.527-.47 3.515-.314 8.008 3.67 10.04 8.902l-.003.001z" fill="#C2C7EC"/>
    <path d="M18.342 35.965a.25.25 0 0 1-.128-.467c2.199-1.31 2.617-5.112 1.015-9.239-1.99-5.125-6.378-9.048-9.783-8.742a3.427 3.427 0 0 0-1.423.438c-2.238 1.294-2.671 5.102-1.057 9.26.848 2.191 2.194 4.273 3.788 5.862a.25.25 0 0 1 0 .354.25.25 0 0 1-.355 0c-1.642-1.637-3.029-3.78-3.902-6.033-1.707-4.395-1.184-8.457 1.273-9.876a3.922 3.922 0 0 1 1.63-.504c3.613-.326 8.232 3.743 10.297 9.062 1.692 4.361 1.187 8.413-1.226 9.851a.257.257 0 0 1-.129.035v-.001z" fill="#0F0F0F"/>
    <path d="M16.38 36.476c-.251 0-.505-.02-.765-.059-1.689-.252-3.54-1.312-5.214-2.985a.25.25 0 0 1 0-.354.25.25 0 0 1 .355 0c1.598 1.597 3.351 2.607 4.933 2.844.363.056.72.067 1.06.037a3.73 3.73 0 0 0 .509-.082c.33-.077.638-.195.914-.354a.251.251 0 0 1 .251.434 3.783 3.783 0 0 1-1.052.408c-.195.046-.39.077-.577.093a4.827 4.827 0 0 1-.414.018z" fill="#0F0F0F"/>
    <path d="m12.576 28.472-1.829.895 1.71 3.494" stroke="#000" stroke-width=".703" stroke-linecap="round" stroke-linejoin="round"/>
    <path d="M16.65 27.334c.336 1.177.416 2.29.227 3.166-.189.876-.636 1.468-1.27 1.682-.636.214-1.424.04-2.242-.497-.82-.537-1.623-1.405-2.287-2.47M13.403 24.607l1.83-.895-1.71-3.494" stroke="#000" stroke-width=".703" stroke-linecap="round" stroke-linejoin="round"/>
    <path d="M9.33 25.758c-.335-1.176-.414-2.288-.225-3.164.19-.876.636-1.467 1.27-1.68.636-.215 1.423-.04 2.242.496.818.536 1.622 1.403 2.286 2.468" stroke="#000" stroke-width=".703" stroke-linecap="round" stroke-linejoin="round"/>
    <defs>
        <linearGradient id="b1ow9nw3ta" x1="21.06" y1="30.716" x2="27.997" y2="26.623" gradientUnits="userSpaceOnUse">
            <stop stop-color="#43E1A8"/>
            <stop offset="1" stop-color="#219393"/>
        </linearGradient>
    </defs>
</svg>
